STARTFONT 2.3
FONT -FontForge-Zen Tokyo Zoo-Book-R-Normal--36-360-72-72-P-169-ISO10646-1
SIZE 36 72 72  4
FONTBOUNDINGBOX 47 49 -4 -9
COMMENT "Generated by fontforge, http://fontforge.sourceforge.net"
COMMENT "Copyright 2021 The Zen Tokyo Zoo Project Authors (https://github.com/googlefonts/zen-tokyo-zoo)"
STARTPROPERTIES 40
FOUNDRY "FontForge"
FAMILY_NAME "Zen Tokyo Zoo"
WEIGHT_NAME "Book"
SLANT "R"
SETWIDTH_NAME "Normal"
ADD_STYLE_NAME ""
PIXEL_SIZE 36
POINT_SIZE 360
RESOLUTION_X 72
RESOLUTION_Y 72
SPACING "P"
AVERAGE_WIDTH 169
CHARSET_REGISTRY "ISO10646"
CHARSET_ENCODING "1"
FONTNAME_REGISTRY ""
CHARSET_COLLECTIONS "ISO10646-1"
BITS_PER_PIXEL 4
FONT_NAME "ZenTokyoZoo-Regular"
FACE_NAME "Zen Tokyo Zoo Regular"
COPYRIGHT "Copyright 2021 The Zen Tokyo Zoo Project Authors (https://github.com/googlefonts/zen-tokyo-zoo)"
FONT_VERSION "1.002; ttfautohint (v1.8.3)"
FONT_ASCENT 29
FONT_DESCENT 7
UNDERLINE_POSITION -5
UNDERLINE_THICKNESS 1
X_HEIGHT 14
CAP_HEIGHT 28
RAW_ASCENT 800
RAW_DESCENT 200
NORM_SPACE 10
RELATIVE_WEIGHT 40
RELATIVE_SETWIDTH 50
SUPERSCRIPT_X 0
SUPERSCRIPT_Y 12
SUPERSCRIPT_SIZE 21
SUBSCRIPT_X 0
SUBSCRIPT_Y 2
SUBSCRIPT_SIZE 21
AVG_LOWERCASE_WIDTH 148
AVG_UPPERCASE_WIDTH 272
ENDPROPERTIES
CHARS 338
STARTCHAR CR
ENCODING 13
SWIDTH 600 0
DWIDTH 22 0
BBX 1 1 0 0
BITMAP
00
ENDCHAR
STARTCHAR space
ENCODING 32
SWIDTH 280 0
DWIDTH 10 0
BBX 1 1 0 0
BITMAP
00
ENDCHAR
STARTCHAR exclam
ENCODING 33
SWIDTH 196 0
DWIDTH 7 0
BBX 5 15 1 0
BITMAP
3D0C40
3D0C40
3D0C40
3D0C40
3D0C40
3D0C40
3D0C40
3D0C40
3D0C40
3D0C40
3D0C40
000000
3D0C40
3D0C40
3D0C40
ENDCHAR
STARTCHAR quotedbl
ENCODING 34
SWIDTH 302 0
DWIDTH 11 0
BBX 10 5 0 10
BITMAP
1F0B50792F
1F0B50792F
1F0B50792F
1F0B50792F
1F0B50792F
ENDCHAR
STARTCHAR numbersign
ENCODING 35
SWIDTH 513 0
DWIDTH 18 0
BBX 16 15 1 0
BITMAP
00007A1F00A64C00
0000973D00100100
02E4B55B6EEEEEEA
0020D38912222221
0000F1A700000000
02D2E0C5BEEEEEEA
0024C0E222222221
000000000973D000
3EEEEEEE3B56B680
022222220E388110
3EEEEEED1F0A6B80
022222223D0D4210
003A0B206B0F1000
006A0F10882E0000
00882E00A64C0000
ENDCHAR
STARTCHAR dollar
ENCODING 36
SWIDTH 379 0
DWIDTH 14 0
BBX 12 18 1 -2
BITMAP
00000B600000
00010B610000
008E0B65D600
1CA20B604D70
7B070B6322E2
C55D0B63C073
C55D33200000
8A08ED840000
1DA2048CD600
018EB7203C90
00015AEB31E4
00000217E198
51580B61E298
A71C0B6580D5
3E500B601AC0
04EC0B63EB10
00150B623000
00000B600000
ENDCHAR
STARTCHAR percent
ENCODING 37
SWIDTH 493 0
DWIDTH 18 0
BBX 17 15 0 0
BITMAP
006DFD700005C0C500
06E525D7001D37A000
0E46D73E10A73D1000
1F0C5E0E25C0C50000
0E37F92F2D37A00000
07D313C9A72D100000
008EFE85C0C5000000
0000201D37A0000000
000000A82D28DEB300
000005C0C5BC437E30
00001D37B4E1AD38A0
0000A82D26B2D794C0
0004C0B604D1CF58A0
001D36B000BB437E30
00982D200019EFC400
ENDCHAR
STARTCHAR ampersand
ENCODING 38
SWIDTH 487 0
DWIDTH 18 0
BBX 16 16 1 -1
BITMAP
000019DFE9200000
0001DA423AD10000
0007C1AEB1B80000
000A66C2B76B0000
000B66A0985C0000
000892E352890000
0003E18C02E30000
0000A90C81500000
00981D62E506A0B5
08D203E35E2542F3
0F33B07D19B01C90
1F1A910B90C81900
0E55FF41D62E4000
07E511224E26E100
006DFFE907D1AB00
0000110000210200
ENDCHAR
STARTCHAR quotesingle
ENCODING 39
SWIDTH 146 0
DWIDTH 5 0
BBX 5 5 0 10
BITMAP
1F0B50
1F0B50
1F0B50
1F0B50
1F0B50
ENDCHAR
STARTCHAR parenleft
ENCODING 40
SWIDTH 210 0
DWIDTH 8 0
BBX 6 17 1 -1
BITMAP
007245
03D0D4
0A74C0
1E2A70
5C0E20
883E00
B55B00
D47900
E38800
D37900
C46A00
A74C00
7A1F10
3E0C50
0D47A0
07A1E1
01E298
ENDCHAR
STARTCHAR parenright
ENCODING 41
SWIDTH 210 0
DWIDTH 8 0
BBX 7 17 0 -1
BITMAP
17053000
0B65C000
04D0D300
00E38800
00973D00
005B0F10
002E0C40
001F0A60
000F1970
000F1A60
001F0B50
004C0D30
00791F00
00B56B00
01E1B600
0792E100
1E398000
ENDCHAR
STARTCHAR asterisk
ENCODING 42
SWIDTH 358 0
DWIDTH 13 0
BBX 10 10 1 6
BITMAP
0000202000
0000C1B000
0330C1B043
0499000A82
1B6100017B
0262000361
0029000920
00B4B2A3C0
0048707830
0003000300
ENDCHAR
STARTCHAR plus
ENCODING 43
SWIDTH 394 0
DWIDTH 14 0
BBX 12 11 1 2
BITMAP
0000A74C0000
0000A74C0000
0000A74C0000
0000A74C0000
8EE1A74C0DEB
1220A74C0221
8EE1A74C0DEB
1220A74C0221
0000A74C0000
0000A74C0000
0000A74C0000
ENDCHAR
STARTCHAR comma
ENCODING 44
SWIDTH 216 0
DWIDTH 8 0
BBX 6 5 1 -2
BITMAP
026062
0891F1
0C45C0
2E1A70
6B0E30
ENDCHAR
STARTCHAR hyphen
ENCODING 45
SWIDTH 326 0
DWIDTH 12 0
BBX 9 4 1 5
BITMAP
3EEEEEEED0
0222222220
3EEEEEEED0
0222222220
ENDCHAR
STARTCHAR period
ENCODING 46
SWIDTH 176 0
DWIDTH 6 0
BBX 4 3 1 0
BITMAP
883D
883D
883D
ENDCHAR
STARTCHAR slash
ENCODING 47
SWIDTH 298 0
DWIDTH 11 0
BBX 9 15 1 0
BITMAP
00003E0A70
00008A1E20
0000D55C00
0003E0A700
0008A0E300
000C55D000
002E198000
007A0E3000
00C54D0000
02F1980000
07B0E30000
0C64D00000
2F19800000
7B0E400000
B64E000000
ENDCHAR
STARTCHAR zero
ENCODING 48
SWIDTH 306 0
DWIDTH 11 0
BBX 9 16 1 -1
BITMAP
019DFD9100
1DA424AD10
8B1AEA1B80
C46C2B74D0
E2880882E0
E2880882E0
E2880882E0
E2880882E0
E2880882E0
E2880882E0
E2880882E0
D37A0A73E0
B71DFD27B0
4E30103E40
07EB9BE700
0026762000
ENDCHAR
STARTCHAR one
ENCODING 49
SWIDTH 306 0
DWIDTH 11 0
BBX 9 15 1 0
BITMAP
3FF74D0D30
01114D0D30
00004D0D30
3EE74D0D30
02214D0D30
00004D0D30
00004D0D30
00004D0D30
00004D0D30
00004D0D30
00004D0D30
00004D0D30
00004D0D30
00004D0D30
00004D0D30
ENDCHAR
STARTCHAR two
ENCODING 50
SWIDTH 299 0
DWIDTH 11 0
BBX 9 15 1 0
BITMAP
019DFD8100
1DA324BB00
7B0AEA1D50
A64D3D4890
00002E2790
0001D70B60
000BB06D00
008D13E400
04E32E6000
2E51C80000
6605800000
0000000000
DEEEEEEE70
3333333310
EFFFFFFF70
ENDCHAR
STARTCHAR three
ENCODING 51
SWIDTH 324 0
DWIDTH 12 0
BBX 10 16 1 -1
BITMAP
006CFEB500
0AC5236E70
6D100003E2
B607DD40A7
921B46D078
0000001076
00002EB500
0000037E70
00000004F2
00002C30B6
000008C088
C32D16C088
A809FE50D4
3E50100AC0
04EC89DC10
0015774000
ENDCHAR
STARTCHAR four
ENCODING 52
SWIDTH 339 0
DWIDTH 12 0
BBX 11 15 1 0
BITMAP
0000C60D5000
0004E15D0000
000B70C60000
003E14D00000
00A80C700000
02F24E100000
0990B8000000
2F23E1880E20
000000880E20
DEEED0880E20
222220880E20
000000880E20
DEEED0880E20
222220880E20
000000880E20
ENDCHAR
STARTCHAR five
ENCODING 53
SWIDTH 363 0
DWIDTH 13 0
BBX 10 16 2 -1
BITMAP
4FFFFFFFF0
0111111110
0000000000
4EEEEEEEE0
0222222220
4C0D300000
4C0D310000
4C0D38E700
4C0D304E60
4C0D3424E0
000007B0E2
762B15C0D3
6C0AFE52F1
1E70101B90
03DC9AEB10
0015773000
ENDCHAR
STARTCHAR six
ENCODING 54
SWIDTH 306 0
DWIDTH 11 0
BBX 9 16 1 -1
BITMAP
019DFD9100
1DA423AD10
8B1AEA1A90
D46C2C64D0
E288022030
E288000000
E288000000
E2885D9100
E28814AD10
E288460A80
E2882D64D0
D37A0A83E0
B71DFD26B0
4E30103E50
07EB9BE700
0026762000
ENDCHAR
STARTCHAR seven
ENCODING 55
SWIDTH 298 0
DWIDTH 11 0
BBX 9 15 1 0
BITMAP
AFFFFFFFA0
1111111110
0000000000
AEEEEEEEA0
1222222210
0000891F10
0000C55C00
0001F19800
0005C0D400
000982E000
000D46B000
002E0A6000
006B0E2000
00A74D0000
00E2890000
ENDCHAR
STARTCHAR eight
ENCODING 56
SWIDTH 306 0
DWIDTH 11 0
BBX 9 16 1 -1
BITMAP
019DFD9100
1DA424AD10
8B1AEA1A80
C46C2C74D0
D37A0883E0
C52E7017C0
8C03EA0550
1CA12CC100
01BD31AD20
B506E70BA0
D4422D54D0
D37A0A73E0
B71DFD27B0
4E30103E40
06EB9BE600
0026762000
ENDCHAR
STARTCHAR nine
ENCODING 57
SWIDTH 306 0
DWIDTH 11 0
BBX 9 16 1 -1
BITMAP
019DFD9100
1DA324AD10
9A1AEA1B80
D47B2B74D0
D36C1882E0
A8095882E0
2E710882E0
03BF6882E0
00011882E0
00000882E0
00000882E0
D37A0A73E0
A71DFD17B0
4E40103E40
06EB9BE700
0026762000
ENDCHAR
STARTCHAR colon
ENCODING 58
SWIDTH 176 0
DWIDTH 6 0
BBX 4 9 1 0
BITMAP
883D
883D
883D
0000
0000
0000
883D
883D
883D
ENDCHAR
STARTCHAR semicolon
ENCODING 59
SWIDTH 217 0
DWIDTH 8 0
BBX 6 10 1 -1
BITMAP
01F0A6
01F0B6
01F0B6
000000
000000
025062
0891F1
0C55C0
2E1A70
6A0E30
ENDCHAR
STARTCHAR less
ENCODING 60
SWIDTH 450 0
DWIDTH 16 0
BBX 14 16 1 -1
BITMAP
00000000000027
000000000018E7
0000000006EB20
00000004CD405A
000002AE703CD4
0000038119E700
000AD501CA2000
2A406EB3000000
07EA218E910000
0019E812AE6000
00003CD504CC40
0000005DB306E9
000000018E9116
0000000002AE70
000000000004CA
00000000000004
ENDCHAR
STARTCHAR equal
ENCODING 61
SWIDTH 344 0
DWIDTH 12 0
BBX 10 10 1 1
BITMAP
8EEEEEEEED
1222222222
8EEEEEEEED
1222222222
0000000000
0000000000
8EEEEEEEED
1222222222
8EEEEEEEED
1222222222
ENDCHAR
STARTCHAR greater
ENCODING 62
SWIDTH 450 0
DWIDTH 16 0
BBX 14 16 1 0
BITMAP
10000000000000
89100000000000
2AE70000000000
203CD500000000
8C306EB2000000
07EA218E910000
0019E702BE6000
00003CD504DC40
0000005DB307E5
000039218E9100
002AE703124000
07EA119E700000
8C307EA2000000
204DC400000000
2AE60000000000
89100000000000
ENDCHAR
STARTCHAR question
ENCODING 63
SWIDTH 346 0
DWIDTH 12 0
BBX 10 15 1 0
BITMAP
003BEFD700
04E7325DA0
0D53CD71E4
2F0B83E288
010100D47A
000007D188
00006E31D4
0001F41CA0
0005C0BA00
0007A1F100
000892E000
0005619000
0000000000
000892E000
000892E000
ENDCHAR
STARTCHAR at
ENCODING 64
SWIDTH 490 0
DWIDTH 18 0
BBX 16 16 1 -1
BITMAP
00004ADFEC820000
001BEEFFFFEE8000
01DADB5336CCAA00
0B7D60000008C970
3B8804BDBC74B6D1
95D15DDFAC745A85
C2C0C7A36D741C67
C2B0C9300B740C48
C1C0D7802C741A67
B2D16CDFDD3533A4
687706EFD98117C0
1D3C4001008FFC20
05C4C82014A11000
007E67CDDA420000
0004BEB99BD70000
0000025775100000
ENDCHAR
STARTCHAR A
ENCODING 65
SWIDTH 798 0
DWIDTH 29 0
BBX 28 29 0 0
BITMAP
00000000000E27A0E30000000000
00000000005C0D55D11000000000
0000000000B63E0A756000000000
0000000001E1991E26C000000000
0000000006A0E46B01F200000000
000000000C54D0B661A700000000
000000002E0A82F1A55D00000000
00000000891E27A06B0E30000000
00000000D46C0D521F1990000000
00000003D0B73E0C0B73E0000000
0000000982F1890D55C0D5000000
0000000E37B0E307A1E27A000000
0000005C0C54D002F1982F100000
000000A73E1A8000B64D0C600000
000001E2891E20006B0D46B00000
000006B0D45C00001F2891F20000
00000B64D0B600000A73E0A70000
00002E1981F1000005D0C55D0000
00007A1E37B2EEEED1E37A0E3000
0000D45C0C51222220981F199000
0003E0B72E000000004E0B63E000
000991F2891EEEEEEC0D46C0D400
000E36B0D40222222208A1E28A00
004D0C64D0CEEEEEEEA2E1A72E10
00A72E19802222222220C54D0C60
01E28A0E3000000000007B0E36B0
06C0D45C0000000000001F1891F2
0B63E0A70000000000000B63E0A7
2F1991F100000000000006C0D55D
ENDCHAR
STARTCHAR B
ENCODING 66
SWIDTH 784 0
DWIDTH 28 0
BBX 27 29 1 0
BITMAP
3D0C4791FFFFFFFFFEB710000000
3D0C479011111111136BE4000000
3D0C4791EEEEEEEEEC924E700000
3D0C479022222222248E62E40000
3D0C4791EEEEEEEEEC52E55D0000
3D0C47902222222226E54D0D5000
3D0C479000000000005D0D489000
3D0C479000000000001F1A65C000
3D0C479000000000001F1A64C000
3D0C479000000000004E0C45C000
3D0C47900000000004D73E17A000
3D0C4791EEEEEEEEFE71C70C6000
3D0C479022222222216D904E1000
3D0C4791EEEEEEEEFFB501D50000
3D0C47902222222220003D81A000
3D0C4790000000000149E602E400
3D0C4791EEEEEEEEFFD920709A00
3D0C479022222222210130D44D00
3D0C4790000000000002E1881F00
3D0C4790000000000000C46B0F10
3D0C4790000000000000C56A0F10
3D0C4790000000000002F2982E00
3D0C479000000000004C91E35B00
3D0C4793EEEEEEEEEFD71B90B600
3D0C4790222222222127DA05D000
3D0C4793EEEEEEEEEFEA403E3000
3D0C479022222222210006E50000
3D0C4790111111111247DC300000
3D0C4793FFFFFFFFFED950000000
ENDCHAR
STARTCHAR C
ENCODING 67
SWIDTH 776 0
DWIDTH 28 0
BBX 26 31 1 -1
BITMAP
00000000000246777520000000
0000000028DECA99ABEE930000
00000018E940000000038EA200
000003EA2027BCEEDB84017E60
00005E504CE96322459DE712C7
0004E30AE616ADEECA614CD311
002E41CA17EB742247BE707D00
00B80BA1BD3000000003CB1000
04E18C1BB10000000000092000
0B71E27D100000000000000000
2F1891E3000000000000000000
6B0D37B0000000000000000000
A73E0C50000000000000000000
C55B0F20000000000000000000
D4792F00000000000000000000
E3882E00000000000000000000
D4792E00000000000000000000
C56A0F10000000000000000000
A73D0C40000000000000000000
6B0E2890000000000000000000
2F1982E2000000000000000000
0B72E19C000000000000000000
04E19A1D900000000000051000
00B81C72DB10000000019D2000
002E42D819E94100148EA24A00
0004E31BC339DFFFFD9318E600
00005E506DB63111126AEA21B8
000003EA2159DFFFFEB7206D80
00000018E940001100037DB300
0000000028DECA99ACEEA40000
00000000000246777530000000
ENDCHAR
STARTCHAR D
ENCODING 68
SWIDTH 806 0
DWIDTH 29 0
BBX 27 29 1 0
BITMAP
3D0C4791FFFFFEC9610000000000
3D0C479011112358CF9200000000
3D0C4791EEEEEDB8329E90000000
3D0C479022222369ED52BC200000
3D0C4791EEEEEDA615DB29D20000
3D0C47902222247BE819D29C1000
3D0C4790000000003CC18D1B9000
3D0C47900000000000AC1AA2E300
3D0C479000000000000C91E48A00
3D0C4790000000000002E27B1F20
3D0C4790000000000000982F1B60
3D0C47900000000000004D0D47A0
3D0C47900000000000001F0A75C0
3D0C47900000000000000F2983D0
3D0C47900000000000000F2983E0
3D0C47900000000000001F1A73D0
3D0C47900000000000004D0C55C0
3D0C4790000000000000891F27A0
3D0C4790000000000001E46C0B60
3D0C479000000000000AB0D51F20
3D0C479000000000007E28C08B00
3D0C4790000000001AE35E22E300
3D0C479000000148EA26E40B9000
3D0C4791EEEEFFD933BD309C1000
3D0C479022221136BE8108E20000
3D0C4791EEEEFFEB6102BC200000
3D0C479022221100029E91000000
3D0C479011112348CFA200000000
3D0C4791FFFFFECA610000000000
ENDCHAR
STARTCHAR E
ENCODING 69
SWIDTH 677 0
DWIDTH 24 0
BBX 23 29 1 0
BITMAP
3D0C4791FFFFFFFFFFFFFF40
3D0C47901111111111111100
3D0C4791EEEEEEEEEEEEEE40
3D0C47902222222222222210
3D0C4791EEEEEEEEEEEEEE40
3D0C47902222222222222210
3D0C47900000000000000000
3D0C47900000000000000000
3D0C47900000000000000000
3D0C47900000000000000000
3D0C47900000000000000000
3D0C4791EEEEEEEEEEEE3000
3D0C47902222222222220000
3D0C47900000000000000000
3D0C4791EEEEEEEEEEEE3000
3D0C47902222222222220000
3D0C4791EEEEEEEEEEEE3000
3D0C47902222222222220000
3D0C47900000000000000000
3D0C47900000000000000000
3D0C47900000000000000000
3D0C47900000000000000000
3D0C47900000000000000000
3D0C4791EEEEEEEEEEEEEE40
3D0C47902222222222222210
3D0C4791EEEEEEEEEEEEEE40
3D0C47902222222222222210
3D0C47901111111111111100
3D0C4791FFFFFFFFFFFFFF40
ENDCHAR
STARTCHAR F
ENCODING 70
SWIDTH 677 0
DWIDTH 24 0
BBX 23 29 1 0
BITMAP
3D0C4791FFFFFFFFFFFFFF40
3D0C47901111111111111100
3D0C4791EEEEEEEEEEEEEE40
3D0C47902222222222222210
3D0C4791EEEEEEEEEEEEEE40
3D0C47902222222222222210
3D0C47900000000000000000
3D0C47900000000000000000
3D0C47900000000000000000
3D0C47900000000000000000
3D0C47900000000000000000
3D0C4791EEEEEEEEEEEE3000
3D0C47902222222222220000
3D0C47900000000000000000
3D0C4791EEEEEEEEEEEE3000
3D0C47902222222222220000
3D0C4791EEEEEEEEEEEE3000
3D0C47902222222222220000
3D0C47900000000000000000
3D0C47900000000000000000
3D0C47900000000000000000
3D0C47900000000000000000
3D0C47900000000000000000
3D0C47900000000000000000
3D0C47900000000000000000
3D0C47900000000000000000
3D0C47900000000000000000
3D0C47900000000000000000
3D0C47900000000000000000
ENDCHAR
STARTCHAR G
ENCODING 71
SWIDTH 872 0
DWIDTH 31 0
BBX 30 31 1 -1
BITMAP
000000000002467765200000000000
0000000028DECA99ABEE9300000000
00000018E940000000038EB3000000
000003EA2027BCEEDB94017E700000
00005E504CE96322358DE703DA0000
0004E30AE616ADEEDB714CD31C9000
002E41CA17EB742236BE817E42E600
00B80BA1BD3000000002CC26E34700
04E18C1BB1000000000009D18A0000
0B71E27D10000000000000B9000000
2F1891E30000000000000023000000
6B0D37B00000000000000000000000
A73E0C500000000000000000000000
C55B0F200000000000000000000000
D4792F000000000CEEEEEEEEEEEEE4
E3882E000000000222222222222221
D4792E000000000CEEEEEEEEEEEEE4
C56A0F100000000222222222222221
A73D0C400000000000000000000000
6B0E28900000000CEEEEEEEEEEEEE4
2F1982E20000000222222222222221
0B72E19C0000000000000075083280
04E19A1D90000000000008D16D0A80
00B81C72DB1000000001AD34E34E10
002E42D819E94100249EA15E52E500
0004E31BC339DFFFFD942AE41C8000
00005E506DB63112136AE913D90000
000003EA2159DFFFFEB7218E700000
00000018E940001210038EA3000000
0000000028DECA99ABEE9300000000
000000000002467775300000000000
ENDCHAR
STARTCHAR H
ENCODING 72
SWIDTH 781 0
DWIDTH 28 0
BBX 26 29 1 0
BITMAP
3D0C479000000000000882E0C5
3D0C479000000000000882E0C5
3D0C479000000000000882E0C5
3D0C479000000000000882E0C5
3D0C479000000000000882E0C5
3D0C479000000000000882E0C5
3D0C479000000000000882E0C5
3D0C479000000000000882E0C5
3D0C479000000000000882E0C5
3D0C479000000000000882E0C5
3D0C479000000000000882E0C5
3D0C4791EEEEEEEEEE3882E0C5
3D0C479022222222220882E0C5
3D0C479000000000000882E0C5
3D0C4791EEEEEEEEEE3882E0C5
3D0C479022222222220882E0C5
3D0C4791EEEEEEEEEE3882E0C5
3D0C479022222222220882E0C5
3D0C479000000000000882E0C5
3D0C479000000000000882E0C5
3D0C479000000000000882E0C5
3D0C479000000000000882E0C5
3D0C479000000000000882E0C5
3D0C479000000000000882E0C5
3D0C479000000000000882E0C5
3D0C479000000000000882E0C5
3D0C479000000000000882E0C5
3D0C479000000000000882E0C5
3D0C479000000000000882E0C5
ENDCHAR
STARTCHAR I
ENCODING 73
SWIDTH 262 0
DWIDTH 9 0
BBX 7 29 1 0
BITMAP
3D0C4790
3D0C4790
3D0C4790
3D0C4790
3D0C4790
3D0C4790
3D0C4790
3D0C4790
3D0C4790
3D0C4790
3D0C4790
3D0C4790
3D0C4790
3D0C4790
3D0C4790
3D0C4790
3D0C4790
3D0C4790
3D0C4790
3D0C4790
3D0C4790
3D0C4790
3D0C4790
3D0C4790
3D0C4790
3D0C4790
3D0C4790
3D0C4790
3D0C4790
ENDCHAR
STARTCHAR J
ENCODING 74
SWIDTH 674 0
DWIDTH 24 0
BBX 23 30 0 -1
BITMAP
00000000000000006B0F1970
00000000000000006B0F1970
00000000000000006B0F1970
00000000000000006B0F1970
00000000000000006B0F1970
00000000000000006B0F1970
00000000000000006B0F1970
00000000000000006B0F1970
00000000000000006B0F1970
00000000000000006B0F1970
00000000000000006B0F1970
00000000000000006B0F1970
00000000000000006B0F1970
00000000000000006B0F1970
00000000000000006B0F1970
00000000000000006B0F1970
00000000000000006B0F1970
00000000000000006B0F1970
3B0A3680000000006B0F1970
3E0B56A0000000006A1F0A60
1F0A74C000000000983D0C50
0E36B0E300000000E3890E20
0981E27C10000009B1E45C00
03E18C1AC51003AD2AA0C600
00BA0BB26CFFFD819D16D100
002E609E8311127DB13E4000
0003E804AEFFFEB505E60000
00003CC500121004BE400000
0000006CECA99BED81000000
000000002577753000000000
ENDCHAR
STARTCHAR K
ENCODING 75
SWIDTH 739 0
DWIDTH 27 0
BBX 25 29 1 0
BITMAP
3D0C4790000000000B80C81D70
3D0C4790000000007C08C09B00
3D0C479000000003E24E25E100
3D0C47900000001D61E52E4000
3D0C4790000000AA0B90B80000
3D0C4790000005E16D17C00000
3D0C479000002E43E33E200000
3D0C47900000B80C71D6000000
3D0C47900007C09B0AA0000000
3D0C4790000424E26D10000000
3D0C479001A01E52E400000000
3D0C479000B9060C8000000000
3D0C4790561D608C0000000000
3D0C47904E34E3320000000000
3D0C47AA17D17D100000000000
3D0C479AA0AB0AB00000000000
3D0C4791D71D81D70000000000
3D0C47902E42E42E4000000000
3D0C479005E15E25E200000000
3D0C4790008B09C09C00000000
3D0C4790000B80C90C90000000
3D0C47900001E52E62E5000000
3D0C479000004E24E34E300000
3D0C4790000007D17D17D10000
3D0C4790000000AA0AA0AA0000
3D0C47900000001D71D71D7000
3D0C479000000003E33E43E400
3D0C4790000000006D15E26E10
3D0C47900000000009B09C09B0
ENDCHAR
STARTCHAR L
ENCODING 76
SWIDTH 604 0
DWIDTH 22 0
BBX 21 29 1 0
BITMAP
3D0C479000000000000000
3D0C479000000000000000
3D0C479000000000000000
3D0C479000000000000000
3D0C479000000000000000
3D0C479000000000000000
3D0C479000000000000000
3D0C479000000000000000
3D0C479000000000000000
3D0C479000000000000000
3D0C479000000000000000
3D0C479000000000000000
3D0C479000000000000000
3D0C479000000000000000
3D0C479000000000000000
3D0C479000000000000000
3D0C479000000000000000
3D0C479000000000000000
3D0C479000000000000000
3D0C479000000000000000
3D0C479000000000000000
3D0C479000000000000000
3D0C479000000000000000
3D0C4791EEEEEEEEEEEE30
3D0C479022222222222200
3D0C4791EEEEEEEEEEEE30
3D0C479022222222222200
3D0C479011111111111100
3D0C4791FFFFFFFFFFFF40
ENDCHAR
STARTCHAR M
ENCODING 77
SWIDTH 909 0
DWIDTH 33 0
BBX 30 29 1 0
BITMAP
3D0C47900000000000000000E3882E
3D0C47900000000000000000E3882E
3D0C47912000000000000080E3882E
3D0C4791C0000000000007B0E3882E
3D0C4790B800000000003E30E3882E
3D0C47902E4000000000C700E3882E
3D0C479125D100000008C050E3882E
3D0C4791B0AA0000004E24C0E3882E
3D0C4790D71D500001D61D60E3882E
3D0C47903E34E20009B0AA00E3882E
3D0C479117C08B005E15D140E3882E
3D0C4791A0B80C70B52E43C0E3882E
3D0C4790D52E43E310B80C70E3882E
3D0C47904E26D17D14D09B00E3882E
3D0C479008B0AA0B9024E200E3882E
3D0C479000C71D52E40D5000E3882E
3D0C4790003E34E25E130000E3882E
3D0C47900007D18B0AA00000E3882E
3D0C47900000B90C71300000E3882E
3D0C479000001E53E2000000E3882E
3D0C4790000005E150000000E3882E
3D0C47900000009A00000000E3882E
3D0C47900000001500000000E3882E
3D0C47900000000000000000E3882E
3D0C47900000000000000000E3882E
3D0C47900000000000000000E3882E
3D0C47900000000000000000E3882E
3D0C47900000000000000000E3882E
3D0C47900000000000000000E3882E
ENDCHAR
STARTCHAR N
ENCODING 78
SWIDTH 796 0
DWIDTH 29 0
BBX 26 29 1 0
BITMAP
3D0C4790000000000000F2973D
3D0C4790000000000000F2973D
3D0C4791700000000000F2973D
3D0C4791E30000000000F2973D
3D0C47907C0000000000F2973D
3D0C47900B8000000000F2973D
3D0C479152E400000000F2973D
3D0C4791E26D10000000F2973D
3D0C47909B0AA0000000F2973D
3D0C47901D71E5000000F2973D
3D0C479143E34E200000F2973D
3D0C4791D17C09B00000F2973D
3D0C4790AA0C81D70000F2973D
3D0C47901E52E43E3000F2973D
3D0C479004E26D17C000F2973D
3D0C4790009B0AA0B800F2973D
3D0C4790001D71E52E40F2973D
3D0C47900003E34E26B0F2973D
3D0C479000007C09B060F2973D
3D0C479000000C81D700F2973D
3D0C4790000002E43E30F2973D
3D0C47900000006D17A0F2973D
3D0C47900000000AA080F2973D
3D0C479000000001E500F2973D
3D0C4790000000004E20F2973D
3D0C47900000000009A0F2973D
3D0C4790000000000190F2973D
3D0C4790000000000010F2973D
3D0C4790000000000000F2973D
ENDCHAR
STARTCHAR O
ENCODING 79
SWIDTH 894 0
DWIDTH 32 0
BBX 31 31 1 -1
BITMAP
00000000000246776520000000000000
0000000028DECA99ACEE930000000000
00000018E940000000038E9200000000
000003EA2027BCEECB83019E50000000
00005E504CE96322358DD503E7000000
0004E30AE616ADEEDB725CB12D700000
002E41CA17EB742236AE818D23E40000
00B80BA1BD3000000002BD27D15D0000
04E18C1BB1000000000009D19A0C6000
0B71E27D10000000000000BA1E34E000
2F1891E3000000000000002E37B0D500
6B0D37B00000000000000008A1F19900
A73E0C500000000000000003E0B54C00
C55B0F200000000000000000E3882F00
D4792F000000000000000000C46A1F10
E3882E000000000000000000B56B0F10
D4792E000000000000000000C56A1F10
C56A0F100000000000000000E3882F00
A73D0C400000000000000002F0B64C00
6B0E28900000000000000007A0E28900
2F1982E2000000000000001D46C0D500
0B72E19C000000000000009B0D54E000
04E19A1D90000000000006E27C0C6000
00B81C72DB10000000019E35E25D0000
002E42D819E94100138EB26E43E40000
0004E31BC339DFFFFD942AD22D700000
00005E506DB63112136AE713E7000000
000003EA2159DFFFFEA6119E50000000
00000018E940001100038EA200000000
0000000028DECA99ABEE930000000000
00000000000246777520000000000000
ENDCHAR
STARTCHAR P
ENCODING 80
SWIDTH 743 0
DWIDTH 27 0
BBX 25 29 1 0
BITMAP
3D0C4791FFFFFFFFFEB7100000
3D0C479011111111136BE40000
3D0C4791EEEEEEEEEC924E7000
3D0C479022222222248E62E400
3D0C4791EEEEEEEEEC52E55D00
3D0C47902222222226E54D0D50
3D0C479000000000005D0D4890
3D0C479000000000001F1A65C0
3D0C479000000000001F1A64C0
3D0C479000000000004E0C45C0
3D0C47900000000004D73E17A0
3D0C4791EEEEEEEEFE71C70C60
3D0C479022222222216D904E10
3D0C4791EEEEEEEEFFB501D500
3D0C47902222222220003D8000
3D0C4790000000000149E60000
3D0C4791EEEEEEEEFFD9200000
3D0C4790222222222100000000
3D0C4790000000000000000000
3D0C4790000000000000000000
3D0C4790000000000000000000
3D0C4790000000000000000000
3D0C4790000000000000000000
3D0C4790000000000000000000
3D0C4790000000000000000000
3D0C4790000000000000000000
3D0C4790000000000000000000
3D0C4790000000000000000000
3D0C4790000000000000000000
ENDCHAR
STARTCHAR Q
ENCODING 81
SWIDTH 911 0
DWIDTH 33 0
BBX 31 31 1 -1
BITMAP
00000000000246776520000000000000
0000000028DECA99ACEE920000000000
00000018E940000000039E9100000000
000003EA2027BCEECB83029E40000000
00005E504CE96322358DD504E6000000
0004E30AE616ADEEDB725DB13E600000
002E41CA17EB742236BE819D23E30000
00B80BA1BD3000000003CC18C17D0000
04E18C1BB100000000001AC1A90D5000
0B71E27D10000000000000C91E35D000
2F1891E3000000000000002E38A0E400
6B0D37B0000000000000000992F1A800
A73E0C500000000000000004E0C56C00
C55B0F200000000000000000F2983E00
D4792F000000000000000000D4792F10
E3882E000000000000000000C46B1F10
D4792E000000000000000000D47A1F10
C56A0F100000000000000600F2892F00
A73D0C400000000000001CA0A0B74D00
6B0E289000000000000851CA00E37A00
2F1982E2000000000004E51CA1A0C600
0B72E19C0000000005C14E51CA02F100
04E19A1D9000000000AC13E51BA17000
00B81C72DB1000000009C13E61BA0000
002E42D819E9410014609D23E61B9000
0004E31BC339DFFFFD9108D23E71B900
00005E506DB631111258908D23E70B70
000003EA2159DFFFFEB72118D22E7000
00000018E940001210038E807E328000
0000000028DECA99ACEE930007E20000
00000000000246776520000000400000
ENDCHAR
STARTCHAR R
ENCODING 82
SWIDTH 745 0
DWIDTH 27 0
BBX 25 29 1 0
BITMAP
3D0C4791FFFFFFFFFEB7100000
3D0C479011111111136BE40000
3D0C4791EEEEEEEEEC924E7000
3D0C479022222222248E62E400
3D0C4791EEEEEEEEEC52E55D00
3D0C47902222222226E54D0D50
3D0C479000000000005D0D4890
3D0C479000000000001F1A65C0
3D0C479000000000001F1A64C0
3D0C479000000000004E0C45C0
3D0C47900000000004D73E17A0
3D0C4791EEEEEEEEFE71C70C60
3D0C479022222222216D904E10
3D0C4791EEEEEEEEFFB501D500
3D0C47902222222220003D8000
3D0C4790000000000149E60000
3D0C4791EEEEEEEEFFD9200000
3D0C4790222222222101000000
3D0C479000000751B17A000000
3D0C4790000004D0A81E200000
3D0C4790000000C63E19900000
3D0C47900000006C0B72E10000
3D0C47900000000D44D0A80000
3D0C479000000007B0C63E1000
3D0C479000000001E35C0B7000
3D0C4790000000008A0D54E000
3D0C4790000000001E26C0C600
3D0C4790000000000991E45D00
3D0C47900000000002E17B0D50
ENDCHAR
STARTCHAR S
ENCODING 83
SWIDTH 660 0
DWIDTH 24 0
BBX 22 31 1 -1
BITMAP
0000000146775400000000
000006CFCA9ABDEA400000
0003CD77ACEDC967EB1000
004E77EB642348DB39D200
03E5AC3000000008E37D10
0D68C105ADEEC8206D1B80
5D1E31BD74235AE50B73E0
985D0AA00000003E35C0A2
B56B0F2000000008715000
B55C0E3000000000000000
A61F38D300000000000000
7A07D27EC6100000000000
2E209E616CFB7200000000
08C104CE8316AEC5000000
00AC2004AED9415CD50000
0007E8100149DE824DA100
000029EA510003AE81AC10
00000017CFB72003CB1B90
00000000026BFC501C82E2
00000000000017EB12F1A7
000000000000001B90D479
0000000000000003E0C56A
00012A0000000003D0D46A
627B0E600000000A93E197
A81E44EA410026DB1C81E3
4E15E528DFFFFB62BA08B0
0AB14DB62012259E806E20
01BC206BEFFFFC8218E400
0008E93001210027DC3000
000028DEBA9ABDFB500000
0000000256776410000000
ENDCHAR
STARTCHAR T
ENCODING 84
SWIDTH 641 0
DWIDTH 23 0
BBX 23 29 0 0
BITMAP
AFFFFFFFFFFFFFFFFFFFFFB0
111111111111111111111110
9EEEEEEEEEEEEEEEEEEEEEA0
122222222222222222222210
9EEEEEEEEEEEEEEEEEEEEEA0
122222222222222222222210
00000000470A165000000000
000000005B0F197000000000
000000005B0F197000000000
000000005B0F197000000000
000000005B0F197000000000
000000005B0F197000000000
000000005B0F197000000000
000000005B0F197000000000
000000005B0F197000000000
000000005B0F197000000000
000000005B0F197000000000
000000005B0F197000000000
000000005B0F197000000000
000000005B0F197000000000
000000005B0F197000000000
000000005B0F197000000000
000000005B0F197000000000
000000005B0F197000000000
000000005B0F197000000000
000000005B0F197000000000
000000005B0F197000000000
000000005B0F197000000000
000000005B0F197000000000
ENDCHAR
STARTCHAR U
ENCODING 85
SWIDTH 702 0
DWIDTH 25 0
BBX 23 30 1 -1
BITMAP
3D0C4790000000005B0F1970
3D0C4790000000005B0F1970
3D0C4790000000005B0F1970
3D0C4790000000005B0F1970
3D0C4790000000005B0F1970
3D0C4790000000005B0F1970
3D0C4790000000005B0F1970
3D0C4790000000005B0F1970
3D0C4790000000005B0F1970
3D0C4790000000005B0F1970
3D0C4790000000005B0F1970
3D0C4790000000005B0F1970
3D0C4790000000005B0F1970
3D0C4790000000005B0F1970
3D0C4790000000005B0F1970
3D0C4790000000005B0F1970
3D0C4790000000005B0F1970
3D0C4790000000005B0F1970
3D0C4790000000005B0F1970
2E0B56A0000000006A1F0A60
1F1974C000000000983D0C50
0D45C0E300000000D3890E20
0891E37C10000008B1D45C00
02E16D1AC51003AD29A0C600
00AB0AC26CFFFD819D17D100
001D708E9311127DB14E4000
0003E9039EFFFEB506E60000
00002CD510121004BE400000
0000006CECA99BED81000000
000000002577753000000000
ENDCHAR
STARTCHAR V
ENCODING 86
SWIDTH 758 0
DWIDTH 27 0
BBX 27 29 0 0
BITMAP
2F1981F1000000000000C54D0B60
0C64D0B6000000000002F1981F10
07B0E36B000000000007A0E36B00
02F1991F10000000000C54D0B600
00C64D0B60000000002F1981F100
007B0E46B0000000007A0E36B000
002F1991F200000000C54D0B6000
000B64E0B600000002F1981F1000
0006B0D46C00000007A0E36B0000
0001F1991F2000000C54D0B60000
0000B63E0B7000002F1981F10000
00006B0D46C000007A0E36B00000
00001F1891F20000C54D0B600000
00000B63E0B70002E1982F100000
000006B0D45C0007A0E36B000000
000001F1891F200C54D0B5000000
000000B63E0A702E1982E1000000
0000006B0D45C07A0E36A0000000
0000001F2891E2754D0C50000000
0000000B63E0A721982E10000000
00000006C0D45C00E37A00000000
00000001F2891E24D0C500000000
00000000B73E0A7282E100000000
000000006C0D45C017A000000000
000000001F2891E20C5000000000
000000000B73E0A71E1000000000
0000000006C0D45C070000000000
0000000001F28A1E200000000000
0000000000B73E0A800000000000
ENDCHAR
STARTCHAR W
ENCODING 87
SWIDTH 972 0
DWIDTH 35 0
BBX 35 29 0 0
BITMAP
2E0B64D00000000D46B0E2000000D46B0E20
0E37A1F20000002F0A73E0000002F0A73D00
0A73E0C50000005B0E37A0000005B0E37A00
06B0E289000000972E0B6000000973E0B600
02E0B64D000000D46A0E2000000D46B0E200
00E37A1F200002E0A73D0000002E0A73D000
00A73E0B500005B0E37A0500006B0E37A000
006B0E2890000972E0B6390000972E0B6000
002E0B64D0000D36A0E24D0000D36B0E2000
000E37A1F2002E0A64D01F2002E0A73D0000
000A73E0B5005B0E37A00C6006B0E3790000
0006B0E38900973E0B6338900972E0B60000
0002E0B64D00D36A0F2774D00D36B0E20000
0000E37A0F22E0A64D06B1F22E0A74D00000
0000A73E0B53B0E37A02E0B63B0E37900000
00006B0E389173E0B610D389062E0B600000
00002E0A64D016A0F271A74D016B0E200000
00000D37A0F20A64D0B46B0F20A74D000000
00000A73E0B60E28A0982E0B60E379000000
000006B0E3791E0B605C0D37A0D0B6000000
000002E0A64D071F201F1974D060E2000000
000000D37A0F214D000D46B0E204D0000000
000000A73E0B608A000982E0B60790000000
0000006B0E3790C60005C0D37A0B50000000
0000002E0A64D0C20001F1973D0B20000000
0000000D37A0E2600000C46B0E2500000000
0000000A73E0B6000000982E0B6000000000
00000006B0E3790000005C0D47A000000000
00000002E0A74D0000001F1973E000000000
ENDCHAR
STARTCHAR X
ENCODING 88
SWIDTH 712 0
DWIDTH 26 0
BBX 25 29 0 0
BITMAP
05D19A0C700000000C71E44E10
00B71E44E10000005D09A0D600
003E26C0A9000000D53E27C000
0009A0C62E300007B0B81E4000
0001E34E17B0001E35D19A0000
00007C0A91D500990D53E20000
00000D62E35D13E17C0B800000
000004E18B0B7262E35D100000
000000B81E53E20A90D5000000
0000002E26D09A0D17C0000000
00000008B0C71E311E30000000
00000001E43E17C08900000000
000000006D0A90D63100000000
000000000C72E34E1000000000
0000000004E17C0B8000000000
0000000040A91D52E200000000
00000001E32E35D19A00000000
00000008A018B0B81E40000000
0000002E2671D53E26C0000000
000000B81E405D09A0C6000000
000005D18A070C71E44E100000
00000D52E26D03E27C0A900000
00007C0B81E4009A0D62E30000
0002E35D18A0001E35E18B0000
000A90D52E200007C0B81D5000
004E17B0B8000000D62E26D000
00C72E35D10000005E19A0C700
06D0A90D500000000B81E43E10
1E44E17C0000000002E26D0A90
ENDCHAR
STARTCHAR Y
ENCODING 89
SWIDTH 769 0
DWIDTH 28 0
BBX 28 29 0 0
BITMAP
4E17C09B000000000001E52E34E1
0AA0C81D50000000000AA0C81D50
01E52E34E1000000005E17C09A00
005E17C0AA00000001E52E34E200
000A90C71E5000000AA0B81D6000
0001E43E25E100005E16D19B0000
00006D18B0A90001E52E44E20000
00000B90D61E400AB0B90D700000
000002E33E26D13E26D18C000000
0000006D08B0B9042E43E2000000
0000000B81D62E40A90C70000000
00000002E34E16D1718C00000000
000000007C09A0C803E300000000
000000000C71D52E348000000000
0000000003E24E17C00000000000
0000000000330420510000000000
0000000000050422400000000000
00000000001F0A64C00000000000
00000000001F0A64C00000000000
00000000001F0A64C00000000000
00000000001F0A64C00000000000
00000000001F0A64C00000000000
00000000001F0A64C00000000000
00000000001F0A64C00000000000
00000000001F0A64C00000000000
00000000001F0A64C00000000000
00000000001F0A64C00000000000
00000000001F0A64C00000000000
00000000001F0A64C00000000000
ENDCHAR
STARTCHAR Z
ENCODING 90
SWIDTH 708 0
DWIDTH 25 0
BBX 25 29 0 0
BITMAP
001FFFFFFFFFFFFF81E43E27C0
000111111111111109A0C62E30
001EEEEEEEEEEEE23E17C0A900
0002222222222210C62E34D100
001EEEEEEEEEE807C0A91D5000
000222222222202E35D18B0000
00000000000000B81D53E20000
00000000000005D18B0C700000
0000000000001D53E26D000000
0000000000008A0C71E4000000
000000000003E26C0A90000000
00000000000C71E44E10000000
00000000006C0A90D600000000
0000000001E34E17B000000000
000000000A90D62E2000000000
000000004E18B0B80000000000
00000000D52E25D10000000000
00000008B0B81E400000000000
0000002E26D09A000000000000
000000B81E43E1000000000000
000006D09A0C60000000000000
00001E44E17C00000000000000
00009A0C62E300000000000000
0004E17C0A83EEEEEEEEEE8000
000C62E35D1122222222221000
007C0B81D5AEEEEEEEEEEE8000
02E35D18B02222222222221000
0B81D53E211111111111111000
5D19B0C73FFFFFFFFFFFFF8000
ENDCHAR
STARTCHAR bracketleft
ENCODING 91
SWIDTH 320 0
DWIDTH 12 0
BBX 9 18 1 -2
BITMAP
3D0C49EEA0
3D0C412210
3D0C400000
3D0C49EEA0
3D0C412210
3D0C400000
3D0C400000
3D0C400000
3D0C400000
3D0C400000
3D0C400000
3D0C400000
3D0C400000
3D0C400000
3D0C49EEA0
3D0C412210
3D0C49EEA0
0202012210
ENDCHAR
STARTCHAR backslash
ENCODING 92
SWIDTH 298 0
DWIDTH 11 0
BBX 9 15 1 0
BITMAP
B64E000000
7B0E400000
2F19800000
0C64D00000
07B0E30000
02F1980000
00C54D0000
007A0E3000
002E198000
000C55D000
0008A0E300
0003E0A700
0000D55C00
00008A1E20
00003E0A70
ENDCHAR
STARTCHAR bracketright
ENCODING 93
SWIDTH 320 0
DWIDTH 12 0
BBX 9 18 1 -2
BITMAP
3EEE3B55A0
02220B55B0
00000B55B0
3EEE3B55B0
02220B55B0
00000B55B0
00000B55B0
00000B55B0
00000B55B0
00000B55B0
00000B55B0
00000B55B0
00000B55B0
00000B55B0
3EEE3B55B0
02220B55B0
3EEE3B55B0
0222011110
ENDCHAR
STARTCHAR asciicircum
ENCODING 94
SWIDTH 309 0
DWIDTH 11 0
BBX 9 7 1 8
BITMAP
0000200000
0001E10000
0009A10000
003E2A5000
00B705D000
05D190C700
1D51E53E10
ENDCHAR
STARTCHAR underscore
ENCODING 95
SWIDTH 472 0
DWIDTH 17 0
BBX 15 4 1 -1
BITMAP
3EEEEEEEEEEEEE30
0222222222222200
3EEEEEEEEEEEEE30
0222222222222200
ENDCHAR
STARTCHAR grave
ENCODING 96
SWIDTH 195 0
DWIDTH 7 0
BBX 4 4 2 17
BITMAP
7200
9A00
1E40
05D1
ENDCHAR
STARTCHAR a
ENCODING 97
SWIDTH 414 0
DWIDTH 15 0
BBX 15 15 0 0
BITMAP
00000991F7000000
00000E46FC000000
00004D0B8F200000
0000981F2A800000
0000E37F45D00000
0005D0CEA0E30000
000A72F5E1980000
001E27C0D54E0000
006C0D608B0D4000
00B73F103F189000
01F18FEEEF63E000
06B0D62227C0D500
0C64FEEEEEF27A00
2F19822222A72E10
7A0E3000004D0C60
ENDCHAR
STARTCHAR b
ENCODING 98
SWIDTH 423 0
DWIDTH 15 0
BBX 14 15 1 0
BITMAP
883FFFFFFD7000
883E111125DA00
883D0000001E50
883FEEEEEA08A0
883E22223D45B0
883D00000C55B0
883FEEEEEF9A80
883E2222249F40
883FEEEEEC28B0
883E222229A2F0
883D000007A0F2
883FEEEEEE42F1
883E22222008B0
883E1111139E30
883FFFFFFEA200
ENDCHAR
STARTCHAR c
ENCODING 99
SWIDTH 446 0
DWIDTH 16 0
BBX 14 15 1 0
BITMAP
000039CEED9300
001AE842248EA1
01D916CEDA419A
0B91CB5236D900
4D0C8000001500
A74D0000000000
D4790000000000
E3790000000000
D45C0000000000
A70D6000000200
4D03E92003BC00
0B9029EFFD8149
01D910011004E5
001AD84225AE40
000049DEEC7100
ENDCHAR
STARTCHAR d
ENCODING 100
SWIDTH 450 0
DWIDTH 16 0
BBX 15 15 1 0
BITMAP
883FFFFDB6100000
883E11236CD30000
883D0000006E4000
883FEEEDA305E100
883E22248E70A700
883D000002E34D00
883D000000891F00
883D0000006B0F10
883D0000007A1F00
883D000001D54D00
883D00026D90A700
883FEEFFC505E100
883E2221005E4000
883E11236BD30000
883FFFFDB6100000
ENDCHAR
STARTCHAR e
ENCODING 101
SWIDTH 363 0
DWIDTH 13 0
BBX 12 15 1 0
BITMAP
883FFFFFFFF6
883E11111110
883D00000000
883FEEEEEEE6
883E22222221
883D00000000
883FEEEEEE40
883E22222200
883FEEEEEE40
883E22222200
883D00000000
883FEEEEEEE6
883E22222221
883E11111110
883FFFFFFFF6
ENDCHAR
STARTCHAR f
ENCODING 102
SWIDTH 365 0
DWIDTH 13 0
BBX 12 15 1 0
BITMAP
883FFFFFFFF6
883E11111110
883D00000000
883FEEEEEEE6
883E22222221
883D00000000
883FEEEEEE40
883E22222200
883FEEEEEE40
883E22222200
883D00000000
883D00000000
883D00000000
883D00000000
883D00000000
ENDCHAR
STARTCHAR g
ENCODING 103
SWIDTH 483 0
DWIDTH 17 0
BBX 16 15 1 0
BITMAP
000039CEED930000
001AE842248EA100
01D916CEDB519D10
0B91CB5236DA0500
4D0C800000192000
A74D000000000000
D47900006EEEEEE4
E379000012222221
D45C000000000000
A70D60006EEEEEE4
4D03E920137E63F2
0B9029EFFEA30A90
01D910011001BC10
001AD842248EA100
000049DEED930000
ENDCHAR
STARTCHAR h
ENCODING 104
SWIDTH 428 0
DWIDTH 15 0
BBX 13 15 1 0
BITMAP
883D00000792F0
883D00000792F0
883D00000792F0
883D00000792F0
883D00000792F0
883D00000792F0
883FEEEEEF92F0
883E22222892F0
883FEEEEEF92F0
883E22222892F0
883D00000792F0
883D00000792F0
883D00000792F0
883D00000792F0
883D00000792F0
ENDCHAR
STARTCHAR i
ENCODING 105
SWIDTH 176 0
DWIDTH 6 0
BBX 4 15 1 0
BITMAP
883D
883D
883D
883D
883D
883D
883D
883D
883D
883D
883D
883D
883D
883D
883D
ENDCHAR
STARTCHAR j
ENCODING 106
SWIDTH 390 0
DWIDTH 14 0
BBX 12 15 1 0
BITMAP
00000000D379
00000000D379
00000000D379
00000000D379
00000000D379
00000000D379
00000000D379
00000000D379
31220000D379
D36A0000F188
B62E5019B0A6
6B04DFFB21E2
1D7001000A90
02DB4225CB10
0017CEEB6000
ENDCHAR
STARTCHAR k
ENCODING 107
SWIDTH 381 0
DWIDTH 14 0
BBX 13 15 1 0
BITMAP
883D0006C0A900
883D001E43E100
883D008B0B7000
883D01E35D1000
883D09A0D60000
883D2E26C00000
883D8C1E400000
883D1DDA000000
883F42E6000000
883FE25E200000
883D9C08C10000
883D0C90B90000
883D02E51E6000
883D004E34E300
883D0007D17D10
ENDCHAR
STARTCHAR l
ENCODING 108
SWIDTH 330 0
DWIDTH 12 0
BBX 11 15 1 0
BITMAP
883D00000000
883D00000000
883D00000000
883D00000000
883D00000000
883D00000000
883D00000000
883D00000000
883D00000000
883D00000000
883D00000000
883FEEEEEE50
883E22222210
883E11111100
883FFFFFFF50
ENDCHAR
STARTCHAR m
ENCODING 109
SWIDTH 501 0
DWIDTH 18 0
BBX 16 15 1 0
BITMAP
883F40000004F379
883FE200001EF379
883DAB0000BAD379
883D1C8008D1D379
883F42E44E24F379
883FE25EE51EF379
883D9C08D1B9D379
883D0C90BDC0D379
883D02E51D20D379
883D004E3000D379
883D00077000D379
883D00000000D379
883D00000000D379
883D00000000D379
883D00000000D379
ENDCHAR
STARTCHAR n
ENCODING 110
SWIDTH 444 0
DWIDTH 16 0
BBX 14 15 1 0
BITMAP
883F400000E388
883FD10000E388
883EB90000E388
883D2E5000E388
883E26E100E388
883FB0AA00E388
883ED71D60E388
883D3E34E2E388
883D07C09BE388
883D00B81DF388
883D002E43F388
883D0005D1E388
883D0000AAE388
883D00001DF388
883D000004F388
ENDCHAR
STARTCHAR o
ENCODING 111
SWIDTH 494 0
DWIDTH 18 0
BBX 16 15 1 0
BITMAP
000039CEEC820000
001AE842249E8000
01D916CEDB52CA00
0B91CB5236DA1C70
4D0C8000001B82E1
A74D00000002E1B6
D47900000000C489
E37900000000C46A
D45C00000001E289
A70D60000009A0B6
4D03E92003BC12E1
0B9029EFFD811C70
01D910011002CA00
001AD842249E8000
000049DEEC820000
ENDCHAR
STARTCHAR p
ENCODING 112
SWIDTH 412 0
DWIDTH 15 0
BBX 13 15 1 0
BITMAP
883FFFFFFD7000
883E111124CA00
883D0000001D50
883FEEEEE907A0
883E22223D46B0
883D00001D47A0
883FEEEEFB1C60
883E222223BC00
883FEEEEFE9100
883E2222200000
883D0000000000
883D0000000000
883D0000000000
883D0000000000
883D0000000000
ENDCHAR
STARTCHAR q
ENCODING 113
SWIDTH 494 0
DWIDTH 18 0
BBX 16 15 1 0
BITMAP
000039CEEC830000
001AE842249E9100
01D916CEDB51BC00
0B91CB5236DA1B90
4D0C8000001B81F2
A74D00000002E1A7
D47900000000C47A
E37900000011C46A
D45C0000008CE198
A70D6000260AE2D4
4D03E9202D60BEC0
0B9029EFFDD50BD2
01D91001102E41B7
001AD84225BFE410
000049DEFD826C00
ENDCHAR
STARTCHAR r
ENCODING 114
SWIDTH 412 0
DWIDTH 15 0
BBX 13 15 1 0
BITMAP
883FFFFFFD7000
883E111124CA00
883D0000001D50
883FEEEEE907A0
883E22223D46B0
883D00001D4790
883FEEEEFB1C50
883E222223BB00
883FEEEEFF9100
883E228B2D4000
883D002F27A000
883D000A72E100
883D0004D0A700
883D0000D44D00
883D00007B0D40
ENDCHAR
STARTCHAR s
ENCODING 115
SWIDTH 379 0
DWIDTH 14 0
BBX 12 15 1 0
BITMAP
0039DFEC8100
08E84224AE40
5D25CED924E1
B64E5238D094
C46C10000000
991AEA620000
1D8126AEB400
018EA6216E70
000059DB32E3
00000005E1A7
725B2003F188
A709EFFD60B6
4E30011005E1
06E94225BE40
0039DFEC8100
ENDCHAR
STARTCHAR t
ENCODING 116
SWIDTH 349 0
DWIDTH 13 0
BBX 13 15 0 0
BITMAP
AFFFFFFFFFFF30
11111111111100
00000000000000
9EEEEEEEEEEE30
12228A3F222200
0000791F000000
0000791F000000
0000791F000000
0000791F000000
0000791F000000
0000791F000000
0000791F000000
0000791F000000
0000791F000000
0000791F000000
ENDCHAR
STARTCHAR u
ENCODING 117
SWIDTH 400 0
DWIDTH 14 0
BBX 12 15 1 0
BITMAP
883D0000892E
883D0000892E
883D0000892E
883D0000892E
883D0000892E
883D0000892E
883D0000892E
883D0000892E
883D0000892E
881F1000972E
6A0BA105E24C
2E11AFFD40A7
09B0001005D1
01BD6224AE30
0006BEED8100
ENDCHAR
STARTCHAR v
ENCODING 118
SWIDTH 394 0
DWIDTH 14 0
BBX 14 15 0 0
BITMAP
7A0E300001E27A
2E1A800005C0C5
0C55D0000A72E1
08A0E2000E27A0
03E0A7004D0C50
00D55C00982F10
008A1E20E37B00
003E0A74D0C600
000D45C881F100
000891FE36B000
0003E0AD0B6000
0000D45C1F1000
0000991F8B0000
00004E0BF60000
00000E46F10000
ENDCHAR
STARTCHAR w
ENCODING 119
SWIDTH 521 0
DWIDTH 19 0
BBX 19 15 0 0
BITMAP
891F1002E0A7005C0D40
4D0C4006B0E300892F00
0F28800A73F600C55B00
0B54C00E37F901F19700
0791F12E0BAD05C0D400
04D0C56B0E3E2982E000
00E288A73F0A6D46B000
00B64CE37F37BF1A7000
007A1FE0BF73FC0E3000
003D0CA0F8B0E82E0000
000E2894D2E0A76B0000
000B64D890E36AA70000
0007A1FD60A73EE30000
0003E0BF206B0EE00000
0000E38D002F0AB00000
ENDCHAR
STARTCHAR x
ENCODING 120
SWIDTH 369 0
DWIDTH 13 0
BBX 13 15 0 0
BITMAP
1E44E100990D50
07C0B802E27C00
01D53E2A81E400
006D0ABE18B000
000C72F81E3000
0005E18A9A0000
0000B81EE20000
00008F27C00000
0002ECA0D50000
0009A2F35D0000
003E26FB0C6000
00B81E5E44E100
04E18B07C0B800
0C72E300D63E20
5D09A0005D09A0
ENDCHAR
STARTCHAR y
ENCODING 121
SWIDTH 422 0
DWIDTH 15 0
BBX 15 15 0 0
BITMAP
5E16D10000B90C80
0AA0C80005E17D00
02E42E301E52E400
006D18C09B0B9000
000C80DAF25E1000
0003E34F81E50000
00008C09A9B00000
00001D61EE200000
0000011011000000
000002E0B5000000
000002E0B5000000
000002E0B5000000
000002E0B5000000
000002E0B5000000
000002E0B5000000
ENDCHAR
STARTCHAR z
ENCODING 122
SWIDTH 409 0
DWIDTH 15 0
BBX 13 15 1 0
BITMAP
8FFFFFFFFFFF40
11111111111100
00000000000000
7CCCCCCDECDE40
0000002E61CA00
000002E61CA000
00002E61BA0000
0002D71BA00000
002D71BA000000
02D71BA0000000
2D71BA00000000
8FEFFEEEEEEE40
12222222222210
11111111111100
8FFFFFFFFFFF40
ENDCHAR
STARTCHAR braceleft
ENCODING 123
SWIDTH 443 0
DWIDTH 16 0
BBX 14 18 1 -2
BITMAP
00000B46A3EEE2
00000C56A02220
00000C56A00000
00000C56A3EEE2
00000C56A02220
00000C56A00000
00000C56A00000
3EEE3C56A00000
02220C56A00000
3EEE3C56A00000
02220C56A00000
00000C56A00000
00000C56A00000
00000C56A00000
00000C56A3EEE2
00000C56A02220
00000C56A3EEE2
00000111102220
ENDCHAR
STARTCHAR bar
ENCODING 124
SWIDTH 196 0
DWIDTH 7 0
BBX 5 17 1 -1
BITMAP
3D0C40
3D0C40
3D0C40
3D0C40
3D0C40
3D0C40
3D0C40
3D0C40
3D0C40
3D0C40
3D0C40
3D0C40
3D0C40
3D0C40
3D0C40
3D0C40
3D0C40
ENDCHAR
STARTCHAR braceright
ENCODING 125
SWIDTH 506 0
DWIDTH 18 0
BBX 13 18 4 -2
BITMAP
DEE6791E000000
2221791F000000
0000791F000000
DEE6791F000000
2221791F000000
0000791F000000
0000791F000000
0000791F0EEE60
0000791F022210
0000791F0EEE60
0000791F022210
0000791F000000
0000791F000000
0000791F000000
DEE6791F000000
2221791F000000
DEE6791F000000
22211102000000
ENDCHAR
STARTCHAR asciitilde
ENCODING 126
SWIDTH 450 0
DWIDTH 16 0
BBX 14 6 1 4
BITMAP
17CDECA6200157
7832137BEFFEB4
00000000011000
17CDEDA6200157
7832137BEFFEB4
00000000011000
ENDCHAR
STARTCHAR uni00A0
ENCODING 160
SWIDTH 280 0
DWIDTH 10 0
BBX 1 1 0 0
BITMAP
00
ENDCHAR
STARTCHAR exclamdown
ENCODING 161
SWIDTH 196 0
DWIDTH 7 0
BBX 5 15 1 -4
BITMAP
3D0C40
3D0C40
3D0C40
000000
3D0C40
3D0C40
3D0C40
3D0C40
3D0C40
3D0C40
3D0C40
3D0C40
3D0C40
3D0C40
3D0C40
ENDCHAR
STARTCHAR cent
ENCODING 162
SWIDTH 305 0
DWIDTH 11 0
BBX 11 18 0 -2
BITMAP
000021120000
0000C46A0000
0000C46A0000
000000000000
0006BEEC7000
01CD6335CC10
0CB29DEA3720
4E2DB4389000
897C00000000
979800000000
897B00000000
5D2E91167000
0D83CFFD4510
03EA3113AE20
0019EFFE9100
000022220000
0000C46A0000
0000C46A0000
ENDCHAR
STARTCHAR sterling
ENCODING 163
SWIDTH 408 0
DWIDTH 15 0
BBX 14 15 0 0
BITMAP
006CEFDB610000
0BC52235BD2000
3E15CED918B000
29085239317000
00000000000000
CEEEEEEEEE4000
22222222221000
CEEEEEEEEE4000
22222222221000
00000000000000
01D47B00000000
01202100000000
CEEEEEEEEEEEE9
23333333333332
CFFFFFFFFFFFFA
ENDCHAR
STARTCHAR currency
ENCODING 164
SWIDTH 401 0
DWIDTH 14 0
BBX 13 13 1 1
BITMAP
00100000010000
01E500001C7000
414B00005A0500
8C119DEA207D20
061CB438E25200
005D1BD2990000
00794C985B0000
006C1DE3890000
011D9116E31000
3E22BFFD40A800
A6040110132C20
00BB00004E4000
01810000054000
ENDCHAR
STARTCHAR yen
ENCODING 165
SWIDTH 423 0
DWIDTH 15 0
BBX 15 15 0 0
BITMAP
4E26D10000AA0C80
0AA0B90005E16D10
01E52E301D62E400
006D17C09C0AA000
000B90CAF35E1000
0002E33F81D60000
00007C09B9B00000
00000C71DF200000
0000011011000000
000001F0B5000000
00EE91F0B55EE400
002211F0B5122100
00EE91F0B55EE400
002211F0B5122100
000001F0B5000000
ENDCHAR
STARTCHAR brokenbar
ENCODING 166
SWIDTH 196 0
DWIDTH 7 0
BBX 5 16 1 0
BITMAP
3D0C40
3D0C40
3D0C40
3D0C40
3D0C40
3D0C40
3D0C40
000000
000000
3D0C40
3D0C40
3D0C40
3D0C40
3D0C40
3D0C40
3D0C40
ENDCHAR
STARTCHAR section
ENCODING 167
SWIDTH 322 0
DWIDTH 12 0
BBX 10 18 1 -2
BITMAP
017CEDB400
1CB5336D80
7A2AED82E3
B5A923A574
957B510000
3D249CB400
05DA512990
8315AEA1B4
D2C301A778
B47E9443A6
4D327BD821
04BC7319B0
00027CC1C4
417301B5A6
A85EFFA2D3
2E82114CA0
02AEFFD800
0000110000
ENDCHAR
STARTCHAR dieresis
ENCODING 168
SWIDTH 287 0
DWIDTH 10 0
BBX 8 3 1 18
BITMAP
01100010
1EE10BF5
1DD109E4
ENDCHAR
STARTCHAR copyright
ENCODING 169
SWIDTH 493 0
DWIDTH 18 0
BBX 16 17 1 -1
BITMAP
000039CEEC710000
0009E94335BE5000
00BC20000004E700
08D1000000002E40
2F300000000006D0
8B0002ADDA2001E4
C6001EA338C000A8
D4007B000000008A
E40097000000008A
C6008900000000A8
9A002E7105B000E5
3F2004DFFD4005E0
0AB0000110001E60
01DA10000002D900
001BD720138E8000
00006CFFFEA30000
0000000210000000
ENDCHAR
STARTCHAR ordfeminine
ENCODING 170
SWIDTH 331 0
DWIDTH 12 0
BBX 9 7 1 8
BITMAP
001C67D100
0067BA8500
00C39B4A00
02C7DD6C10
076C02B760
0D4ECCE3B0
1633004260
ENDCHAR
STARTCHAR guillemotleft
ENCODING 171
SWIDTH 298 0
DWIDTH 11 0
BBX 9 9 1 3
BITMAP
0002000110
007C004D20
2BD308E600
2714072220
105E102E30
89013C2100
2BC208E500
007B004D00
0001000100
ENDCHAR
STARTCHAR logicalnot
ENCODING 172
SWIDTH 420 0
DWIDTH 15 0
BBX 13 8 1 1
BITMAP
8EEEEEEEEEEEA0
12222222222210
00000000000000
8EEEEEEEEEEEA0
12222222222210
000000000D3780
000000000D3890
000000000D3890
ENDCHAR
STARTCHAR uni00AD
ENCODING 173
SWIDTH 326 0
DWIDTH 12 0
BBX 9 4 1 5
BITMAP
3EEEEEEED0
0222222220
3EEEEEEED0
0222222220
ENDCHAR
STARTCHAR registered
ENCODING 174
SWIDTH 493 0
DWIDTH 18 0
BBX 16 17 1 -1
BITMAP
000039CEEC710000
0009E94335BE5000
00BC20000004E700
08D1000000002E40
2F300000000006D0
8B000F5FFE5001E4
C6000F1115E000A8
D4000F1003F0008A
E4000F5EEF70008A
C6000F125E0000A8
9A000F100D5000E5
3F200F1007A005E0
0AB0000000001E60
01DA10000002D900
001BD720138E8000
00006CFFFEA30000
0000000210000000
ENDCHAR
STARTCHAR macron
ENCODING 175
SWIDTH 331 0
DWIDTH 12 0
BBX 10 2 1 17
BITMAP
3EEEEEEEE2
0222222220
ENDCHAR
STARTCHAR degree
ENCODING 176
SWIDTH 298 0
DWIDTH 11 0
BBX 8 8 1 7
BITMAP
007DEC40
08D536E5
1E28D55C
4C0E5B1F
2E1AF64D
0AB214D6
019FFE70
00012000
ENDCHAR
STARTCHAR plusminus
ENCODING 177
SWIDTH 418 0
DWIDTH 15 0
BBX 13 15 1 0
BITMAP
00003D0C400000
00003D0C400000
00003D0C400000
00003D0C400000
2EE73D0C46EE20
02213D0C412200
2EE73D0C46EE20
02213D0C412200
00003D0C400000
00003D0C400000
00000000000000
00000000000000
8EEEEEEEEEEE90
23333333333320
8FFFFFFFFFFF90
ENDCHAR
STARTCHAR uni00B2
ENCODING 178
SWIDTH 233 0
DWIDTH 8 0
BBX 6 8 1 7
BITMAP
02CD90
0B2096
1A8C58
145A56
01A691
053520
3DDDD6
3DDDD6
ENDCHAR
STARTCHAR uni00B3
ENCODING 179
SWIDTH 228 0
DWIDTH 8 0
BBX 6 8 1 7
BITMAP
03CD80
0B1094
289A55
000C71
0004A3
122C66
1BACA3
06DD70
ENDCHAR
STARTCHAR acute
ENCODING 180
SWIDTH 195 0
DWIDTH 7 0
BBX 4 4 2 17
BITMAP
0171
0A90
4E10
D600
ENDCHAR
STARTCHAR uni00B5
ENCODING 181
SWIDTH 506 0
DWIDTH 18 0
BBX 17 19 1 -4
BITMAP
3D0C40002E0C500000
3D0C40002E0C500000
3D0C40002E0C500000
3D0C40002E0C500000
3D0C40002E0C500000
3D0C40002E0C500000
3D0C40002E0C500000
3D0C40002E0C500000
3D0C40002E0C500000
3D0C40004D0C400000
3D0C4202C80E211000
3D0C4EFE804D4FF100
3D0C401002D5011000
3D0C44237E78933920
3D0C4DFDA404BEEB20
3D0C40000000000000
3D0C40000000000000
3D0C40000000000000
3D0C40000000000000
ENDCHAR
STARTCHAR paragraph
ENCODING 182
SWIDTH 435 0
DWIDTH 16 0
BBX 14 15 0 0
BITMAP
002AEFFFFFFFFD
02E93111111111
0A900000000000
0F22CEEEEEEEEC
1F099222222222
0F2A800793D03D
0B83EE6793D03D
03E7221793D03D
003BFE6793D03D
0000121793D03D
0000000793D03D
0000000793D03D
0000000793D03D
0000000793D03D
0000000793D03D
ENDCHAR
STARTCHAR periodcentered
ENCODING 183
SWIDTH 176 0
DWIDTH 6 0
BBX 4 3 1 6
BITMAP
873D
883D
883D
ENDCHAR
STARTCHAR cedilla
ENCODING 184
SWIDTH 261 0
DWIDTH 9 0
BBX 6 8 2 -7
BITMAP
016100
08B000
3FDD90
4933C6
000088
7302D5
8EFF80
001000
ENDCHAR
STARTCHAR uni00B9
ENCODING 185
SWIDTH 218 0
DWIDTH 8 0
BBX 6 8 1 7
BITMAP
3D5BA1
000BA1
3D5BA1
000BA1
000BA1
000BA1
000BA1
000BA1
ENDCHAR
STARTCHAR ordmasculine
ENCODING 186
SWIDTH 335 0
DWIDTH 12 0
BBX 10 8 1 7
BITMAP
003ADDA300
04DBDDAD50
0D7A11A6E0
2E650046D3
2E3A11A3C3
0D45CC62E0
05D4004D50
003BEEB400
ENDCHAR
STARTCHAR guillemotright
ENCODING 187
SWIDTH 298 0
DWIDTH 11 0
BBX 9 9 1 3
BITMAP
2000010000
6B201E4000
19E505E800
4155222700
7B013E2010
014D012B40
08E505E800
5B200D4000
1000010000
ENDCHAR
STARTCHAR onequarter
ENCODING 188
SWIDTH 429 0
DWIDTH 15 0
BBX 14 14 1 0
BITMAP
EBA65000058A20
21A650000B5800
00A6500076B100
00A65001B66000
00A650094B0000
00A6503A840000
00A650B4A00000
0000058A21B840
00000B58086B00
000076B11C8400
0001B66077BA65
00094B00CEAA65
00398400CFBA65
00B4A000221A65
ENDCHAR
STARTCHAR onehalf
ENCODING 189
SWIDTH 437 0
DWIDTH 16 0
BBX 14 15 1 -1
BITMAP
EBA650000A4B00
EBA6500048A300
21A65000B49000
00A650066B1000
00A6501B670000
00A65085B00000
00A652A752BD90
00000A4B0A63B6
000049930B7D69
0000B490167948
00067B20008681
001B5700054530
0085B1003EEEE8
02B750003FFFF8
01110000022221
ENDCHAR
STARTCHAR threequarters
ENCODING 190
SWIDTH 409 0
DWIDTH 15 0
BBX 13 15 1 0
BITMAP
2BEA1000031200
A9E98000399400
44549000B4A000
009A10058A2000
116B700B580000
A7F5A076B10000
951671B6600000
1BEA095B000000
00002A850B6800
0000A4B039B100
00048A30A59000
000B4902AA86A0
0067B108EE66A0
01B57008FF66A0
085B10012266A0
ENDCHAR
STARTCHAR questiondown
ENCODING 191
SWIDTH 346 0
DWIDTH 12 0
BBX 10 16 1 -3
BITMAP
000892E000
000892E000
0000001000
0004519000
000892F000
000983E000
003E35C000
03E60B8000
0C70AD1000
1F07D20000
3D0C500000
2F0B82E389
0D63DE80D5
04E6103BC0
004CFFE910
0000120000
ENDCHAR
STARTCHAR Agrave
ENCODING 192
SWIDTH 798 0
DWIDTH 29 0
BBX 28 40 0 0
BITMAP
0000000054072000000000000000
000000004E18B000000000000000
000000000A91D500000000000000
0000000002E25D10000000000000
00000000008B0B70000000000000
00000000001E53E2000000000000
000000000006D09A000000000000
000000000000C71E400000000000
0000000000000000000000000000
0000000000000000000000000000
0000000000000000000000000000
00000000000E27A0E30000000000
00000000005C0D55D11000000000
0000000000B63E0A756000000000
0000000001E1991E26C000000000
0000000006A0E46B01F200000000
000000000C54D0B661A700000000
000000002E0A82F1A55D00000000
00000000891E27A06B0E30000000
00000000D46C0D521F1990000000
00000003D0B73E0C0B73E0000000
0000000982F1890D55C0D5000000
0000000E37B0E307A1E27A000000
0000005C0C54D002F1982F100000
000000A73E1A8000B64D0C600000
000001E2891E20006B0D46B00000
000006B0D45C00001F2891F20000
00000B64D0B600000A73E0A70000
00002E1981F1000005D0C55D0000
00007A1E37B2EEEED1E37A0E3000
0000D45C0C51222220981F199000
0003E0B72E000000004E0B63E000
000991F2891EEEEEEC0D46C0D400
000E36B0D40222222208A1E28A00
004D0C64D0CEEEEEEEA2E1A72E10
00A72E19802222222220C54D0C60
01E28A0E3000000000007B0E36B0
06C0D45C0000000000001F1891F2
0B63E0A70000000000000B63E0A7
2F1991F100000000000006C0D55D
ENDCHAR
STARTCHAR Aacute
ENCODING 193
SWIDTH 798 0
DWIDTH 29 0
BBX 28 40 0 0
BITMAP
0000000000000000072271000000
00000000000000006C0A90000000
0000000000000001E43E10000000
0000000000000009A0C700000000
000000000000003E26D000000000
00000000000000B81E4000000000
00000000000005D18B0000000000
0000000000000D52E20000000000
0000000000000000000000000000
0000000000000000000000000000
0000000000000000000000000000
00000000000E27A0E30000000000
00000000005C0D55D11000000000
0000000000B63E0A756000000000
0000000001E1991E26C000000000
0000000006A0E46B01F200000000
000000000C54D0B661A700000000
000000002E0A82F1A55D00000000
00000000891E27A06B0E30000000
00000000D46C0D521F1990000000
00000003D0B73E0C0B73E0000000
0000000982F1890D55C0D5000000
0000000E37B0E307A1E27A000000
0000005C0C54D002F1982F100000
000000A73E1A8000B64D0C600000
000001E2891E20006B0D46B00000
000006B0D45C00001F2891F20000
00000B64D0B600000A73E0A70000
00002E1981F1000005D0C55D0000
00007A1E37B2EEEED1E37A0E3000
0000D45C0C51222220981F199000
0003E0B72E000000004E0B63E000
000991F2891EEEEEEC0D46C0D400
000E36B0D40222222208A1E28A00
004D0C64D0CEEEEEEEA2E1A72E10
00A72E19802222222220C54D0C60
01E28A0E3000000000007B0E36B0
06C0D45C0000000000001F1891F2
0B63E0A70000000000000B63E0A7
2F1991F100000000000006C0D55D
ENDCHAR
STARTCHAR Acircumflex
ENCODING 194
SWIDTH 798 0
DWIDTH 29 0
BBX 28 40 0 0
BITMAP
0000000000037037000000000000
00000000001E61E6100000000000
0000000000BA0BA0970000000000
0000000007D17D112E4000000000
000000003E33E32D16D100000000
00000001D71D700AB0AA00000000
00000009B0AB0001D71D60000000
0000005E25E100003E33E3000000
0000000000000000000000000000
0000000000000000000000000000
0000000000000000000000000000
00000000000E27A0E30000000000
00000000005C0D55D11000000000
0000000000B63E0A756000000000
0000000001E1991E26C000000000
0000000006A0E46B01F200000000
000000000C54D0B661A700000000
000000002E0A82F1A55D00000000
00000000891E27A06B0E30000000
00000000D46C0D521F1990000000
00000003D0B73E0C0B73E0000000
0000000982F1890D55C0D5000000
0000000E37B0E307A1E27A000000
0000005C0C54D002F1982F100000
000000A73E1A8000B64D0C600000
000001E2891E20006B0D46B00000
000006B0D45C00001F2891F20000
00000B64D0B600000A73E0A70000
00002E1981F1000005D0C55D0000
00007A1E37B2EEEED1E37A0E3000
0000D45C0C51222220981F199000
0003E0B72E000000004E0B63E000
000991F2891EEEEEEC0D46C0D400
000E36B0D40222222208A1E28A00
004D0C64D0CEEEEEEEA2E1A72E10
00A72E19802222222220C54D0C60
01E28A0E3000000000007B0E36B0
06C0D45C0000000000001F1891F2
0B63E0A70000000000000B63E0A7
2F1991F100000000000006C0D55D
ENDCHAR
STARTCHAR Atilde
ENCODING 195
SWIDTH 798 0
DWIDTH 29 0
BBX 28 36 0 0
BITMAP
0000000018DEB4000000A2000000
00000000BC426E800002F1000000
00000003E10002DB203CA0000000
00000005A0000019FFF910000000
0000000000000000020000000000
0000000000000000000000000000
0000000000000000000000000000
00000000000E27A0E30000000000
00000000005C0D55D11000000000
0000000000B63E0A756000000000
0000000001E1991E26C000000000
0000000006A0E46B01F200000000
000000000C54D0B661A700000000
000000002E0A82F1A55D00000000
00000000891E27A06B0E30000000
00000000D46C0D521F1990000000
00000003D0B73E0C0B73E0000000
0000000982F1890D55C0D5000000
0000000E37B0E307A1E27A000000
0000005C0C54D002F1982F100000
000000A73E1A8000B64D0C600000
000001E2891E20006B0D46B00000
000006B0D45C00001F2891F20000
00000B64D0B600000A73E0A70000
00002E1981F1000005D0C55D0000
00007A1E37B2EEEED1E37A0E3000
0000D45C0C51222220981F199000
0003E0B72E000000004E0B63E000
000991F2891EEEEEEC0D46C0D400
000E36B0D40222222208A1E28A00
004D0C64D0CEEEEEEEA2E1A72E10
00A72E19802222222220C54D0C60
01E28A0E3000000000007B0E36B0
06C0D45C0000000000001F1891F2
0B63E0A70000000000000B63E0A7
2F1991F100000000000006C0D55D
ENDCHAR
STARTCHAR Adieresis
ENCODING 196
SWIDTH 798 0
DWIDTH 29 0
BBX 28 39 0 0
BITMAP
00000004BEC5000007CDB3000000
0000004E635E60008C437E300000
000000B60004D001F20009900000
000000E30001F103D00005C00000
000000C50003E001F10008A00000
0000006D303C8000AB205E400000
00000007EFE8000019FFD5000000
0000000001000000000100000000
0000000000000000000000000000
0000000000000000000000000000
00000000000E27A0E30000000000
00000000005C0D55D11000000000
0000000000B63E0A756000000000
0000000001E1991E26C000000000
0000000006A0E46B01F200000000
000000000C54D0B661A700000000
000000002E0A82F1A55D00000000
00000000891E27A06B0E30000000
00000000D46C0D521F1990000000
00000003D0B73E0C0B73E0000000
0000000982F1890D55C0D5000000
0000000E37B0E307A1E27A000000
0000005C0C54D002F1982F100000
000000A73E1A8000B64D0C600000
000001E2891E20006B0D46B00000
000006B0D45C00001F2891F20000
00000B64D0B600000A73E0A70000
00002E1981F1000005D0C55D0000
00007A1E37B2EEEED1E37A0E3000
0000D45C0C51222220981F199000
0003E0B72E000000004E0B63E000
000991F2891EEEEEEC0D46C0D400
000E36B0D40222222208A1E28A00
004D0C64D0CEEEEEEEA2E1A72E10
00A72E19802222222220C54D0C60
01E28A0E3000000000007B0E36B0
06C0D45C0000000000001F1891F2
0B63E0A70000000000000B63E0A7
2F1991F100000000000006C0D55D
ENDCHAR
STARTCHAR Aring
ENCODING 197
SWIDTH 798 0
DWIDTH 29 0
BBX 28 40 0 0
BITMAP
0000000000006CEC400000000000
000000000008D536E50000000000
00000000002F30005D0000000000
00000000005D00001F1000000000
00000000005C00000F2000000000
00000000002F20004E0000000000
00000000000AC204D60000000000
0000000000019FFE700000000000
0000000000000020000000000000
0000000000000000000000000000
0000000000000000000000000000
00000000000E27A0E30000000000
00000000005C0D55D11000000000
0000000000B63E0A756000000000
0000000001E1991E26C000000000
0000000006A0E46B01F200000000
000000000C54D0B661A700000000
000000002E0A82F1A55D00000000
00000000891E27A06B0E30000000
00000000D46C0D521F1990000000
00000003D0B73E0C0B73E0000000
0000000982F1890D55C0D5000000
0000000E37B0E307A1E27A000000
0000005C0C54D002F1982F100000
000000A73E1A8000B64D0C600000
000001E2891E20006B0D46B00000
000006B0D45C00001F2891F20000
00000B64D0B600000A73E0A70000
00002E1981F1000005D0C55D0000
00007A1E37B2EEEED1E37A0E3000
0000D45C0C51222220981F199000
0003E0B72E000000004E0B63E000
000991F2891EEEEEEC0D46C0D400
000E36B0D40222222208A1E28A00
004D0C64D0CEEEEEEEA2E1A72E10
00A72E19802222222220C54D0C60
01E28A0E3000000000007B0E36B0
06C0D45C0000000000001F1891F2
0B63E0A70000000000000B63E0A7
2F1991F100000000000006C0D55D
ENDCHAR
STARTCHAR AE
ENCODING 198
SWIDTH 1078 0
DWIDTH 39 0
BBX 38 29 0 0
BITMAP
000000000000000791F0A64FFFFFFFFFFFFFFB
0000000000000005B0E2880111111111111111
0000000000000063D0D47A0EEEEEEEEEEEEEEB
0000000000000692F0B65B0222222222222221
0000000000000D40F1973D0BEEEEEEEEEEEEEB
0000000000006B10D3791F0122222222222221
000000000000D480B56B0F2000000000000000
000000000006B1E1A74D0D3000000000000000
00000000000D47B0882E0B5000000000000000
00000000007B1E406A0F197000000000000000
0000000001E47B044C0E389000000000000000
0000000007B1E4592E0C56B0DEEEEEEEEEEA00
000000001E47C0C61F1A64C022222222222100
000000007B1E45D00E2882E000000000000000
00000001E37C0C600C46A1F19EEEEEEEEEEA00
00000007B0E44D000A65C0E312222222222100
0000001E36C0C6000983D0C45EEEEEEEEEEA00
0000007B0D54D0000791F0A612222222222100
000001E36C0B700005B0E29800000000000000
000007B0D54E100003D0D47A00000000000000
00001E36C0B71EEE91F0B55B00000000000000
00007B0D54E1122210F1973D00000000000000
0001E36D0B74EEEED0D3792F00000000000000
0008B0D53E11222220B56B0F28EEEEEEEEEEEB
001E36D0B800000000974D0D31222222222221
008A0D53E16EEEEEE3892E0B54EEEEEEEEEEEB
01E35D0A80122222206A0F1A70222222222221
08A0D63E10000000004C0E3890111111111111
1E35D0A800000000002E0C56B0FFFFFFFFFFFB
ENDCHAR
STARTCHAR Ccedilla
ENCODING 199
SWIDTH 776 0
DWIDTH 28 0
BBX 26 39 1 -9
BITMAP
00000000000246777520000000
0000000028DECA99ABEE930000
00000018E940000000038EA200
000003EA2027BCEEDB84017E60
00005E504CE96322459DE712C7
0004E30AE616ADEECA614CD311
002E41CA17EB742247BE707D00
00B80BA1BD3000000003CB1000
04E18C1BB10000000000092000
0B71E27D100000000000000000
2F1891E3000000000000000000
6B0D37B0000000000000000000
A73E0C50000000000000000000
C55B0F20000000000000000000
D4792F00000000000000000000
E3882E00000000000000000000
D4792E00000000000000000000
C56A0F10000000000000000000
A73D0C40000000000000000000
6B0E2890000000000000000000
2F1982E2000000000000000000
0B72E19C000000000000000000
04E19A1D900000000000051000
00B81C72DB10000000019D2000
002E42D819E94100148EA24A00
0004E31BC339DFFFFD9318E600
00005E506DB63111126AEA21B8
000003EA2159DFFFFEB7206D80
00000018E940001100037DB300
0000000028DEDFA9ACEEA40000
000000000002FF777530000000
000000000004E1000000000000
00000000001DEEDA2000000000
00000000007D6239E100000000
0000000000110000C500000000
0000000000000000B500000000
0000000005B30018E100000000
00000000007DFFFA2000000000
00000000000011000000000000
ENDCHAR
STARTCHAR Egrave
ENCODING 200
SWIDTH 677 0
DWIDTH 24 0
BBX 23 40 1 0
BITMAP
000000001712700000000000
000000000A90D60000000000
0000000002E34E1000000000
00000000007C0B8000000000
00000000000D62E200000000
000000000005E18B00000000
000000000000B81E40000000
0000000000003E26D0000000
000000000000000000000000
000000000000000000000000
000000000000000000000000
3D0C4791FFFFFFFFFFFFFF40
3D0C47901111111111111100
3D0C4791EEEEEEEEEEEEEE40
3D0C47902222222222222210
3D0C4791EEEEEEEEEEEEEE40
3D0C47902222222222222210
3D0C47900000000000000000
3D0C47900000000000000000
3D0C47900000000000000000
3D0C47900000000000000000
3D0C47900000000000000000
3D0C4791EEEEEEEEEEEE3000
3D0C47902222222222220000
3D0C47900000000000000000
3D0C4791EEEEEEEEEEEE3000
3D0C47902222222222220000
3D0C4791EEEEEEEEEEEE3000
3D0C47902222222222220000
3D0C47900000000000000000
3D0C47900000000000000000
3D0C47900000000000000000
3D0C47900000000000000000
3D0C47900000000000000000
3D0C4791EEEEEEEEEEEEEE40
3D0C47902222222222222210
3D0C4791EEEEEEEEEEEEEE40
3D0C47902222222222222210
3D0C47901111111111111100
3D0C4791FFFFFFFFFFFFFF40
ENDCHAR
STARTCHAR Eacute
ENCODING 201
SWIDTH 677 0
DWIDTH 24 0
BBX 23 40 1 0
BITMAP
000000000000171370000000
0000000000009A0C70000000
000000000002E26D00000000
00000000000B81E500000000
00000000005E18B000000000
0000000000D52E2000000000
0000000007C0B80000000000
000000002E34E10000000000
000000000000000000000000
000000000000000000000000
000000000000000000000000
3D0C4791FFFFFFFFFFFFFF40
3D0C47901111111111111100
3D0C4791EEEEEEEEEEEEEE40
3D0C47902222222222222210
3D0C4791EEEEEEEEEEEEEE40
3D0C47902222222222222210
3D0C47900000000000000000
3D0C47900000000000000000
3D0C47900000000000000000
3D0C47900000000000000000
3D0C47900000000000000000
3D0C4791EEEEEEEEEEEE3000
3D0C47902222222222220000
3D0C47900000000000000000
3D0C4791EEEEEEEEEEEE3000
3D0C47902222222222220000
3D0C4791EEEEEEEEEEEE3000
3D0C47902222222222220000
3D0C47900000000000000000
3D0C47900000000000000000
3D0C47900000000000000000
3D0C47900000000000000000
3D0C47900000000000000000
3D0C4791EEEEEEEEEEEEEE40
3D0C47902222222222222210
3D0C4791EEEEEEEEEEEEEE40
3D0C47902222222222222210
3D0C47901111111111111100
3D0C4791FFFFFFFFFFFFFF40
ENDCHAR
STARTCHAR Ecircumflex
ENCODING 202
SWIDTH 677 0
DWIDTH 24 0
BBX 23 40 1 0
BITMAP
000000000064064000000000
0000000006E16D1100000000
000000002E42E40D20000000
00000000C80C8008C0000000
00000008C09C0790B9000000
0000004E24E202E52E500000
000001E62E50005E25E20000
00000BA0B9000009C09B0000
000000000000000000000000
000000000000000000000000
000000000000000000000000
3D0C4791FFFFFFFFFFFFFF40
3D0C47901111111111111100
3D0C4791EEEEEEEEEEEEEE40
3D0C47902222222222222210
3D0C4791EEEEEEEEEEEEEE40
3D0C47902222222222222210
3D0C47900000000000000000
3D0C47900000000000000000
3D0C47900000000000000000
3D0C47900000000000000000
3D0C47900000000000000000
3D0C4791EEEEEEEEEEEE3000
3D0C47902222222222220000
3D0C47900000000000000000
3D0C4791EEEEEEEEEEEE3000
3D0C47902222222222220000
3D0C4791EEEEEEEEEEEE3000
3D0C47902222222222220000
3D0C47900000000000000000
3D0C47900000000000000000
3D0C47900000000000000000
3D0C47900000000000000000
3D0C47900000000000000000
3D0C4791EEEEEEEEEEEEEE40
3D0C47902222222222222210
3D0C4791EEEEEEEEEEEEEE40
3D0C47902222222222222210
3D0C47901111111111111100
3D0C4791FFFFFFFFFFFFFF40
ENDCHAR
STARTCHAR Edieresis
ENCODING 203
SWIDTH 677 0
DWIDTH 24 0
BBX 23 39 1 0
BITMAP
0000008DDA200002ADD81000
00000AC438E1001D934BB000
00002E1000A8006B0001E400
00004C00007A00970000B600
00003E000098007A0000D400
00000BA106E2002E6019D000
000001AFFD400003CFFB2000
000000001000000001000000
000000000000000000000000
000000000000000000000000
3D0C4791FFFFFFFFFFFFFF40
3D0C47901111111111111100
3D0C4791EEEEEEEEEEEEEE40
3D0C47902222222222222210
3D0C4791EEEEEEEEEEEEEE40
3D0C47902222222222222210
3D0C47900000000000000000
3D0C47900000000000000000
3D0C47900000000000000000
3D0C47900000000000000000
3D0C47900000000000000000
3D0C4791EEEEEEEEEEEE3000
3D0C47902222222222220000
3D0C47900000000000000000
3D0C4791EEEEEEEEEEEE3000
3D0C47902222222222220000
3D0C4791EEEEEEEEEEEE3000
3D0C47902222222222220000
3D0C47900000000000000000
3D0C47900000000000000000
3D0C47900000000000000000
3D0C47900000000000000000
3D0C47900000000000000000
3D0C4791EEEEEEEEEEEEEE40
3D0C47902222222222222210
3D0C4791EEEEEEEEEEEEEE40
3D0C47902222222222222210
3D0C47901111111111111100
3D0C4791FFFFFFFFFFFFFF40
ENDCHAR
STARTCHAR Igrave
ENCODING 204
SWIDTH 262 0
DWIDTH 9 0
BBX 10 40 -2 0
BITMAP
6407200000
5D18B00000
0B81E40000
03E26D0000
009A0C7000
001E44E100
0006C0A900
0000C62E30
0000000000
0000000000
0000000000
0003D0C479
0003D0C479
0003D0C479
0003D0C479
0003D0C479
0003D0C479
0003D0C479
0003D0C479
0003D0C479
0003D0C479
0003D0C479
0003D0C479
0003D0C479
0003D0C479
0003D0C479
0003D0C479
0003D0C479
0003D0C479
0003D0C479
0003D0C479
0003D0C479
0003D0C479
0003D0C479
0003D0C479
0003D0C479
0003D0C479
0003D0C479
0003D0C479
0003D0C479
ENDCHAR
STARTCHAR Iacute
ENCODING 205
SWIDTH 262 0
DWIDTH 9 0
BBX 10 40 1 0
BITMAP
0000007127
000007B0B8
00002E35E1
0000A90D60
0004E17C00
000C71E300
006D09A000
01E43E2000
0000000000
0000000000
0000000000
3D0C479000
3D0C479000
3D0C479000
3D0C479000
3D0C479000
3D0C479000
3D0C479000
3D0C479000
3D0C479000
3D0C479000
3D0C479000
3D0C479000
3D0C479000
3D0C479000
3D0C479000
3D0C479000
3D0C479000
3D0C479000
3D0C479000
3D0C479000
3D0C479000
3D0C479000
3D0C479000
3D0C479000
3D0C479000
3D0C479000
3D0C479000
3D0C479000
3D0C479000
ENDCHAR
STARTCHAR Icircumflex
ENCODING 206
SWIDTH 262 0
DWIDTH 9 0
BBX 16 40 -4 0
BITMAP
0000017217200000
00000AA0AA010000
00006D16D14C0000
0002E43E410C8000
000C81D80B42E400
009C09C005E25E10
05E25E20009B09B0
2E52E500001D71D7
0000000000000000
0000000000000000
0000000000000000
000003D0C4790000
000003D0C4790000
000003D0C4790000
000003D0C4790000
000003D0C4790000
000003D0C4790000
000003D0C4790000
000003D0C4790000
000003D0C4790000
000003D0C4790000
000003D0C4790000
000003D0C4790000
000003D0C4790000
000003D0C4790000
000003D0C4790000
000003D0C4790000
000003D0C4790000
000003D0C4790000
000003D0C4790000
000003D0C4790000
000003D0C4790000
000003D0C4790000
000003D0C4790000
000003D0C4790000
000003D0C4790000
000003D0C4790000
000003D0C4790000
000003D0C4790000
000003D0C4790000
ENDCHAR
STARTCHAR Idieresis
ENCODING 207
SWIDTH 262 0
DWIDTH 9 0
BBX 18 39 -4 0
BITMAP
02ADD8000004BEC500
1D934BB0004E635D70
7B0001E300B60004E0
970000B500D30000F1
7A0000D400B50003E0
2E6019C0005D402C90
03CFFA200006EFE800
000100000000010000
000000000000000000
000000000000000000
000003D0C479000000
000003D0C479000000
000003D0C479000000
000003D0C479000000
000003D0C479000000
000003D0C479000000
000003D0C479000000
000003D0C479000000
000003D0C479000000
000003D0C479000000
000003D0C479000000
000003D0C479000000
000003D0C479000000
000003D0C479000000
000003D0C479000000
000003D0C479000000
000003D0C479000000
000003D0C479000000
000003D0C479000000
000003D0C479000000
000003D0C479000000
000003D0C479000000
000003D0C479000000
000003D0C479000000
000003D0C479000000
000003D0C479000000
000003D0C479000000
000003D0C479000000
000003D0C479000000
ENDCHAR
STARTCHAR Eth
ENCODING 208
SWIDTH 856 0
DWIDTH 31 0
BBX 30 29 0 0
BITMAP
0006A0F1A74FFFFFEC951000000000
0006A0F1A7011112459DE810000000
0006A0F1A74EEEEEDA733AE7000000
0006A0F1A702222346AEB43DA10000
0006A0F1A74EEEEECA517E92BC1000
0006A0F1A702222347CE61BC1BA000
0006A0F1A70000000004EA1AB1D600
0006A0F1A700000000001CA1C74E10
0006A0F1A7000000000001E63E1B70
0006A0F1A70000000000004E1A84D0
00000000000000000000000C65D0E3
9EEEEEEEEEEEEEA000000007A1F1A7
122222222222221000000004D0D489
000000000000000000000003E0C56A
9EEEEEEEEEEEEEA000000003E0C56B
122222222222221000000004D0D46A
9EEEEEEEEEEEEEA000000007A0F289
12222222222222100000000B64E0A7
00000000000000000000003E1990E3
0006A0F1A7000000000001C82F24D0
0006A0F1A700000000000AC1B90B80
0006A0F1A70000000002CC18D14E10
0006A0F1A7000000159E919E21D600
0006A0F1A74EEEEFFC824CC20BA000
0006A0F1A7022221137CE701AC1000
0006A0F1A74EEEEFFDA5003DA10000
0006A0F1A702222100003AE7000000
0006A0F1A7011112358DE810000000
0006A0F1A74FFFFFEC951000000000
ENDCHAR
STARTCHAR Ntilde
ENCODING 209
SWIDTH 796 0
DWIDTH 29 0
BBX 26 36 1 0
BITMAP
000000019DEB3000000B200000
0000000CC426E700003F000000
0000004E10003DA203D8000000
00000079000001AFFE80000000
00000000000000002000000000
00000000000000000000000000
00000000000000000000000000
3D0C4790000000000000F2973D
3D0C4790000000000000F2973D
3D0C4791700000000000F2973D
3D0C4791E30000000000F2973D
3D0C47907C0000000000F2973D
3D0C47900B8000000000F2973D
3D0C479152E400000000F2973D
3D0C4791E26D10000000F2973D
3D0C47909B0AA0000000F2973D
3D0C47901D71E5000000F2973D
3D0C479143E34E200000F2973D
3D0C4791D17C09B00000F2973D
3D0C4790AA0C81D70000F2973D
3D0C47901E52E43E3000F2973D
3D0C479004E26D17C000F2973D
3D0C4790009B0AA0B800F2973D
3D0C4790001D71E52E40F2973D
3D0C47900003E34E26B0F2973D
3D0C479000007C09B060F2973D
3D0C479000000C81D700F2973D
3D0C4790000002E43E30F2973D
3D0C47900000006D17A0F2973D
3D0C47900000000AA080F2973D
3D0C479000000001E500F2973D
3D0C4790000000004E20F2973D
3D0C47900000000009A0F2973D
3D0C4790000000000190F2973D
3D0C4790000000000010F2973D
3D0C4790000000000000F2973D
ENDCHAR
STARTCHAR Ograve
ENCODING 210
SWIDTH 894 0
DWIDTH 32 0
BBX 31 41 1 -1
BITMAP
00000000072270000000000000000000
0000000008B0C7000000000000000000
0000000001E43E100000000000000000
00000000006D09A00000000000000000
00000000000C71E30000000000000000
000000000004E17C0000000000000000
000000000000A90D6000000000000000
0000000000002E35E100000000000000
00000000000000000000000000000000
00000000000000000000000000000000
00000000000246776520000000000000
0000000028DECA99ACEE930000000000
00000018E940000000038E9200000000
000003EA2027BCEECB83019E50000000
00005E504CE96322358DD503E7000000
0004E30AE616ADEEDB725CB12D700000
002E41CA17EB742236AE818D23E40000
00B80BA1BD3000000002BD27D15D0000
04E18C1BB1000000000009D19A0C6000
0B71E27D10000000000000BA1E34E000
2F1891E3000000000000002E37B0D500
6B0D37B00000000000000008A1F19900
A73E0C500000000000000003E0B54C00
C55B0F200000000000000000E3882F00
D4792F000000000000000000C46A1F10
E3882E000000000000000000B56B0F10
D4792E000000000000000000C56A1F10
C56A0F100000000000000000E3882F00
A73D0C400000000000000002F0B64C00
6B0E28900000000000000007A0E28900
2F1982E2000000000000001D46C0D500
0B72E19C000000000000009B0D54E000
04E19A1D90000000000006E27C0C6000
00B81C72DB10000000019E35E25D0000
002E42D819E94100138EB26E43E40000
0004E31BC339DFFFFD942AD22D700000
00005E506DB63112136AE713E7000000
000003EA2159DFFFFEA6119E50000000
00000018E940001100038EA200000000
0000000028DECA99ABEE930000000000
00000000000246777520000000000000
ENDCHAR
STARTCHAR Oacute
ENCODING 211
SWIDTH 894 0
DWIDTH 32 0
BBX 31 41 1 -1
BITMAP
00000000000000001713700000000000
00000000000000009A0C700000000000
0000000000000003E26D000000000000
000000000000000B81E4000000000000
000000000000005D18B0000000000000
00000000000000D52E20000000000000
00000000000007C0B800000000000000
0000000000002E35E100000000000000
00000000000000000000000000000000
00000000000000000000000000000000
00000000000246776520000000000000
0000000028DECA99ACEE930000000000
00000018E940000000038E9200000000
000003EA2027BCEECB83019E50000000
00005E504CE96322358DD503E7000000
0004E30AE616ADEEDB725CB12D700000
002E41CA17EB742236AE818D23E40000
00B80BA1BD3000000002BD27D15D0000
04E18C1BB1000000000009D19A0C6000
0B71E27D10000000000000BA1E34E000
2F1891E3000000000000002E37B0D500
6B0D37B00000000000000008A1F19900
A73E0C500000000000000003E0B54C00
C55B0F200000000000000000E3882F00
D4792F000000000000000000C46A1F10
E3882E000000000000000000B56B0F10
D4792E000000000000000000C56A1F10
C56A0F100000000000000000E3882F00
A73D0C400000000000000002F0B64C00
6B0E28900000000000000007A0E28900
2F1982E2000000000000001D46C0D500
0B72E19C000000000000009B0D54E000
04E19A1D90000000000006E27C0C6000
00B81C72DB10000000019E35E25D0000
002E42D819E94100138EB26E43E40000
0004E31BC339DFFFFD942AD22D700000
00005E506DB63112136AE713E7000000
000003EA2159DFFFFEA6119E50000000
00000018E940001100038EA200000000
0000000028DECA99ABEE930000000000
00000000000246777520000000000000
ENDCHAR
STARTCHAR Ocircumflex
ENCODING 212
SWIDTH 894 0
DWIDTH 32 0
BBX 31 41 1 -1
BITMAP
00000000000065064000000000000000
000000000005E25E2100000000000000
00000000002E52E50D30000000000000
0000000000B90B9016D1000000000000
0000000007D17D16A0AA000000000000
000000003E33E301D61D600000000000
00000001D71D60004E34E20000000000
0000000AB0AB000008C18C0000000000
00000000000000000000000000000000
00000000000000000000000000000000
00000000000246776520000000000000
0000000028DECA99ACEE930000000000
00000018E940000000038E9200000000
000003EA2027BCEECB83019E50000000
00005E504CE96322358DD503E7000000
0004E30AE616ADEEDB725CB12D700000
002E41CA17EB742236AE818D23E40000
00B80BA1BD3000000002BD27D15D0000
04E18C1BB1000000000009D19A0C6000
0B71E27D10000000000000BA1E34E000
2F1891E3000000000000002E37B0D500
6B0D37B00000000000000008A1F19900
A73E0C500000000000000003E0B54C00
C55B0F200000000000000000E3882F00
D4792F000000000000000000C46A1F10
E3882E000000000000000000B56B0F10
D4792E000000000000000000C56A1F10
C56A0F100000000000000000E3882F00
A73D0C400000000000000002F0B64C00
6B0E28900000000000000007A0E28900
2F1982E2000000000000001D46C0D500
0B72E19C000000000000009B0D54E000
04E19A1D90000000000006E27C0C6000
00B81C72DB10000000019E35E25D0000
002E42D819E94100138EB26E43E40000
0004E31BC339DFFFFD942AD22D700000
00005E506DB63112136AE713E7000000
000003EA2159DFFFFEA6119E50000000
00000018E940001100038EA200000000
0000000028DECA99ABEE930000000000
00000000000246777520000000000000
ENDCHAR
STARTCHAR Otilde
ENCODING 213
SWIDTH 894 0
DWIDTH 32 0
BBX 31 37 1 -1
BITMAP
0000000002AEDA2000002A0000000000
000000002E9338E400007C0000000000
000000008B00005E8105E50000000000
00000000A5000003CFFE600000000000
00000000000000000110000000000000
00000000000000000000000000000000
00000000000246776520000000000000
0000000028DECA99ACEE930000000000
00000018E940000000038E9200000000
000003EA2027BCEECB83019E50000000
00005E504CE96322358DD503E7000000
0004E30AE616ADEEDB725CB12D700000
002E41CA17EB742236AE818D23E40000
00B80BA1BD3000000002BD27D15D0000
04E18C1BB1000000000009D19A0C6000
0B71E27D10000000000000BA1E34E000
2F1891E3000000000000002E37B0D500
6B0D37B00000000000000008A1F19900
A73E0C500000000000000003E0B54C00
C55B0F200000000000000000E3882F00
D4792F000000000000000000C46A1F10
E3882E000000000000000000B56B0F10
D4792E000000000000000000C56A1F10
C56A0F100000000000000000E3882F00
A73D0C400000000000000002F0B64C00
6B0E28900000000000000007A0E28900
2F1982E2000000000000001D46C0D500
0B72E19C000000000000009B0D54E000
04E19A1D90000000000006E27C0C6000
00B81C72DB10000000019E35E25D0000
002E42D819E94100138EB26E43E40000
0004E31BC339DFFFFD942AD22D700000
00005E506DB63112136AE713E7000000
000003EA2159DFFFFEA6119E50000000
00000018E940001100038EA200000000
0000000028DECA99ABEE930000000000
00000000000246777520000000000000
ENDCHAR
STARTCHAR Odieresis
ENCODING 214
SWIDTH 894 0
DWIDTH 32 0
BBX 31 40 1 -1
BITMAP
000000007CDA2000019DD91000000000
00000009C438E2000CA33AC000000000
0000001F200099005C0000D500000000
0000003D00006B00890000A700000000
0000002E100089006B0000C500000000
0000000AA205E3001E7118D100000000
00000001AFFD400003CFFB2000000000
00000000001000000001100000000000
00000000000000000000000000000000
00000000000246776520000000000000
0000000028DECA99ACEE930000000000
00000018E940000000038E9200000000
000003EA2027BCEECB83019E50000000
00005E504CE96322358DD503E7000000
0004E30AE616ADEEDB725CB12D700000
002E41CA17EB742236AE818D23E40000
00B80BA1BD3000000002BD27D15D0000
04E18C1BB1000000000009D19A0C6000
0B71E27D10000000000000BA1E34E000
2F1891E3000000000000002E37B0D500
6B0D37B00000000000000008A1F19900
A73E0C500000000000000003E0B54C00
C55B0F200000000000000000E3882F00
D4792F000000000000000000C46A1F10
E3882E000000000000000000B56B0F10
D4792E000000000000000000C56A1F10
C56A0F100000000000000000E3882F00
A73D0C400000000000000002F0B64C00
6B0E28900000000000000007A0E28900
2F1982E2000000000000001D46C0D500
0B72E19C000000000000009B0D54E000
04E19A1D90000000000006E27C0C6000
00B81C72DB10000000019E35E25D0000
002E42D819E94100138EB26E43E40000
0004E31BC339DFFFFD942AD22D700000
00005E506DB63112136AE713E7000000
000003EA2159DFFFFEA6119E50000000
00000018E940001100038EA200000000
0000000028DECA99ABEE930000000000
00000000000246777520000000000000
ENDCHAR
STARTCHAR multiply
ENCODING 215
SWIDTH 370 0
DWIDTH 13 0
BBX 11 12 1 1
BITMAP
001000000000
009900049000
141D704E4100
4E4114E41D60
05B04E41D900
0005E41D9000
005E41D90000
05E41D907900
1E41D9021D80
011D903E4130
00490005D100
000000001000
ENDCHAR
STARTCHAR Oslash
ENCODING 216
SWIDTH 894 0
DWIDTH 32 0
BBX 31 31 1 -1
BITMAP
00000000000246776520000400000000
0000000028DFCA99ACFD803E30000000
00000018EA400000001670C70B200000
000003DA2027BCDEDB8308B08B061000
00004E603BE9632235734E24E25E1000
0003E409E616ADEEDA11D51D52E40000
001D51BB17EC7422460AA0AA0B800000
00A90AA1BD400000006D16D17C0A1000
03E17C1BB100000002E42E43E30A8000
0A71E37D100000000C80C81D7253E000
1F18A1E4000000007C07C09B06C0C500
6C0D47B000000003E33E35E231E28900
982E0C500000001D71D71E51D0B64C00
C55B0F200001009B09B0B900E2892F00
D4792F00003E14E25E26D100C46A0F10
E3882E0001D71E51E52E3000B56B0F10
D3891E0009B0B90B90C80000C56A1F10
C47A0F105E26D16D10500000E3882E00
A64C0C41E52E32E300000002F1B64C00
791F150B90C80C8000000007B1E19900
3E0B706D18C08C000000001D56C0D400
0D4472E33E24E2000000009B0D44D000
07B00C81D61D6000000006E28B0C6000
01D18C09A0AB000000009E35E25D0000
0014E25E15E12100138DB26E33E30000
001D62E42E40BFFFFD942AD22D600000
00AA0B90B9052112136AE714E7000000
00817D17D13ADFFFFEA6119E50000000
0000D33E3451001100038E9200000000
000001D707DFCB99ABEE930000000000
00000060000246777520000000000000
ENDCHAR
STARTCHAR Ugrave
ENCODING 217
SWIDTH 702 0
DWIDTH 25 0
BBX 23 41 1 -1
BITMAP
000007317100000000000000
000007C0B800000000000000
000000D52E20000000000000
0000005D18B0000000000000
0000000B81E4000000000000
00000003E26D000000000000
000000009A0C700000000000
000000001E43E10000000000
000000000000000000000000
000000000000000000000000
000000000000000000000000
3D0C4790000000005B0F1970
3D0C4790000000005B0F1970
3D0C4790000000005B0F1970
3D0C4790000000005B0F1970
3D0C4790000000005B0F1970
3D0C4790000000005B0F1970
3D0C4790000000005B0F1970
3D0C4790000000005B0F1970
3D0C4790000000005B0F1970
3D0C4790000000005B0F1970
3D0C4790000000005B0F1970
3D0C4790000000005B0F1970
3D0C4790000000005B0F1970
3D0C4790000000005B0F1970
3D0C4790000000005B0F1970
3D0C4790000000005B0F1970
3D0C4790000000005B0F1970
3D0C4790000000005B0F1970
3D0C4790000000005B0F1970
2E0B56A0000000006A1F0A60
1F1974C000000000983D0C50
0D45C0E300000000D3890E20
0891E37C10000008B1D45C00
02E16D1AC51003AD29A0C600
00AB0AC26CFFFD819D17D100
001D708E9311127DB14E4000
0003E9039EFFFEB506E60000
00002CD510121004BE400000
0000006CECA99BED81000000
000000002577753000000000
ENDCHAR
STARTCHAR Uacute
ENCODING 218
SWIDTH 702 0
DWIDTH 25 0
BBX 23 41 1 -1
BITMAP
000000000000007227000000
00000000000007C0A9000000
0000000000001E34E1000000
0000000000009A0D60000000
000000000003E27C00000000
00000000000C71E400000000
00000000005D09A000000000
0000000001D53E2000000000
000000000000000000000000
000000000000000000000000
000000000000000000000000
3D0C4790000000005B0F1970
3D0C4790000000005B0F1970
3D0C4790000000005B0F1970
3D0C4790000000005B0F1970
3D0C4790000000005B0F1970
3D0C4790000000005B0F1970
3D0C4790000000005B0F1970
3D0C4790000000005B0F1970
3D0C4790000000005B0F1970
3D0C4790000000005B0F1970
3D0C4790000000005B0F1970
3D0C4790000000005B0F1970
3D0C4790000000005B0F1970
3D0C4790000000005B0F1970
3D0C4790000000005B0F1970
3D0C4790000000005B0F1970
3D0C4790000000005B0F1970
3D0C4790000000005B0F1970
3D0C4790000000005B0F1970
2E0B56A0000000006A1F0A60
1F1974C000000000983D0C50
0D45C0E300000000D3890E20
0891E37C10000008B1D45C00
02E16D1AC51003AD29A0C600
00AB0AC26CFFFD819D17D100
001D708E9311127DB14E4000
0003E9039EFFFEB506E60000
00002CD510121004BE400000
0000006CECA99BED81000000
000000002577753000000000
ENDCHAR
STARTCHAR Ucircumflex
ENCODING 219
SWIDTH 702 0
DWIDTH 25 0
BBX 23 41 1 -1
BITMAP
000000002712710000000000
00000000B90B901000000000
00000007D17D15B000000000
0000003E34E311D700000000
000001D71D60C33E30000000
00000AB0AB006D16D1000000
00006E16D1000AA0AA000000
0002E42E400001D61D600000
000000000000000000000000
000000000000000000000000
000000000000000000000000
3D0C4790000000005B0F1970
3D0C4790000000005B0F1970
3D0C4790000000005B0F1970
3D0C4790000000005B0F1970
3D0C4790000000005B0F1970
3D0C4790000000005B0F1970
3D0C4790000000005B0F1970
3D0C4790000000005B0F1970
3D0C4790000000005B0F1970
3D0C4790000000005B0F1970
3D0C4790000000005B0F1970
3D0C4790000000005B0F1970
3D0C4790000000005B0F1970
3D0C4790000000005B0F1970
3D0C4790000000005B0F1970
3D0C4790000000005B0F1970
3D0C4790000000005B0F1970
3D0C4790000000005B0F1970
3D0C4790000000005B0F1970
2E0B56A0000000006A1F0A60
1F1974C000000000983D0C50
0D45C0E300000000D3890E20
0891E37C10000008B1D45C00
02E16D1AC51003AD29A0C600
00AB0AC26CFFFD819D17D100
001D708E9311127DB14E4000
0003E9039EFFFEB506E60000
00002CD510121004BE400000
0000006CECA99BED81000000
000000002577753000000000
ENDCHAR
STARTCHAR Udieresis
ENCODING 220
SWIDTH 702 0
DWIDTH 25 0
BBX 23 40 1 -1
BITMAP
00002ADC7000004CEC500000
0001E834CA0005E636E60000
000890001E200C50005D0000
000A60000C400E20002F0000
000880001E300D40004E0000
0003E501AB0006D303D70000
00004DFFA100007EFE700000
000000100000000010000000
000000000000000000000000
000000000000000000000000
3D0C4790000000005B0F1970
3D0C4790000000005B0F1970
3D0C4790000000005B0F1970
3D0C4790000000005B0F1970
3D0C4790000000005B0F1970
3D0C4790000000005B0F1970
3D0C4790000000005B0F1970
3D0C4790000000005B0F1970
3D0C4790000000005B0F1970
3D0C4790000000005B0F1970
3D0C4790000000005B0F1970
3D0C4790000000005B0F1970
3D0C4790000000005B0F1970
3D0C4790000000005B0F1970
3D0C4790000000005B0F1970
3D0C4790000000005B0F1970
3D0C4790000000005B0F1970
3D0C4790000000005B0F1970
3D0C4790000000005B0F1970
2E0B56A0000000006A1F0A60
1F1974C000000000983D0C50
0D45C0E300000000D3890E20
0891E37C10000008B1D45C00
02E16D1AC51003AD29A0C600
00AB0AC26CFFFD819D17D100
001D708E9311127DB14E4000
0003E9039EFFFEB506E60000
00002CD510121004BE400000
0000006CECA99BED81000000
000000002577753000000000
ENDCHAR
STARTCHAR Yacute
ENCODING 221
SWIDTH 769 0
DWIDTH 28 0
BBX 28 40 0 0
BITMAP
0000000000000001712700000000
0000000000000008B0B800000000
000000000000002E35D100000000
00000000000000A91D5000000000
00000000000004E17B0000000000
0000000000000C62E30000000000
0000000000006C0A900000000000
000000000001E44E100000000000
0000000000000000000000000000
0000000000000000000000000000
0000000000000000000000000000
4E17C09B000000000001E52E34E1
0AA0C81D50000000000AA0C81D50
01E52E34E1000000005E17C09A00
005E17C0AA00000001E52E34E200
000A90C71E5000000AA0B81D6000
0001E43E25E100005E16D19B0000
00006D18B0A90001E52E44E20000
00000B90D61E400AB0B90D700000
000002E33E26D13E26D18C000000
0000006D08B0B9042E43E2000000
0000000B81D62E40A90C70000000
00000002E34E16D1718C00000000
000000007C09A0C803E300000000
000000000C71D52E348000000000
0000000003E24E17C00000000000
0000000000330420510000000000
0000000000050422400000000000
00000000001F0A64C00000000000
00000000001F0A64C00000000000
00000000001F0A64C00000000000
00000000001F0A64C00000000000
00000000001F0A64C00000000000
00000000001F0A64C00000000000
00000000001F0A64C00000000000
00000000001F0A64C00000000000
00000000001F0A64C00000000000
00000000001F0A64C00000000000
00000000001F0A64C00000000000
00000000001F0A64C00000000000
ENDCHAR
STARTCHAR Thorn
ENCODING 222
SWIDTH 743 0
DWIDTH 27 0
BBX 25 29 1 0
BITMAP
3D0C4790000000000000000000
3D0C4790000000000000000000
3D0C4790000000000000000000
3D0C4790000000000000000000
3D0C4790000000000000000000
3D0C4791EEEEEEEEEDA6100000
3D0C479022222222246CD40000
3D0C47900000000000005E6000
3D0C4791EEEEEEEEEC9203E400
3D0C479022222222248E606D00
3D0C4791EEEEEEEEEC52E50D50
3D0C47902222222225D74D0890
3D0C479000000000004E0D45C0
3D0C479000000000000F1A64C0
3D0C479000000000003E0A65C0
3D0C47900000000003C90C47A0
3D0C4791EEEEEEEEFE803E1C60
3D0C4790222222221001C74E10
3D0C479000000000016D91D500
3D0C4791EEEEEEEEFFB53D8000
3D0C4790222222222149E60000
3D0C4791EEEEEEEEFFD9200000
3D0C4790222222222100000000
3D0C4790000000000000000000
3D0C4790000000000000000000
3D0C4790000000000000000000
3D0C4790000000000000000000
3D0C4790000000000000000000
3D0C4790000000000000000000
ENDCHAR
STARTCHAR germandbls
ENCODING 223
SWIDTH 424 0
DWIDTH 15 0
BBX 14 15 1 0
BITMAP
005CFFFFEB4000
08E6211127E500
2E200000005E10
7A07EEEED50D40
881F42225E0B60
883D00002E0B50
883D00BEFE9E20
883D0012249F30
883D00BEEC28B0
883D001229A1F1
883D000007A0F2
883D05EEEE41F1
883D01222008B0
883D0011138E30
883D06FFFEA200
ENDCHAR
STARTCHAR agrave
ENCODING 224
SWIDTH 414 0
DWIDTH 15 0
BBX 15 21 0 0
BITMAP
0000073000000000
000007C000000000
000000C600000000
0000004E10000000
0000000000000000
0000000000000000
00000991F7000000
00000E46FC000000
00004D0B8F200000
0000981F2A800000
0000E37F45D00000
0005D0CEA0E30000
000A72F5E1980000
001E27C0D54E0000
006C0D608B0D4000
00B73F103F189000
01F18FEEEF63E000
06B0D62227C0D500
0C64FEEEEEF27A00
2F19822222A72E10
7A0E3000004D0C60
ENDCHAR
STARTCHAR aacute
ENCODING 225
SWIDTH 414 0
DWIDTH 15 0
BBX 15 21 0 0
BITMAP
0000000004500000
000000001E300000
00000000A9000000
00000004E1000000
0000000000000000
0000000000000000
00000991F7000000
00000E46FC000000
00004D0B8F200000
0000981F2A800000
0000E37F45D00000
0005D0CEA0E30000
000A72F5E1980000
001E27C0D54E0000
006C0D608B0D4000
00B73F103F189000
01F18FEEEF63E000
06B0D62227C0D500
0C64FEEEEEF27A00
2F19822222A72E10
7A0E3000004D0C60
ENDCHAR
STARTCHAR acircumflex
ENCODING 226
SWIDTH 414 0
DWIDTH 15 0
BBX 15 21 0 0
BITMAP
0000004600000000
000003E320000000
00002E50A9000000
0001C8001D700000
0000000000000000
0000000000000000
00000991F7000000
00000E46FC000000
00004D0B8F200000
0000981F2A800000
0000E37F45D00000
0005D0CEA0E30000
000A72F5E1980000
001E27C0D54E0000
006C0D608B0D4000
00B73F103F189000
01F18FEEEF63E000
06B0D62227C0D500
0C64FEEEEEF27A00
2F19822222A72E10
7A0E3000004D0C60
ENDCHAR
STARTCHAR atilde
ENCODING 227
SWIDTH 414 0
DWIDTH 15 0
BBX 15 19 0 0
BITMAP
00019ED820770000
0006A239FFD20000
0000000001000000
0000000000000000
00000991F7000000
00000E46FC000000
00004D0B8F200000
0000981F2A800000
0000E37F45D00000
0005D0CEA0E30000
000A72F5E1980000
001E27C0D54E0000
006C0D608B0D4000
00B73F103F189000
01F18FEEEF63E000
06B0D62227C0D500
0C64FEEEEEF27A00
2F19822222A72E10
7A0E3000004D0C60
ENDCHAR
STARTCHAR adieresis
ENCODING 228
SWIDTH 414 0
DWIDTH 15 0
BBX 15 21 0 0
BITMAP
0000020001000000
00009F705FB00000
00008E503EA00000
0000000000000000
0000000000000000
0000000000000000
00000991F7000000
00000E46FC000000
00004D0B8F200000
0000981F2A800000
0000E37F45D00000
0005D0CEA0E30000
000A72F5E1980000
001E27C0D54E0000
006C0D608B0D4000
00B73F103F189000
01F18FEEEF63E000
06B0D62227C0D500
0C64FEEEEEF27A00
2F19822222A72E10
7A0E3000004D0C60
ENDCHAR
STARTCHAR aring
ENCODING 229
SWIDTH 414 0
DWIDTH 15 0
BBX 15 21 0 0
BITMAP
0000009EB1000000
000005B397000000
000005A078000000
000001CFD2000000
0000000100000000
0000000000000000
00000991F7000000
00000E46FC000000
00004D0B8F200000
0000981F2A800000
0000E37F45D00000
0005D0CEA0E30000
000A72F5E1980000
001E27C0D54E0000
006C0D608B0D4000
00B73F103F189000
01F18FEEEF63E000
06B0D62227C0D500
0C64FEEEEEF27A00
2F19822222A72E10
7A0E3000004D0C60
ENDCHAR
STARTCHAR ae
ENCODING 230
SWIDTH 593 0
DWIDTH 21 0
BBX 21 15 0 0
BITMAP
00000002E25FFFFFFFFFB0
0000000A80DF4111111110
0000002E16DC4000000000
000000A80D7AFEEEEEEEA0
000003E17F288222222210
00000B71EF379000000000
00003E17CB55FEEEEEE800
0000B71E4974D222222100
0004E18A0882FEEEEEE800
000C61E206A0F322222100
005D097004C0E300000000
00C62FEEEED0CFEEEEEEA0
05D0A72222F0A822222210
0D52E00000E29911111110
6C0A800000D47FFFFFFFB0
ENDCHAR
STARTCHAR ccedilla
ENCODING 231
SWIDTH 446 0
DWIDTH 16 0
BBX 14 22 1 -7
BITMAP
000039CEED9300
001AE842248EA1
01D916CEDA419A
0B91CB5236D900
4D0C8000001500
A74D0000000000
D4790000000000
E3790000000000
D45C0000000000
A70D6000000200
4D03E92003BC00
0B9029EFFD8149
01D910011004E5
001AD84225AE40
000049FFEC7100
000000C7000000
000007FDD60000
000006834E2000
000000000C4000
000017104E2000
00002AFFE50000
00000001000000
ENDCHAR
STARTCHAR egrave
ENCODING 232
SWIDTH 363 0
DWIDTH 13 0
BBX 12 21 1 0
BITMAP
000171000000
0000A9000000
00002E300000
000007C00000
000000000000
000000000000
883FFFFFFFF6
883E11111110
883D00000000
883FEEEEEEE6
883E22222221
883D00000000
883FEEEEEE40
883E22222200
883FEEEEEE40
883E22222200
883D00000000
883FEEEEEEE6
883E22222221
883E11111110
883FFFFFFFF6
ENDCHAR
STARTCHAR eacute
ENCODING 233
SWIDTH 363 0
DWIDTH 13 0
BBX 12 21 1 0
BITMAP
000000006400
00000003E100
0000000C6000
0000007C0000
000000000000
000000000000
883FFFFFFFF6
883E11111110
883D00000000
883FEEEEEEE6
883E22222221
883D00000000
883FEEEEEE40
883E22222200
883FEEEEEE40
883E22222200
883D00000000
883FEEEEEEE6
883E22222221
883E11111110
883FFFFFFFF6
ENDCHAR
STARTCHAR ecircumflex
ENCODING 234
SWIDTH 363 0
DWIDTH 13 0
BBX 12 21 1 0
BITMAP
000005500000
00005E220000
0003E40B8000
001D6002E500
000000000000
000000000000
883FFFFFFFF6
883E11111110
883D00000000
883FEEEEEEE6
883E22222221
883D00000000
883FEEEEEE40
883E22222200
883FEEEEEE40
883E22222200
883D00000000
883FEEEEEEE6
883E22222221
883E11111110
883FFFFFFFF6
ENDCHAR
STARTCHAR edieresis
ENCODING 235
SWIDTH 363 0
DWIDTH 13 0
BBX 12 21 1 0
BITMAP
000010002000
000BF506FA00
0009E405E800
000000000000
000000000000
000000000000
883FFFFFFFF6
883E11111110
883D00000000
883FEEEEEEE6
883E22222221
883D00000000
883FEEEEEE40
883E22222200
883FEEEEEE40
883E22222200
883D00000000
883FEEEEEEE6
883E22222221
883E11111110
883FFFFFFFF6
ENDCHAR
STARTCHAR igrave
ENCODING 236
SWIDTH 176 0
DWIDTH 6 0
BBX 5 21 0 0
BITMAP
360000
1E4000
06D000
00B800
000000
000000
0883D0
0883D0
0883D0
0883D0
0883D0
0883D0
0883D0
0883D0
0883D0
0883D0
0883D0
0883D0
0883D0
0883D0
0883D0
ENDCHAR
STARTCHAR iacute
ENCODING 237
SWIDTH 176 0
DWIDTH 6 0
BBX 6 21 1 0
BITMAP
000171
0008B0
003E20
00C700
000000
000000
883D00
883D00
883D00
883D00
883D00
883D00
883D00
883D00
883D00
883D00
883D00
883D00
883D00
883D00
883D00
ENDCHAR
STARTCHAR icircumflex
ENCODING 238
SWIDTH 176 0
DWIDTH 6 0
BBX 8 21 -1 0
BITMAP
00073000
009B0300
07D12E30
4E2006E2
00000000
00000000
00883D00
00883D00
00883D00
00883D00
00883D00
00883D00
00883D00
00883D00
00883D00
00883D00
00883D00
00883D00
00883D00
00883D00
00883D00
ENDCHAR
STARTCHAR idieresis
ENCODING 239
SWIDTH 176 0
DWIDTH 6 0
BBX 8 21 -1 0
BITMAP
01100010
1EE10BF5
1DD109E4
00000000
00000000
00000000
00883D00
00883D00
00883D00
00883D00
00883D00
00883D00
00883D00
00883D00
00883D00
00883D00
00883D00
00883D00
00883D00
00883D00
00883D00
ENDCHAR
STARTCHAR eth
ENCODING 240
SWIDTH 455 0
DWIDTH 16 0
BBX 16 15 0 0
BITMAP
06B0FFFFDC710000
06B0F21135BE5000
06B0F1000004D600
06B0FEEEDA403E30
06B0F32247E907A0
00000000001D61F1
000000000005C0E3
CEEEEED00003D0C4
222222200004C0E3
06B0F100000B71F1
06B0F10015CB07A0
06B0FEEFFD703E30
06B0F3221004D600
06B0F21135AE5000
06B0FFFFEC710000
ENDCHAR
STARTCHAR ntilde
ENCODING 241
SWIDTH 444 0
DWIDTH 16 0
BBX 14 19 1 0
BITMAP
0005DEA402B000
001D416DFE6000
00000000100000
00000000000000
883F400000E388
883FD10000E388
883EB90000E388
883D2E5000E388
883E26E100E388
883FB0AA00E388
883ED71D60E388
883D3E34E2E388
883D07C09BE388
883D00B81DF388
883D002E43F388
883D0005D1E388
883D0000AAE388
883D00001DF388
883D000004F388
ENDCHAR
STARTCHAR ograve
ENCODING 242
SWIDTH 494 0
DWIDTH 18 0
BBX 16 21 1 0
BITMAP
0000064000000000
000004E100000000
000000A900000000
0000001E30000000
0000000000000000
0000000000000000
000039CEEC820000
001AE842249E8000
01D916CEDB52CA00
0B91CB5236DA1C70
4D0C8000001B82E1
A74D00000002E1B6
D47900000000C489
E37900000000C46A
D45C00000001E289
A70D60000009A0B6
4D03E92003BC12E1
0B9029EFFD811C70
01D910011002CA00
001AD842249E8000
000049DEEC820000
ENDCHAR
STARTCHAR oacute
ENCODING 243
SWIDTH 494 0
DWIDTH 18 0
BBX 16 21 1 0
BITMAP
0000000005400000
000000003E200000
00000000C7000000
00000006D0000000
0000000000000000
0000000000000000
000039CEEC820000
001AE842249E8000
01D916CEDB52CA00
0B91CB5236DA1C70
4D0C8000001B82E1
A74D00000002E1B6
D47900000000C489
E37900000000C46A
D45C00000001E289
A70D60000009A0B6
4D03E92003BC12E1
0B9029EFFD811C70
01D910011002CA00
001AD842249E8000
000049DEEC820000
ENDCHAR
STARTCHAR ocircumflex
ENCODING 244
SWIDTH 494 0
DWIDTH 18 0
BBX 16 21 1 0
BITMAP
0000002710000000
000001D712000000
00000BA05D100000
00008C000AB00000
0000000000000000
0000000000000000
000039CEEC820000
001AE842249E8000
01D916CEDB52CA00
0B91CB5236DA1C70
4D0C8000001B82E1
A74D00000002E1B6
D47900000000C489
E37900000000C46A
D45C00000001E289
A70D60000009A0B6
4D03E92003BC12E1
0B9029EFFD811C70
01D910011002CA00
001AD842249E8000
000049DEEC820000
ENDCHAR
STARTCHAR otilde
ENCODING 245
SWIDTH 494 0
DWIDTH 18 0
BBX 16 19 1 0
BITMAP
00006DEA304A0000
0002D327EFE50000
0000000001000000
0000000000000000
000039CEEC820000
001AE842249E8000
01D916CEDB52CA00
0B91CB5236DA1C70
4D0C8000001B82E1
A74D00000002E1B6
D47900000000C489
E37900000000C46A
D45C00000001E289
A70D60000009A0B6
4D03E92003BC12E1
0B9029EFFD811C70
01D910011002CA00
001AD842249E8000
000049DEEC820000
ENDCHAR
STARTCHAR odieresis
ENCODING 246
SWIDTH 494 0
DWIDTH 18 0
BBX 16 21 1 0
BITMAP
0000010001100000
00005FB01EE20000
00004E901CD10000
0000000000000000
0000000000000000
0000000000000000
000039CEEC820000
001AE842249E8000
01D916CEDB52CA00
0B91CB5236DA1C70
4D0C8000001B82E1
A74D00000002E1B6
D47900000000C489
E37900000000C46A
D45C00000001E289
A70D60000009A0B6
4D03E92003BC12E1
0B9029EFFD811C70
01D910011002CA00
001AD842249E8000
000049DEEC820000
ENDCHAR
STARTCHAR divide
ENCODING 247
SWIDTH 418 0
DWIDTH 15 0
BBX 13 14 1 0
BITMAP
000006D8000000
00000E3D200000
00000E1C300000
000008FA000000
00000010000000
8EEEEEEEEEEE90
12222222222210
8EEEEEEEEEEE90
12222222222210
00000000000000
000008EA000000
00001E3D300000
00000AFC000000
00000010000000
ENDCHAR
STARTCHAR oslash
ENCODING 248
SWIDTH 494 0
DWIDTH 18 0
BBX 16 15 1 0
BITMAP
00004ADEEC810A40
002BD84223509C10
02E816CED507D110
0C81CB52306E25A0
6C0C800004E422F2
B64D00003E51E1A7
D4790002E700C47A
D379001D9000C46A
C54B00BA0001E289
7A030AC00009A0C6
1E108D1003BC13E1
0106E2AFFD811D60
005E30011002CA00
03E43A42249E7000
056039DEFD920000
ENDCHAR
STARTCHAR ugrave
ENCODING 249
SWIDTH 400 0
DWIDTH 14 0
BBX 12 21 1 0
BITMAP
000360000000
0001E4000000
00005D100000
00000B800000
000000000000
000000000000
883D0000892E
883D0000892E
883D0000892E
883D0000892E
883D0000892E
883D0000892E
883D0000892E
883D0000892E
883D0000892E
881F1000972E
6A0BA105E24C
2E11AFFD40A7
09B0001005D1
01BD6224AE30
0006BEED8100
ENDCHAR
STARTCHAR uacute
ENCODING 250
SWIDTH 400 0
DWIDTH 14 0
BBX 12 21 1 0
BITMAP
000000036000
0000000D6000
0000007C0000
000002E30000
000000000000
000000000000
883D0000892E
883D0000892E
883D0000892E
883D0000892E
883D0000892E
883D0000892E
883D0000892E
883D0000892E
883D0000892E
881F1000972E
6A0BA105E24C
2E11AFFD40A7
09B0001005D1
01BD6224AE30
0006BEED8100
ENDCHAR
STARTCHAR ucircumflex
ENCODING 251
SWIDTH 400 0
DWIDTH 14 0
BBX 12 21 1 0
BITMAP
000007300000
00009B030000
0006D11E4000
004E3005E200
000000000000
000000000000
883D0000892E
883D0000892E
883D0000892E
883D0000892E
883D0000892E
883D0000892E
883D0000892E
883D0000892E
883D0000892E
881F1000972E
6A0BA105E24C
2E11AFFD40A7
09B0001005D1
01BD6224AE30
0006BEED8100
ENDCHAR
STARTCHAR udieresis
ENCODING 252
SWIDTH 400 0
DWIDTH 14 0
BBX 12 21 1 0
BITMAP
000110001000
001EE20AF600
001DD109E400
000000000000
000000000000
000000000000
883D0000892E
883D0000892E
883D0000892E
883D0000892E
883D0000892E
883D0000892E
883D0000892E
883D0000892E
883D0000892E
881F1000972E
6A0BA105E24C
2E11AFFD40A7
09B0001005D1
01BD6224AE30
0006BEED8100
ENDCHAR
STARTCHAR yacute
ENCODING 253
SWIDTH 422 0
DWIDTH 15 0
BBX 15 21 0 0
BITMAP
0000000007200000
000000007C000000
00000002E3000000
0000000B80000000
0000000000000000
0000000000000000
5E16D10000B90C80
0AA0C80005E17D00
02E42E301E52E400
006D18C09B0B9000
000C80DAF25E1000
0003E34F81E50000
00008C09A9B00000
00001D61EE200000
0000011011000000
000002E0B5000000
000002E0B5000000
000002E0B5000000
000002E0B5000000
000002E0B5000000
000002E0B5000000
ENDCHAR
STARTCHAR thorn
ENCODING 254
SWIDTH 412 0
DWIDTH 15 0
BBX 13 15 1 0
BITMAP
883D0000000000
883D0000000000
883D0000000000
883FEEEEEC7000
883E222225DA00
883FEEEEE91D50
883E22223D4890
883D00001D46B0
883FEEEEFB07A0
883E2222100C60
883D000003BC00
883FEEEEFE9100
883E2222200000
883D0000000000
883D0000000000
ENDCHAR
STARTCHAR ydieresis
ENCODING 255
SWIDTH 422 0
DWIDTH 15 0
BBX 15 21 0 0
BITMAP
0000020001000000
00009F705FB00000
00008E503EA00000
0000000000000000
0000000000000000
0000000000000000
5E16D10000B90C80
0AA0C80005E17D00
02E42E301E52E400
006D18C09B0B9000
000C80DAF25E1000
0003E34F81E50000
00008C09A9B00000
00001D61EE200000
0000011011000000
000002E0B5000000
000002E0B5000000
000002E0B5000000
000002E0B5000000
000002E0B5000000
000002E0B5000000
ENDCHAR
STARTCHAR Edotaccent
ENCODING 278
SWIDTH 677 0
DWIDTH 24 0
BBX 23 34 1 0
BITMAP
000000000003DD3000000000
000000000008FF8000000000
000000000003DD3000000000
000000000000000000000000
000000000000000000000000
3D0C4791FFFFFFFFFFFFFF40
3D0C47901111111111111100
3D0C4791EEEEEEEEEEEEEE40
3D0C47902222222222222210
3D0C4791EEEEEEEEEEEEEE40
3D0C47902222222222222210
3D0C47900000000000000000
3D0C47900000000000000000
3D0C47900000000000000000
3D0C47900000000000000000
3D0C47900000000000000000
3D0C4791EEEEEEEEEEEE3000
3D0C47902222222222220000
3D0C47900000000000000000
3D0C4791EEEEEEEEEEEE3000
3D0C47902222222222220000
3D0C4791EEEEEEEEEEEE3000
3D0C47902222222222220000
3D0C47900000000000000000
3D0C47900000000000000000
3D0C47900000000000000000
3D0C47900000000000000000
3D0C47900000000000000000
3D0C4791EEEEEEEEEEEEEE40
3D0C47902222222222222210
3D0C4791EEEEEEEEEEEEEE40
3D0C47902222222222222210
3D0C47901111111111111100
3D0C4791FFFFFFFFFFFFFF40
ENDCHAR
STARTCHAR edotaccent
ENCODING 279
SWIDTH 363 0
DWIDTH 13 0
BBX 12 20 1 0
BITMAP
000009E90000
00001FFF0000
000009E90000
000000000000
000000000000
883FFFFFFFF6
883E11111110
883D00000000
883FEEEEEEE6
883E22222221
883D00000000
883FEEEEEE40
883E22222200
883FEEEEEE40
883E22222200
883D00000000
883FEEEEEEE6
883E22222221
883E11111110
883FFFFFFFF6
ENDCHAR
STARTCHAR dotlessi
ENCODING 305
SWIDTH 176 0
DWIDTH 6 0
BBX 4 15 1 0
BITMAP
883D
883D
883D
883D
883D
883D
883D
883D
883D
883D
883D
883D
883D
883D
883D
ENDCHAR
STARTCHAR OE
ENCODING 338
SWIDTH 1221 0
DWIDTH 44 0
BBX 42 29 1 0
BITMAP
000000000169CEFFFFF100000008FFFFFFFFFFFFFD
000000029FC8532111100000000111111111111111
0000008E9238BDEEEEE100000007EEEEEEEEEEEEED
00002CB25CE9632222200000000122222222222222
0002D91BD516ADEEEEE100000007EEEEEEEEEEEEED
001C92D917EB742222200000000122222222222222
009B1D81BC30000000000000000000000000000000
03E2AA0CA000000000000000000000000000000000
0A84E18C0000000000000000000000000000000000
2F1B72E20000000000000000000000000000000000
6B1F28900000000000000000000000000000000000
A84D0D4000000000000000000007EEEEEEEEEEEC00
C57A0F200000000000000000000122222222222200
D4891F000000000000000000000000000000000000
E3892F0000000000000000000007EEEEEEEEEEEC00
D47A1F100000000000000000000122222222222200
C55C0D4000000000000000000007EEEEEEEEEEEC00
A82F19800000000000000000000122222222222200
6B0C64E10000000000000000000000000000000000
2F15D0AA0000000000000000000000000000000000
0B80C81D7000000000000000000000000000000000
03E22E63DA10000000000000000000000000000000
009B04E71AE8410000000000000000000000000000
001C903DB339DFFEEEE100000007EEEEEEEEEEEEED
0002E8018EB6311222200000000122222222222222
00002CB2016BDFFEEEE100000007EEEEEEEEEEEEED
0000019E9200011222200000000122222222222222
00000002AFC8432111100000000111111111111111
00000000016ACEFFFFF100000008FFFFFFFFFFFFFD
ENDCHAR
STARTCHAR oe
ENCODING 339
SWIDTH 637 0
DWIDTH 23 0
BBX 22 15 1 0
BITMAP
00005ADFFF4004FFFFFFF4
002CD73211000011111110
02E8000000000000000000
0C8029CEEE4003EEEEEEE4
4D04EA5322000022222221
A71E400000000000000000
C46B0000000003EEEEEE20
D389000000000022222200
C47A0000000003EEEEEE20
A72E300000000022222200
4D06E72000000000000000
0C804BFFEE4003EEEEEEE4
02E7000222000022222221
002CD73211000011111110
00004ADFFF4004FFFFFFF4
ENDCHAR
STARTCHAR Wcircumflex
ENCODING 372
SWIDTH 972 0
DWIDTH 35 0
BBX 35 40 0 0
BITMAP
000000000000003703700000000000000000
00000000000001D71D710000000000000000
00000000000009B0AB079000000000000000
0000000000005E25E111E500000000000000
000000000002E52E41D24E20000000000000
00000000000C90C8008C09C0000000000000
00000000008C08C0000C80C8000000000000
0000000004E24E200002E42E400000000000
000000000000000000000000000000000000
000000000000000000000000000000000000
000000000000000000000000000000000000
2E0B64D00000000D46B0E2000000D46B0E20
0E37A1F20000002F0A73E0000002F0A73D00
0A73E0C50000005B0E37A0000005B0E37A00
06B0E289000000972E0B6000000973E0B600
02E0B64D000000D46A0E2000000D46B0E200
00E37A1F200002E0A73D0000002E0A73D000
00A73E0B500005B0E37A0500006B0E37A000
006B0E2890000972E0B6390000972E0B6000
002E0B64D0000D36A0E24D0000D36B0E2000
000E37A1F2002E0A64D01F2002E0A73D0000
000A73E0B5005B0E37A00C6006B0E3790000
0006B0E38900973E0B6338900972E0B60000
0002E0B64D00D36A0F2774D00D36B0E20000
0000E37A0F22E0A64D06B1F22E0A74D00000
0000A73E0B53B0E37A02E0B63B0E37900000
00006B0E389173E0B610D389062E0B600000
00002E0A64D016A0F271A74D016B0E200000
00000D37A0F20A64D0B46B0F20A74D000000
00000A73E0B60E28A0982E0B60E379000000
000006B0E3791E0B605C0D37A0D0B6000000
000002E0A64D071F201F1974D060E2000000
000000D37A0F214D000D46B0E204D0000000
000000A73E0B608A000982E0B60790000000
0000006B0E3790C60005C0D37A0B50000000
0000002E0A64D0C20001F1973D0B20000000
0000000D37A0E2600000C46B0E2500000000
0000000A73E0B6000000982E0B6000000000
00000006B0E3790000005C0D47A000000000
00000002E0A74D0000001F1973E000000000
ENDCHAR
STARTCHAR wcircumflex
ENCODING 373
SWIDTH 521 0
DWIDTH 19 0
BBX 19 21 0 0
BITMAP
00000000640000000000
00000006D13000000000
0000004E30D600000000
000002E5003E40000000
00000000000000000000
00000000000000000000
891F1002E0A7005C0D40
4D0C4006B0E300892F00
0F28800A73F600C55B00
0B54C00E37F901F19700
0791F12E0BAD05C0D400
04D0C56B0E3E2982E000
00E288A73F0A6D46B000
00B64CE37F37BF1A7000
007A1FE0BF73FC0E3000
003D0CA0F8B0E82E0000
000E2894D2E0A76B0000
000B64D890E36AA70000
0007A1FD60A73EE30000
0003E0BF206B0EE00000
0000E38D002F0AB00000
ENDCHAR
STARTCHAR Ycircumflex
ENCODING 374
SWIDTH 769 0
DWIDTH 28 0
BBX 28 40 0 0
BITMAP
0000000000073073000000000000
00000000008C08C0100000000000
0000000004E24E22D10000000000
000000001E61E610AA0000000000
00000000BA0BA0961D6000000000
00000007D17D103E33E300000000
0000003E33E30007D17D10000000
000001D71D700000BA0B90000000
0000000000000000000000000000
0000000000000000000000000000
0000000000000000000000000000
4E17C09B000000000001E52E34E1
0AA0C81D50000000000AA0C81D50
01E52E34E1000000005E17C09A00
005E17C0AA00000001E52E34E200
000A90C71E5000000AA0B81D6000
0001E43E25E100005E16D19B0000
00006D18B0A90001E52E44E20000
00000B90D61E400AB0B90D700000
000002E33E26D13E26D18C000000
0000006D08B0B9042E43E2000000
0000000B81D62E40A90C70000000
00000002E34E16D1718C00000000
000000007C09A0C803E300000000
000000000C71D52E348000000000
0000000003E24E17C00000000000
0000000000330420510000000000
0000000000050422400000000000
00000000001F0A64C00000000000
00000000001F0A64C00000000000
00000000001F0A64C00000000000
00000000001F0A64C00000000000
00000000001F0A64C00000000000
00000000001F0A64C00000000000
00000000001F0A64C00000000000
00000000001F0A64C00000000000
00000000001F0A64C00000000000
00000000001F0A64C00000000000
00000000001F0A64C00000000000
00000000001F0A64C00000000000
ENDCHAR
STARTCHAR ycircumflex
ENCODING 375
SWIDTH 422 0
DWIDTH 15 0
BBX 15 21 0 0
BITMAP
0000004600000000
000003E320000000
00002E50A9000000
0001C8001D700000
0000000000000000
0000000000000000
5E16D10000B90C80
0AA0C80005E17D00
02E42E301E52E400
006D18C09B0B9000
000C80DAF25E1000
0003E34F81E50000
00008C09A9B00000
00001D61EE200000
0000011011000000
000002E0B5000000
000002E0B5000000
000002E0B5000000
000002E0B5000000
000002E0B5000000
000002E0B5000000
ENDCHAR
STARTCHAR Ydieresis
ENCODING 376
SWIDTH 769 0
DWIDTH 28 0
BBX 28 39 0 0
BITMAP
00000019DD9100003BDC70000000
000000CA33AC0002E734C9000000
000005D0000C500980002F100000
000007900009700B50000D300000
000005C0000C600970001F200000
000001D8118E1003E502BB000000
0000002BFFB200005DFF91000000
0000000011000000001000000000
0000000000000000000000000000
0000000000000000000000000000
4E17C09B000000000001E52E34E1
0AA0C81D50000000000AA0C81D50
01E52E34E1000000005E17C09A00
005E17C0AA00000001E52E34E200
000A90C71E5000000AA0B81D6000
0001E43E25E100005E16D19B0000
00006D18B0A90001E52E44E20000
00000B90D61E400AB0B90D700000
000002E33E26D13E26D18C000000
0000006D08B0B9042E43E2000000
0000000B81D62E40A90C70000000
00000002E34E16D1718C00000000
000000007C09A0C803E300000000
000000000C71D52E348000000000
0000000003E24E17C00000000000
0000000000330420510000000000
0000000000050422400000000000
00000000001F0A64C00000000000
00000000001F0A64C00000000000
00000000001F0A64C00000000000
00000000001F0A64C00000000000
00000000001F0A64C00000000000
00000000001F0A64C00000000000
00000000001F0A64C00000000000
00000000001F0A64C00000000000
00000000001F0A64C00000000000
00000000001F0A64C00000000000
00000000001F0A64C00000000000
00000000001F0A64C00000000000
ENDCHAR
STARTCHAR circumflex
ENCODING 710
SWIDTH 298 0
DWIDTH 11 0
BBX 7 4 2 17
BITMAP
00460000
03E42100
1D609A00
C9001C80
ENDCHAR
STARTCHAR dotaccent
ENCODING 729
SWIDTH 212 0
DWIDTH 8 0
BBX 4 3 2 17
BITMAP
5EC1
BFF5
5EC1
ENDCHAR
STARTCHAR ring
ENCODING 730
SWIDTH 212 0
DWIDTH 8 0
BBX 5 5 1 16
BITMAP
06DC30
1D36B0
2D14B0
09FE40
001000
ENDCHAR
STARTCHAR tilde
ENCODING 732
SWIDTH 329 0
DWIDTH 12 0
BBX 9 3 1 16
BITMAP
06DEA403B0
1D317DFE60
0000001000
ENDCHAR
STARTCHAR gravecomb
ENCODING 768
SWIDTH 0 0
DWIDTH 0 0
BBX 4 4 2 17
BITMAP
7200
9A00
1E40
05D1
ENDCHAR
STARTCHAR acutecomb
ENCODING 769
SWIDTH 0 0
DWIDTH 0 0
BBX 4 4 2 17
BITMAP
0171
0A90
4E10
D600
ENDCHAR
STARTCHAR uni0302
ENCODING 770
SWIDTH 0 0
DWIDTH 0 0
BBX 7 4 2 17
BITMAP
00460000
03E42100
1D609A00
C9001C80
ENDCHAR
STARTCHAR tildecomb
ENCODING 771
SWIDTH 0 0
DWIDTH 0 0
BBX 9 3 1 16
BITMAP
06DEA403B0
1D317DFE60
0000001000
ENDCHAR
STARTCHAR uni0307
ENCODING 775
SWIDTH 0 0
DWIDTH 0 0
BBX 4 3 2 17
BITMAP
5EC1
BFF5
5EC1
ENDCHAR
STARTCHAR uni0308
ENCODING 776
SWIDTH 0 0
DWIDTH 0 0
BBX 8 3 1 18
BITMAP
01100010
1EE10BF5
1DD109E4
ENDCHAR
STARTCHAR uni030A
ENCODING 778
SWIDTH 0 0
DWIDTH 0 0
BBX 5 5 1 16
BITMAP
06DC30
1D36B0
2D14B0
09FE40
001000
ENDCHAR
STARTCHAR uni0327
ENCODING 807
SWIDTH 0 0
DWIDTH 0 0
BBX 6 8 2 -7
BITMAP
016100
08B000
3FDD90
4933C6
000088
7302D5
8EFF80
001000
ENDCHAR
STARTCHAR Wgrave
ENCODING 7808
SWIDTH 972 0
DWIDTH 35 0
BBX 35 40 0 0
BITMAP
000000000000045063000000000000000000
00000000000002E25D000000000000000000
000000000000008B0C700000000000000000
000000000000001E43E20000000000000000
0000000000000006D09A0000000000000000
0000000000000000C71E3000000000000000
00000000000000004E17C000000000000000
00000000000000000A90D600000000000000
000000000000000000000000000000000000
000000000000000000000000000000000000
000000000000000000000000000000000000
2E0B64D00000000D46B0E2000000D46B0E20
0E37A1F20000002F0A73E0000002F0A73D00
0A73E0C50000005B0E37A0000005B0E37A00
06B0E289000000972E0B6000000973E0B600
02E0B64D000000D46A0E2000000D46B0E200
00E37A1F200002E0A73D0000002E0A73D000
00A73E0B500005B0E37A0500006B0E37A000
006B0E2890000972E0B6390000972E0B6000
002E0B64D0000D36A0E24D0000D36B0E2000
000E37A1F2002E0A64D01F2002E0A73D0000
000A73E0B5005B0E37A00C6006B0E3790000
0006B0E38900973E0B6338900972E0B60000
0002E0B64D00D36A0F2774D00D36B0E20000
0000E37A0F22E0A64D06B1F22E0A74D00000
0000A73E0B53B0E37A02E0B63B0E37900000
00006B0E389173E0B610D389062E0B600000
00002E0A64D016A0F271A74D016B0E200000
00000D37A0F20A64D0B46B0F20A74D000000
00000A73E0B60E28A0982E0B60E379000000
000006B0E3791E0B605C0D37A0D0B6000000
000002E0A64D071F201F1974D060E2000000
000000D37A0F214D000D46B0E204D0000000
000000A73E0B608A000982E0B60790000000
0000006B0E3790C60005C0D37A0B50000000
0000002E0A64D0C20001F1973D0B20000000
0000000D37A0E2600000C46B0E2500000000
0000000A73E0B6000000982E0B6000000000
00000006B0E3790000005C0D47A000000000
00000002E0A74D0000001F1973E000000000
ENDCHAR
STARTCHAR wgrave
ENCODING 7809
SWIDTH 521 0
DWIDTH 19 0
BBX 19 21 0 0
BITMAP
00000001710000000000
00000000A90000000000
000000002E3000000000
0000000007C000000000
00000000000000000000
00000000000000000000
891F1002E0A7005C0D40
4D0C4006B0E300892F00
0F28800A73F600C55B00
0B54C00E37F901F19700
0791F12E0BAD05C0D400
04D0C56B0E3E2982E000
00E288A73F0A6D46B000
00B64CE37F37BF1A7000
007A1FE0BF73FC0E3000
003D0CA0F8B0E82E0000
000E2894D2E0A76B0000
000B64D890E36AA70000
0007A1FD60A73EE30000
0003E0BF206B0EE00000
0000E38D002F0AB00000
ENDCHAR
STARTCHAR Wacute
ENCODING 7810
SWIDTH 972 0
DWIDTH 35 0
BBX 35 40 0 0
BITMAP
000000000000000005507300000000000000
00000000000000002E35E100000000000000
0000000000000000A90D5000000000000000
0000000000000004E17C0000000000000000
000000000000000C62E30000000000000000
000000000000006D0A900000000000000000
00000000000001E43E100000000000000000
00000000000009A0C7000000000000000000
000000000000000000000000000000000000
000000000000000000000000000000000000
000000000000000000000000000000000000
2E0B64D00000000D46B0E2000000D46B0E20
0E37A1F20000002F0A73E0000002F0A73D00
0A73E0C50000005B0E37A0000005B0E37A00
06B0E289000000972E0B6000000973E0B600
02E0B64D000000D46A0E2000000D46B0E200
00E37A1F200002E0A73D0000002E0A73D000
00A73E0B500005B0E37A0500006B0E37A000
006B0E2890000972E0B6390000972E0B6000
002E0B64D0000D36A0E24D0000D36B0E2000
000E37A1F2002E0A64D01F2002E0A73D0000
000A73E0B5005B0E37A00C6006B0E3790000
0006B0E38900973E0B6338900972E0B60000
0002E0B64D00D36A0F2774D00D36B0E20000
0000E37A0F22E0A64D06B1F22E0A74D00000
0000A73E0B53B0E37A02E0B63B0E37900000
00006B0E389173E0B610D389062E0B600000
00002E0A64D016A0F271A74D016B0E200000
00000D37A0F20A64D0B46B0F20A74D000000
00000A73E0B60E28A0982E0B60E379000000
000006B0E3791E0B605C0D37A0D0B6000000
000002E0A64D071F201F1974D060E2000000
000000D37A0F214D000D46B0E204D0000000
000000A73E0B608A000982E0B60790000000
0000006B0E3790C60005C0D37A0B50000000
0000002E0A64D0C20001F1973D0B20000000
0000000D37A0E2600000C46B0E2500000000
0000000A73E0B6000000982E0B6000000000
00000006B0E3790000005C0D47A000000000
00000002E0A74D0000001F1973E000000000
ENDCHAR
STARTCHAR wacute
ENCODING 7811
SWIDTH 521 0
DWIDTH 19 0
BBX 19 21 0 0
BITMAP
00000000027000000000
000000000B8000000000
000000006D0000000000
00000001E40000000000
00000000000000000000
00000000000000000000
891F1002E0A7005C0D40
4D0C4006B0E300892F00
0F28800A73F600C55B00
0B54C00E37F901F19700
0791F12E0BAD05C0D400
04D0C56B0E3E2982E000
00E288A73F0A6D46B000
00B64CE37F37BF1A7000
007A1FE0BF73FC0E3000
003D0CA0F8B0E82E0000
000E2894D2E0A76B0000
000B64D890E36AA70000
0007A1FD60A73EE30000
0003E0BF206B0EE00000
0000E38D002F0AB00000
ENDCHAR
STARTCHAR Wdieresis
ENCODING 7812
SWIDTH 972 0
DWIDTH 35 0
BBX 35 39 0 0
BITMAP
00000000003BEC6000006CEB300000000000
0000000003E735D80007D537E40000000000
000000000A70003E000E30007B0000000000
000000000C40000F201F00004D0000000000
000000000B60002F100F20006C0000000000
0000000004E402C90008C204E50000000000
00000000006EFE8000008EFE600000000000
000000000000100000000010000000000000
000000000000000000000000000000000000
000000000000000000000000000000000000
2E0B64D00000000D46B0E2000000D46B0E20
0E37A1F20000002F0A73E0000002F0A73D00
0A73E0C50000005B0E37A0000005B0E37A00
06B0E289000000972E0B6000000973E0B600
02E0B64D000000D46A0E2000000D46B0E200
00E37A1F200002E0A73D0000002E0A73D000
00A73E0B500005B0E37A0500006B0E37A000
006B0E2890000972E0B6390000972E0B6000
002E0B64D0000D36A0E24D0000D36B0E2000
000E37A1F2002E0A64D01F2002E0A73D0000
000A73E0B5005B0E37A00C6006B0E3790000
0006B0E38900973E0B6338900972E0B60000
0002E0B64D00D36A0F2774D00D36B0E20000
0000E37A0F22E0A64D06B1F22E0A74D00000
0000A73E0B53B0E37A02E0B63B0E37900000
00006B0E389173E0B610D389062E0B600000
00002E0A64D016A0F271A74D016B0E200000
00000D37A0F20A64D0B46B0F20A74D000000
00000A73E0B60E28A0982E0B60E379000000
000006B0E3791E0B605C0D37A0D0B6000000
000002E0A64D071F201F1974D060E2000000
000000D37A0F214D000D46B0E204D0000000
000000A73E0B608A000982E0B60790000000
0000006B0E3790C60005C0D37A0B50000000
0000002E0A64D0C20001F1973D0B20000000
0000000D37A0E2600000C46B0E2500000000
0000000A73E0B6000000982E0B6000000000
00000006B0E3790000005C0D47A000000000
00000002E0A74D0000001F1973E000000000
ENDCHAR
STARTCHAR wdieresis
ENCODING 7813
SWIDTH 521 0
DWIDTH 19 0
BBX 19 21 0 0
BITMAP
00000001000200000000
000000CF407F90000000
000000AE306E70000000
00000000000000000000
00000000000000000000
00000000000000000000
891F1002E0A7005C0D40
4D0C4006B0E300892F00
0F28800A73F600C55B00
0B54C00E37F901F19700
0791F12E0BAD05C0D400
04D0C56B0E3E2982E000
00E288A73F0A6D46B000
00B64CE37F37BF1A7000
007A1FE0BF73FC0E3000
003D0CA0F8B0E82E0000
000E2894D2E0A76B0000
000B64D890E36AA70000
0007A1FD60A73EE30000
0003E0BF206B0EE00000
0000E38D002F0AB00000
ENDCHAR
STARTCHAR uni1E9E
ENCODING 7838
SWIDTH 784 0
DWIDTH 28 0
BBX 26 29 1 0
BITMAP
3D0C4791FFFFFFFFFFFFFFE000
3D0C4790111111111111111000
3D0C4791EEEEEEEEEEEEEED000
3D0C4790222222222222222000
3D0C4791EEEEEEEEEEEEEED000
3D0C4790222222222222222000
3D0C4790000000000000000000
3D0C479000000007B0B81E4000
3D0C47900000002E35D19A0000
3D0C4790000000A91D53E20000
3D0C4790000003E17B0B800000
3D0C479000000C62E35D100000
3D0C479000006C0A91D52C3000
3D0C47900001E44E18B006E500
3D0C47900008A0C62E35A14E30
3D0C4790002E26C0A9019D16C0
3D0C479000B81E44E17809B0D4
3D0C479000000000002C71E389
3D0C4790000000000003E0A64C
3D0C4790000000000000E2983D
3D0C4790000000000000F2973D
3D0C4790000000000003E0B55C
3D0C479000000000003C82E17A
3D0C479000EEEEEEEFE81C80D5
3D0C4790002222222115DA05E0
3D0C479000EEEEEEEEFC502E40
3D0C479000222222220004E700
3D0C4790001111111136BE5000
3D0C479000FFFFFFFFEB710000
ENDCHAR
STARTCHAR Ygrave
ENCODING 7922
SWIDTH 769 0
DWIDTH 28 0
BBX 28 40 0 0
BITMAP
0000000002703600000000000000
0000000000C71E40000000000000
00000000003E26C0000000000000
000000000009A0C6000000000000
000000000001E34E100000000000
0000000000007C0A900000000000
0000000000000D62E30000000000
00000000000004E18B0000000000
0000000000000000000000000000
0000000000000000000000000000
0000000000000000000000000000
4E17C09B000000000001E52E34E1
0AA0C81D50000000000AA0C81D50
01E52E34E1000000005E17C09A00
005E17C0AA00000001E52E34E200
000A90C71E5000000AA0B81D6000
0001E43E25E100005E16D19B0000
00006D18B0A90001E52E44E20000
00000B90D61E400AB0B90D700000
000002E33E26D13E26D18C000000
0000006D08B0B9042E43E2000000
0000000B81D62E40A90C70000000
00000002E34E16D1718C00000000
000000007C09A0C803E300000000
000000000C71D52E348000000000
0000000003E24E17C00000000000
0000000000330420510000000000
0000000000050422400000000000
00000000001F0A64C00000000000
00000000001F0A64C00000000000
00000000001F0A64C00000000000
00000000001F0A64C00000000000
00000000001F0A64C00000000000
00000000001F0A64C00000000000
00000000001F0A64C00000000000
00000000001F0A64C00000000000
00000000001F0A64C00000000000
00000000001F0A64C00000000000
00000000001F0A64C00000000000
00000000001F0A64C00000000000
ENDCHAR
STARTCHAR ygrave
ENCODING 7923
SWIDTH 422 0
DWIDTH 15 0
BBX 15 21 0 0
BITMAP
0000007200000000
0000007C00000000
0000000D60000000
00000004E1000000
0000000000000000
0000000000000000
5E16D10000B90C80
0AA0C80005E17D00
02E42E301E52E400
006D18C09B0B9000
000C80DAF25E1000
0003E34F81E50000
00008C09A9B00000
00001D61EE200000
0000011011000000
000002E0B5000000
000002E0B5000000
000002E0B5000000
000002E0B5000000
000002E0B5000000
000002E0B5000000
ENDCHAR
STARTCHAR endash
ENCODING 8211
SWIDTH 507 0
DWIDTH 18 0
BBX 16 4 1 5
BITMAP
3EEEEEEEEEEEEEE6
0222222222222221
3EEEEEEEEEEEEEE6
0222222222222221
ENDCHAR
STARTCHAR emdash
ENCODING 8212
SWIDTH 552 0
DWIDTH 20 0
BBX 18 4 1 5
BITMAP
3EEEEEEEEEEEEEEEE1
022222222222222220
3EEEEEEEEEEEEEEEE1
022222222222222220
ENDCHAR
STARTCHAR quoteleft
ENCODING 8216
SWIDTH 146 0
DWIDTH 5 0
BBX 5 5 0 10
BITMAP
1F0000
1F0000
1F0950
1F0B50
1F0B50
ENDCHAR
STARTCHAR quoteright
ENCODING 8217
SWIDTH 146 0
DWIDTH 5 0
BBX 5 5 0 10
BITMAP
1F0B50
1F0B50
1C0B50
000B50
000B50
ENDCHAR
STARTCHAR quotesinglbase
ENCODING 8218
SWIDTH 146 0
DWIDTH 5 0
BBX 5 5 0 -5
BITMAP
1C0950
1F0B50
1F0B50
000B50
000B50
ENDCHAR
STARTCHAR quotedblleft
ENCODING 8220
SWIDTH 297 0
DWIDTH 11 0
BBX 10 5 0 10
BITMAP
1F0000A600
1F0000A600
1F0950A64A
1F0B50A64C
1F0B50A64C
ENDCHAR
STARTCHAR quotedblright
ENCODING 8221
SWIDTH 297 0
DWIDTH 11 0
BBX 10 5 0 10
BITMAP
1F0B50A64C
1F0B50A64C
1C0B50854C
000B50004C
000B50004C
ENDCHAR
STARTCHAR quotedblbase
ENCODING 8222
SWIDTH 297 0
DWIDTH 11 0
BBX 10 5 0 -5
BITMAP
1C0950854A
1F0B50A64C
1F0B50A64C
000B50004C
000B50004C
ENDCHAR
STARTCHAR bullet
ENCODING 8226
SWIDTH 302 0
DWIDTH 11 0
BBX 9 8 1 3
BITMAP
006CEC5000
07D536E600
1F30005D00
3E00001F10
1F20004E00
09C303D700
009FFE7000
0000200000
ENDCHAR
STARTCHAR ellipsis
ENCODING 8230
SWIDTH 528 0
DWIDTH 19 0
BBX 17 3 1 0
BITMAP
883D003D0C300D3880
883D003D0D400D3880
883D003D0D400D3880
ENDCHAR
STARTCHAR guilsinglleft
ENCODING 8249
SWIDTH 178 0
DWIDTH 6 0
BBX 4 9 1 3
BITMAP
0002
007C
2BD3
2714
105E
8901
2BC2
007B
0001
ENDCHAR
STARTCHAR guilsinglright
ENCODING 8250
SWIDTH 178 0
DWIDTH 6 0
BBX 4 9 1 3
BITMAP
2000
6B20
19E5
4155
7B01
014D
08E5
5B20
1000
ENDCHAR
STARTCHAR fraction
ENCODING 8260
SWIDTH 362 0
DWIDTH 13 0
BBX 13 15 0 0
BITMAP
00000000B81E30
00000004E18A00
0000000C72E200
0000005D099000
000000C62E2000
000006D0A80000
00000D53E10000
00007C0B700000
0001E44E100000
0008B0C6000000
001E35D0000000
009A0D50000000
02E26C00000000
0A91E400000000
3E17B000000000
ENDCHAR
STARTCHAR uni2074
ENCODING 8308
SWIDTH 204 0
DWIDTH 7 0
BBX 6 8 1 7
BITMAP
02AA20
095A00
2B9300
86A000
000B74
CD8B74
CD8B74
000B74
ENDCHAR
STARTCHAR Euro
ENCODING 8364
SWIDTH 462 0
DWIDTH 17 0
BBX 16 15 0 0
BITMAP
0000017BEFEB7100
00005EB52135AE60
0006E528CEC813D4
003F33E9424AE300
00770A6000006300
0000000000000000
CEEEEEEE40000000
2222222210000000
CEEEEEEE40000000
2222222210000000
008A0AD51015D500
001E505CFFFC5093
0004E600020019C1
00003DC62137DA10
0000016BEFDA4000
ENDCHAR
STARTCHAR trademark
ENCODING 8482
SWIDTH 461 0
DWIDTH 17 0
BBX 16 7 0 8
BITMAP
9EEEEE37850023D2
122222088980C3E2
004C000882EBA0E2
004C0008804C10E2
004C0008800000E2
004C0008800000E2
004C0008800000E2
ENDCHAR
STARTCHAR minus
ENCODING 8722
SWIDTH 420 0
DWIDTH 15 0
BBX 13 4 1 5
BITMAP
8EEEEEEEEEEEA0
12222222222210
8EEEEEEEEEEEA0
12222222222210
ENDCHAR
STARTCHAR uni2215
ENCODING 8725
SWIDTH 278 0
DWIDTH 10 0
BBX 9 15 1 0
BITMAP
0000170440
00006C0D50
0000B73E00
0001F28900
0006C0D400
000B73E000
001F289000
006B0D4000
00B63E0000
01F1890000
06B0D40000
0B63E00000
1F18900000
6B0D400000
B64E000000
ENDCHAR
STARTCHAR .notdef
ENCODING -1
SWIDTH 500 0
DWIDTH 18 0
BBX 16 41 1 -8
BITMAP
2CCCCCCCCCCCCCC2
3FFFFFFFFFFFFFF3
3F900000000009F3
3F900000000009F3
3F900000000009F3
3F900000000009F3
3F900000000009F3
3F900000000009F3
3F900000000009F3
3F900000000009F3
3F900000000009F3
3F900000000009F3
3F900000000009F3
3F900000000009F3
3F900000000009F3
3F900000000009F3
3F900000000009F3
3F900000000009F3
3F900000000009F3
3F900000000009F3
3F900000000009F3
3F900000000009F3
3F900000000009F3
3F900000000009F3
3F900000000009F3
3F900000000009F3
3F900000000009F3
3F900000000009F3
3F900000000009F3
3F900000000009F3
3F900000000009F3
3F900000000009F3
3F900000000009F3
3F900000000009F3
3F900000000009F3
3F900000000009F3
3F900000000009F3
3F900000000009F3
3F900000000009F3
3FECCCCCCCCCCEF3
3FFFFFFFFFFFFFF3
ENDCHAR
STARTCHAR NULL
ENCODING -1
SWIDTH 600 0
DWIDTH 22 0
BBX 1 1 0 0
BITMAP
00
ENDCHAR
STARTCHAR acutecomb.case
ENCODING -1
SWIDTH 0 0
DWIDTH 0 0
BBX 9 8 1 32
BITMAP
0000072270
00006C0A90
0001E44E10
0009A0C700
003E26D000
00B81E4000
05D19A0000
1D52E20000
ENDCHAR
STARTCHAR ampersand.case
ENCODING -1
SWIDTH 797 0
DWIDTH 29 0
BBX 26 31 1 -1
BITMAP
00000000015675200000000000
00000002AEBA9BEB3000000000
0000005E76BDDB76E700000000
000004E3AD6325CB3D60000000
00001E49B1000009A3E2000000
00007B2E118DD910D399000000
0000B66A0AB33AC0883D000000
0000D4881F1000D36A1F100000
0000D37A2E0000C47A0F100000
0000C44D0E3003E1A72F000000
0000980E48B05E63F27B000000
00005D07C1E6234E72E4000000
00000D60D74E24E62D90000000
000005D13E39C026E900000000
000030B908C1C91B4000000000
0009E22E40C92E500000000000
01BC2115E22E55E20000040000
09B15E709B05E29C00008C0000
3F25F6020C80AB1C8005E25C00
890D71BC02E41D72E41E42E527
C55D0AB0005E13E36E131C90C8
E3791F100009B07D19B09A08C0
D3792E000001C80BA1D8206D20
B55C0E3000002E42E63E42E300
890E46D5101506E15E26D12000
2E25E35CFFFC309B09C0AB0000
08C06E831112651D70C81D7000
00BB129DFFFD9403E43E43E300
0009E610010005A16D16E16D10
00004CFCA9ACED710AB0AB0AA0
00000025777520000000000000
ENDCHAR
STARTCHAR asciicircum.case
ENCODING -1
SWIDTH 540 0
DWIDTH 19 0
BBX 19 16 0 14
BITMAP
00000000040000000000
000000001E3000000000
000000008B0100000000
00000002E35800000000
0000000A90D500000000
0000004E17C070000000
000000C71E31E4000000
000006D09A126C000000
00001E43E26A0C600000
00008B0C701E44E10000
0002E25D0007C0A90000
000A81D50000D62E2000
004E18B000005E18B000
00C62E3000000B81E400
06C0A900000003E26D00
1E43E1000000009A0C60
ENDCHAR
STARTCHAR asciitilde.case
ENCODING -1
SWIDTH 640 0
DWIDTH 23 0
BBX 21 9 1 11
BITMAP
004ADEEC82000000000010
1CE94225AE810000001B40
3B20000002AE830027EE20
116ADEDCA613AEFFFD7100
2DA632347BEA6322247D30
126ADEDCA537BEFFFD8210
2EB742347CEA5211137D30
230000000027CFFFFD9300
0000000000000012100000
ENDCHAR
STARTCHAR asterisk.case
ENCODING -1
SWIDTH 482 0
DWIDTH 17 0
BBX 15 14 1 15
BITMAP
000001F0A6000000
000001F0A6000000
000001F0A6000000
049401F0A6038800
028DE40000DEA500
0610310000300420
1BFB5000002AED50
0016400000173000
0000610000710000
0005E21010BA0000
002E42E1B61D5000
00680C703E34A000
00008B0007D00000
0000220000300000
ENDCHAR
STARTCHAR at.case
ENCODING -1
SWIDTH 915 0
DWIDTH 33 0
BBX 31 31 1 -1
BITMAP
00000000000035777641000000000000
0000000004AEEBA99ACFC71000000000
00000003BE720000000049E810000000
0000008E71048BDEDCA62019D3000000
00001BD206DD85322369DB404D500000
0000AB12DC400000000005D912D40000
0007D14E7000000000000008C13D2000
002F32E500006BDEDA9B0E207C16B000
00A90D70002DD64249FB0F200990D400
03E16C0003E70000006B0F2001E26B00
08A0E4001D5029DED86B0F2000891E10
0D54D0008A04E8424AFB0F20003D0B50
1F188000E32E4000008B0F20000E2980
3E0B5003E0980000005B0F20000C47A0
4D0D4005C0D30000005B0F20000B56B0
5C0E3005C0E20000005B0F20000C56B0
4D0D4003D0D30000005B0F20000D47A0
3E0B5001E2970000005B0E20001F1980
1F298000993E2000006B0D30007B0B50
0C55D0002E46E61017FB08B105E31F10
08A1E40005E44BFFFB5E019FFD408A00
03F27B00004EA41224AF80001004E200
00A91D6000018DFFFD81BA30028E4000
002F33E400000012100006DFFFA30000
0007D15E600000000000000110000000
0000AC14EA2000000000030000000000
00000AD318EB62100148DC1000000000
0000008E8126BEFFFFC8404100000000
00000003BE83000110015BE400000000
0000000004AEEB999ADFB60000000000
00000000000035777631000000000000
ENDCHAR
STARTCHAR backslash.case
ENCODING -1
SWIDTH 504 0
DWIDTH 18 0
BBX 18 34 0 -2
BITMAP
440714500000000000
5D0C54D00000000000
0E37A0E30000000000
0A82F1980000000000
04D0C64D0000000000
00E37B0E3000000000
00982F198000000000
004D0C64D000000000
000E37B0E300000000
000982F19800000000
0004D0C64D00000000
0000E37B0E30000000
0000982F1990000000
00004D0C64D0000000
00000E36B0E4000000
00000982F199000000
000004D0B64E000000
000000E36B0E400000
000000981F19900000
0000004D0B64E00000
0000000E36B0D40000
0000000981F1990000
00000004D0B63E0000
00000000E36B0D4000
00000000981F189000
000000004D0B63E000
000000000E36B0D400
000000000981F18900
0000000004D0B63E00
0000000000E36B0D40
0000000000981F1890
00000000004D0B63E0
00000000000E36B0D4
00000000000981F289
ENDCHAR
STARTCHAR bar.case
ENCODING -1
SWIDTH 262 0
DWIDTH 9 0
BBX 7 34 1 -2
BITMAP
27062350
3D0C4790
3D0C4790
3D0C4790
3D0C4790
3D0C4790
3D0C4790
3D0C4790
3D0C4790
3D0C4790
3D0C4790
3D0C4790
3D0C4790
3D0C4790
3D0C4790
3D0C4790
3D0C4790
3D0C4790
3D0C4790
3D0C4790
3D0C4790
3D0C4790
3D0C4790
3D0C4790
3D0C4790
3D0C4790
3D0C4790
3D0C4790
3D0C4790
3D0C4790
3D0C4790
3D0C4790
3D0C4790
3D0C4790
ENDCHAR
STARTCHAR braceleft.case
ENCODING -1
SWIDTH 504 0
DWIDTH 18 0
BBX 16 34 1 -3
BITMAP
00000C3791E0AEE5
00000D4791F01221
00000D4791F0BFF6
00000D4791F01110
00000D4791F00000
00000D4791F0AEE5
00000D4791F01221
00000D4791F00000
00000D4791F00000
00000D4791F00000
00000D4791F00000
00000D4791F00000
00000D4791F00000
00000D4791F00000
3EED0D4791F00000
02220D4791F00000
3EED0D4791F00000
02220D4791F00000
3EED0D4791F00000
02220D4791F00000
00000D4791F00000
00000D4791F00000
00000D4791F00000
00000D4791F00000
00000D4791F00000
00000D4791F00000
00000D4791F00000
00000D4791F0AEE5
00000D4791F01221
00000D4791F01110
00000D4791F0BFF6
00000D4791F00000
00000D4791F0AEE5
0000020110201221
ENDCHAR
STARTCHAR braceright.case
ENCODING -1
SWIDTH 506 0
DWIDTH 18 0
BBX 16 34 1 -2
BITMAP
0222011110200000
2EED0C56A0F10000
00000C56A0F10000
2FFE0C56A0F10000
01110C56A0F10000
02220C56A0F10000
2EED0C56A0F10000
00000C56A0F10000
00000C56A0F10000
00000C56A0F10000
00000C56A0F10000
00000C56A0F10000
00000C56A0F10000
00000C56A0F10000
00000C56A0F11221
00000C56A0F1AEE6
00000C56A0F11221
00000C56A0F1AEE6
00000C56A0F11221
00000C56A0F1AEE6
00000C56A0F10000
00000C56A0F10000
00000C56A0F10000
00000C56A0F10000
00000C56A0F10000
00000C56A0F10000
00000C56A0F10000
02220C56A0F10000
2EED0C56A0F10000
00000C56A0F10000
01110C56A0F10000
2FFE0C56A0F10000
02220C56A0F10000
2EED0B46A0E10000
ENDCHAR
STARTCHAR bracketleft.case
ENCODING -1
SWIDTH 453 0
DWIDTH 16 0
BBX 14 34 1 -3
BITMAP
3D0C4691EEEEE7
3D0C4790222221
3D0C4791FFFFF8
3D0C4790111111
3D0C4790000000
3D0C4791EEEEE7
3D0C4790222221
3D0C4790000000
3D0C4790000000
3D0C4790000000
3D0C4790000000
3D0C4790000000
3D0C4790000000
3D0C4790000000
3D0C4790000000
3D0C4790000000
3D0C4790000000
3D0C4790000000
3D0C4790000000
3D0C4790000000
3D0C4790000000
3D0C4790000000
3D0C4790000000
3D0C4790000000
3D0C4790000000
3D0C4790000000
3D0C4790000000
3D0C4791EEEEE7
3D0C4790222221
3D0C4790111111
3D0C4791FFFFF8
3D0C4790000000
3D0C4791EEEEE7
02020110222221
ENDCHAR
STARTCHAR bracketright.case
ENCODING -1
SWIDTH 453 0
DWIDTH 16 0
BBX 14 34 1 -2
BITMAP
02222211102011
3EEEEE65C0E288
00000005C0E288
3FFFFF65C0E288
01111105C0E288
02222215C0E288
3EEEEE65C0E288
00000005C0E288
00000005C0E288
00000005C0E288
00000005C0E288
00000005C0E288
00000005C0E288
00000005C0E288
00000005C0E288
00000005C0E288
00000005C0E288
00000005C0E288
00000005C0E288
00000005C0E288
00000005C0E288
00000005C0E288
00000005C0E288
00000005C0E288
00000005C0E288
00000005C0E288
00000005C0E288
02222215C0E288
3EEEEE65C0E288
00000005C0E288
01111105C0E288
3FFFFF65C0E288
02222215C0E288
3EEEEE64B0D287
ENDCHAR
STARTCHAR brokenbar.case
ENCODING -1
SWIDTH 262 0
DWIDTH 9 0
BBX 7 34 1 0
BITMAP
27062350
3D0C4790
3D0C4790
3D0C4790
3D0C4790
3D0C4790
3D0C4790
3D0C4790
3D0C4790
3D0C4790
3D0C4790
3D0C4790
3D0C4790
3D0C4790
3D0C4790
27062350
00000000
00000000
00000000
3D0C4790
3D0C4790
3D0C4790
3D0C4790
3D0C4790
3D0C4790
3D0C4790
3D0C4790
3D0C4790
3D0C4790
3D0C4790
3D0C4790
3D0C4790
3D0C4790
3D0C4790
ENDCHAR
STARTCHAR bullet.case
ENCODING -1
SWIDTH 503 0
DWIDTH 18 0
BBX 16 16 1 6
BITMAP
000017CEEC810000
0004EB5335AE5000
004E50000004E600
02E403ADDB403E30
08A06E7326D708A0
0E33E300002E42E1
1F0980000006B0D3
3E0C40000002D0C4
1F0C40000002E0D3
0E3A70000005B1F1
0984E100001D57B0
02E38D4003CA2E40
006D36DFFD72C800
0006E831127E8000
00003AEFFEB40000
0000000110000000
ENDCHAR
STARTCHAR uni0327.case
ENCODING -1
SWIDTH 0 0
DWIDTH 0 0
BBX 8 10 2 -9
BITMAP
00043000
003E2000
00D70000
07FDEC50
1E9326E6
0200006C
0000005C
B61004D6
3BFFFD60
00010000
ENDCHAR
STARTCHAR cent.case
ENCODING -1
SWIDTH 577 0
DWIDTH 21 0
BBX 19 34 1 -2
BITMAP
000000000E2880000000
000000000E2880000000
000000000E2880000000
000000000E2880000000
000000000E2880000000
00000000000000000000
00000000000000000000
00000016ADEEDB720000
000006EC742236AEA200
0001AD428CEEDA518E20
000AB17E953247DC3200
007C1AC24BDEC6074000
02E27D19D6336CB00000
08A1E37C100000400000
0C46C1E3000000000000
0F1A75C0000000000000
1F0B5790000000000000
1F0B5790000000000000
0F1A75B0000000000000
0D47A1E1000000000000
0992F29B000000200000
03E18B1BB3003AC00000
009B0CA17DFFE9242000
000C91AD721125BE4000
0002CB15BEFFFC816E20
000009E94111137DD400
00000028CFFFFDA50000
00000000001100000000
00000000000000000000
000000000E2880000000
000000000E2880000000
000000000E2880000000
000000000E2880000000
000000000E2880000000
ENDCHAR
STARTCHAR uni0302.case
ENCODING -1
SWIDTH 0 0
DWIDTH 0 0
BBX 15 8 2 32
BITMAP
0000073073000000
00007D18C1100000
0003E34E31D10000
001D71D6109B0000
00AB0AA0971D7000
06E16D103E33E300
2E43E40006D17D10
C80C800000AA0BA0
ENDCHAR
STARTCHAR colon.case
ENCODING -1
SWIDTH 262 0
DWIDTH 9 0
BBX 7 20 1 0
BITMAP
3D0C4790
3D0C4790
3D0C4790
3D0C4790
3D0C4790
3D0C4790
00000000
00000000
00000000
00000000
00000000
00000000
00000000
00000000
3D0C4790
3D0C4790
3D0C4790
3D0C4790
3D0C4790
3D0C4790
ENDCHAR
STARTCHAR comma.case
ENCODING -1
SWIDTH 338 0
DWIDTH 12 0
BBX 10 10 1 -4
BITMAP
000C55C0D4
001F1982F0
004C0D46B0
00891F1A70
00C55C0D40
01F1982E00
05C0D46B00
0881F1A700
0C55C0D300
1F1982E000
ENDCHAR
STARTCHAR copyright.case
ENCODING -1
SWIDTH 895 0
DWIDTH 32 0
BBX 31 31 1 -1
BITMAP
00000000000146776520000000000000
0000000017CFCA99ACED820000000000
00000017EB51000000049E9100000000
000002DC4026ACDECB7302AE40000000
00004E802AEB643246AEC405E6000000
0003E507E810000000007EA13E500000
002D70AD20000000000001BC14E30000
00AA09C10000000000000009C07D0000
03E16D2000005ACEDB710000B90D6000
0B81E400003DC74236AE70002E35E000
2F18B00004E629DED922C40008B0D500
6B0D50002E55E84248E4000002F18900
A82F1000992E30000042000000C54D00
C55C0000E29800000000000000892F00
D47A0003E0C3000000000000007A0F10
E3890004C0D3000000000000006B0F20
D47A0003E0A7000000000000007A0F10
C56B0001F24E20000010000000892F00
A83E0000A807E61015D6000000B64D00
6B0E40003E304BFFFC40840001F28900
2F19A00006E400010008D10007C0D500
0B82E300005EA41015CC20001E45D000
03E18C1000028DFFFC6000009B0D6000
00AA0BA00000000100000007D17D0000
001D71CB100000000000008E34E30000
0003E51AD500000000004CC23E500000
00004E805DD84100137CE705E6000000
000002DC4059DFFFFEA512AE40000000
00000017EB51001100049E9100000000
0000000017CFCA99ACED820000000000
00000000000146776520000000000000
ENDCHAR
STARTCHAR currency.case
ENCODING -1
SWIDTH 676 0
DWIDTH 24 0
BBX 23 23 1 1
BITMAP
000071000000000005200000
0001BB00000000005E300000
00961BB000000005E42B1000
013E61BA0000004E42D80100
5C13E512000000132D908B00
0AB03D105BDEC710AA06E200
00CA001BD7335BE4104E4000
001D50BA1000006E31E60000
000107C119DEB307C0300000
00000D51DB437E41E3000000
00001F18C00006C0B6000000
00002F0B600001F198000000
00001F1B600000F1A7000000
00000D48A00005D0E4000000
000008B2E8105E66D0000000
000601D83BFFD63E40420000
01BC112DB41228E6017E3000
1CB19A018DFFEA305D25E500
A909C1420011000708D24D10
109C14E40000001CA08D2000
01914E4000000001CA073000
0004E400000000001C900000
000140000000000001300000
ENDCHAR
STARTCHAR degree.case
ENCODING -1
SWIDTH 413 0
DWIDTH 15 0
BBX 13 14 1 16
BITMAP
00003676200000
003CEA9BEB2000
04E7100019E200
1E607CEC508D00
7B0AD536D70D50
B64E10003E1890
D47A00000C56B0
D48A00000C56A0
A75D10001E2980
5D1CB203C92E20
0BA19FFE81C900
01BC51226DA000
0006CFFFC50000
00000010000000
ENDCHAR
STARTCHAR uni0308.case
ENCODING -1
SWIDTH 0 0
DWIDTH 0 0
BBX 18 8 1 31
BITMAP
006CEB3000019DD910
08D437E3000CA33AD1
0F20008A004D0000C6
2E00005C007A000098
1F10007A005C0000B6
09B204E4001D8117E1
019FFD500002BFFC30
000010000000011000
ENDCHAR
STARTCHAR divide.case
ENCODING -1
SWIDTH 618 0
DWIDTH 22 0
BBX 20 19 1 5
BITMAP
000000001AEC40000000
000000008B36E0000000
000000009903F1000000
000000002CFE60000000
00000000001000000000
00000000000000000000
3EEEEEEEEEEEEEEEEEE6
02222222222222222221
3EEEEEEEEEEEEEEEEEE6
02222222222222222221
00000000000000000000
3EEEEEEEEEEEEEEEEEE6
02222222222222222221
0000000009DB30000000
000000007C38D0000000
00000000A600F1000000
000000008B05E0000000
000000001BFE40000000
00000000001000000000
ENDCHAR
STARTCHAR uni2215.case
ENCODING -1
SWIDTH 483 0
DWIDTH 17 0
BBX 17 29 0 0
BITMAP
0000000001F1991F20
0000000006B0E46B00
000000000B64E0B600
000000002F1991F100
000000006B0E46B000
00000000C64D0B6000
00000002F1991F1000
00000007B0E46B0000
0000000C64D0B60000
0000002F1981F10000
0000007B0E36B00000
000000C64D0B600000
000002F1981F100000
000007B0E36B000000
00000C64D0B6000000
00002F1981F1000000
00007B0E36B0000000
0000C64D0B60000000
0002F1981F10000000
0007A0E36B00000000
000C54D0B600000000
002F1981F100000000
007A0E36B000000000
00C54D0B6000000000
02F1981F1000000000
07A0E36B0000000000
0C54D0B60000000000
2E1982F10000000000
7A0E36B00000000000
ENDCHAR
STARTCHAR dollar.case
ENCODING -1
SWIDTH 660 0
DWIDTH 24 0
BBX 22 34 1 -2
BITMAP
0000000007144000000000
000000000E288000000000
000000000E288000000000
000000140E288151000000
00003BE90E2882CE920000
0008E7100E288003AE5000
00BB128B0E2883C605E500
08C05E930E28805CB24E20
2E25E4160E2881409D18A0
7A1E43E80E2882E80B81F1
A64D0C600E28802E45D071
B56B0F200E288006501000
A64D0BA107188000000000
7A0D71AE94002000000000
1E33E8128DEA6100000000
06D22BE82027BEB5000000
007E503AEC73016DD50000
0003CC50159DE9305DA100
000005BE951037DC41AC10
000000027CFC7206E80AA0
000000000015AEB31C71E3
000000000C22117E52E197
000000000E288005D0C46A
00232C000E288003E0C56A
836B0C800E28800A91E288
981E42CA0E2882EA18B0C5
3E15E4030E2881309D25D0
09B14DA40E28817DC22E40
01BC31690E2882A504E600
0009F9300E288004AE4000
00003AFB0E2882EC710000
000000130E288120000000
000000000E288000000000
000000000E288000000000
ENDCHAR
STARTCHAR eight.case
ENCODING -1
SWIDTH 561 0
DWIDTH 20 0
BBX 18 31 1 -1
BITMAP
000000367763000000
00005DEB99BED60000
001AD67BDDC75CB100
00BB5EA5335AE4AC00
07C3E50000005E2B90
1E3B703BEEB407B2E2
7B2E14E7337E51E2A8
B66A0C600005D0A75C
D4881F100000E2883E
E3892E000000D3792F
D35C0E400000F1982E
B61E46E60007B0C55C
7B06E35DE94124E199
1E406E9238ED6131E3
06E302AFC625CD4280
007E60027CFA26E600
0414DC50003AE63E60
1E4217DE94004E64E1
6C0C60039DD504E1B7
A74E1990005D60B65C
D47A0F200003E0882E
E3882E000000D3792F
D4792F000000E3973E
B64D0D500004E0C45C
7B0D45E5104D74D0A8
2F25E25DFFE72E52F2
08C07E721127E70B90
00CA13AEFFEA31AC00
001AD50011004CB100
00006DEB99AED70000
000000367763000000
ENDCHAR
STARTCHAR ellipsis.case
ENCODING -1
SWIDTH 766 0
DWIDTH 28 0
BBX 25 6 1 0
BITMAP
3D0C479002E0B56B001F0A65C0
3D0C479002E0B56B001F0A65C0
3D0C479002E0B56B001F0A65C0
3D0C479002E0B56B001F0A65C0
3D0C479002E0B56B001F0A65C0
3D0C479002E0B56B001F0A65C0
ENDCHAR
STARTCHAR emdash.case
ENCODING -1
SWIDTH 790 0
DWIDTH 28 0
BBX 26 7 1 11
BITMAP
3EEEEEEEEEEEEEEEEEEEEEEEE9
02222222222222222222222221
00000000000000000000000000
3EEEEEEEEEEEEEEEEEEEEEEEE9
02222222222222222222222221
3EEEEEEEEEEEEEEEEEEEEEEEE9
02222222222222222222222221
ENDCHAR
STARTCHAR endash.case
ENCODING -1
SWIDTH 721 0
DWIDTH 26 0
BBX 24 7 1 11
BITMAP
3EEEEEEEEEEEEEEEEEEEEEE2
022222222222222222222220
000000000000000000000000
3EEEEEEEEEEEEEEEEEEEEEE2
022222222222222222222220
3EEEEEEEEEEEEEEEEEEEEEE2
022222222222222222222220
ENDCHAR
STARTCHAR equal.case
ENCODING -1
SWIDTH 618 0
DWIDTH 22 0
BBX 20 17 1 6
BITMAP
3EEEEEEEEEEEEEEEEEE6
02222222222222222221
00000000000000000000
3EEEEEEEEEEEEEEEEEE6
02222222222222222221
3EEEEEEEEEEEEEEEEEE6
02222222222222222221
00000000000000000000
00000000000000000000
00000000000000000000
3EEEEEEEEEEEEEEEEEE6
02222222222222222221
00000000000000000000
3EEEEEEEEEEEEEEEEEE6
02222222222222222221
3EEEEEEEEEEEEEEEEEE6
02222222222222222221
ENDCHAR
STARTCHAR Euro.case
ENCODING -1
SWIDTH 767 0
DWIDTH 28 0
BBX 27 31 0 -1
BITMAP
0000000000000246776300000000
000000000017CFCA9ABDEA300000
0000000006EB5100000037EA2000
00000001AD5026BCEDC95118E400
0000001BB119EA632347CE704E30
000000AB14E9149DEDB723CC1200
000006D15E42CD74235AE7088000
00001E52E43E800000002CA00000
00007B0C71E60000000001500000
0000D54D0AA00000000000000000
0002C0861C100000000000000000
0000000000000000000000000000
9EEEEEEEEEEEEEEEEE2000000000
1222222222222222220000000000
0000000000000000000000000000
9EEEEEEEEEEEEEEEEE2000000000
1222222222222222220000000000
9EEEEEEEEEEEEEEEEE2000000000
1222222222222222220000000000
0001605216000000000000000000
0000E37A0D400000000000000000
0000A81E26C00000000000000000
00004E18A0C90000000001800000
00000B80D62D900000002CA00000
000003E32D52CD610138E8076000
0000006E22D916BFFFE932AD3000
00000009D219E84111259E913D30
000000008E7039DFFFFC7206E500
0000000004DC5101210026DB3000
000000000006CFCA9ABDFB400000
0000000000000146776410000000
ENDCHAR
STARTCHAR exclam.case
ENCODING -1
SWIDTH 262 0
DWIDTH 9 0
BBX 7 29 1 0
BITMAP
3D0C4790
3D0C4790
3D0C4790
3D0C4790
3D0C4790
3D0C4790
3D0C4790
3D0C4790
3D0C4790
3D0C4790
3D0C4790
3D0C4790
3D0C4790
3D0C4790
3D0C4790
3D0C4790
3D0C4790
3D0C4790
3D0C4790
3D0C4790
3D0C4790
00000000
00000000
3D0C4790
3D0C4790
3D0C4790
3D0C4790
3D0C4790
3D0C4790
ENDCHAR
STARTCHAR exclamdown.case
ENCODING -1
SWIDTH 262 0
DWIDTH 9 0
BBX 7 29 1 -7
BITMAP
3D0C4790
3D0C4790
3D0C4790
3D0C4790
3D0C4790
3D0C4790
00000000
00000000
3D0C4790
3D0C4790
3D0C4790
3D0C4790
3D0C4790
3D0C4790
3D0C4790
3D0C4790
3D0C4790
3D0C4790
3D0C4790
3D0C4790
3D0C4790
3D0C4790
3D0C4790
3D0C4790
3D0C4790
3D0C4790
3D0C4790
3D0C4790
3D0C4790
ENDCHAR
STARTCHAR five.case
ENCODING -1
SWIDTH 558 0
DWIDTH 20 0
BBX 18 30 1 -1
BITMAP
1FFFFFFFFFFFFFFFF3
011111111111111110
1EEEEEEEEEEEEEEEE3
022222222222222220
1EEEEEEEEEEEEEEEE3
022222222222222220
000000000000000000
1F0B55B00000000000
1F0B55B00000000000
1F0B55B00000000000
1F0B55B00000000000
1F0B55B0EEDA500000
1F0B55B02247DD3000
1F0B55B0000007E500
1F0B55B0EED8204E20
1F0B55B01249E607C0
1F0B55B0EEB43E50D5
1F0B55B0337E44E08A
000000000006D0C54D
000000000000F2882F
302203000000D3792F
D4792F000000E2883E
B55C0D500004E0C55C
8A0E46E5115E63E1B8
3F16D26DFFD62D62F2
09B07E721127E80C80
00CA13AEFFEA41AC00
001BD50011004DA100
00006DEBA9BED60000
000000367763000000
ENDCHAR
STARTCHAR four.case
ENCODING -1
SWIDTH 585 0
DWIDTH 21 0
BBX 19 29 1 0
BITMAP
00000000890E45D00000
00000001E26B0C600000
00000008A0D44D000000
0000001E26C0C6000000
0000008A0D44D0000000
000001E26C0C60000000
000008A0D44D00000000
00001E36C0C600000000
00008A0D54D000000000
0001E36C0B6000000000
0008A0D54E0000000000
001E36C0B70000000000
008A0D54E10000000000
01E35C0B700000000000
07A0D53E12E0C46A0000
1E35D0B702E0C46A0000
3707419102E0C46A0000
0000000002E0C46A0000
DEEEEEEE72E0C46A0EE0
2222222212E0C46A0220
0000000002E0C46A0000
DEEEEEEE72E0C46A0EE0
2222222212E0C46A0220
DEEEEEEE72E0C46A0EE0
2222222212E0C46A0220
0000000002E0C46A0000
0000000002E0C46A0000
0000000002E0C46A0000
0000000002E0C46A0000
ENDCHAR
STARTCHAR uni2074.case
ENCODING -1
SWIDTH 312 0
DWIDTH 11 0
BBX 10 14 1 15
BITMAP
0009A0D400
001E36C000
008B0D5000
01E45D0000
07C0C60000
0D54E00000
5D0B700000
000004C0E2
DEEE64C0E2
222214C0E2
000004C0E2
DEEE64C0E2
222214C0E2
000004C0E2
ENDCHAR
STARTCHAR fraction.case
ENCODING -1
SWIDTH 655 0
DWIDTH 24 0
BBX 21 29 1 0
BITMAP
00000000000000006C0B80
0000000000000001E44E10
0000000000000008A0C600
000000000000002E26C000
00000000000000A91D4000
00000000000003E17B0000
0000000000000B71E30000
0000000000004D19900000
000000000000D62E200000
000000000006C0B8000000
00000000001E44E1000000
00000000008B0C60000000
0000000002E35D00000000
000000000990D500000000
000000003E17B000000000
00000000B81E3000000000
00000004E19A0000000000
0000000C62E20000000000
0000006C0A800000000000
000001E44E100000000000
000007B0C6000000000000
00001E35D0000000000000
0000990D50000000000000
0003E27B00000000000000
000B81E300000000000000
004E18A000000000000000
00C62E2000000000000000
06D0A80000000000000000
1D53E10000000000000000
ENDCHAR
STARTCHAR gravecomb.case
ENCODING -1
SWIDTH 0 0
DWIDTH 0 0
BBX 9 8 1 32
BITMAP
1722700000
09A0C60000
01E34E1000
007C0A9000
000D62E200
0004E18B00
0000B81E50
00002E26D0
ENDCHAR
STARTCHAR greater.case
ENCODING -1
SWIDTH 677 0
DWIDTH 24 0
BBX 22 25 1 2
BITMAP
7500000000000000000000
4DB3000000000000000000
107E910000000000000000
8912AE7000000000000000
1AE703CD40000000000000
303CD406EA200000000000
8D406EB218E81000000000
06EB218E812BE600000000
0018E812AE604DC3000000
00002BE604DC407EA20000
0000004DC406EA219E7000
000000007EA219E813CD50
00000000019E813BD505D7
000000018703BD505DC200
0000006EB21405DC315000
00004CD505DB1007800000
002AE703CD505D50000000
07E9119E703CD500000000
8C307E9119E70000000000
205DC307EA200000000000
2BE605DC30000000000000
8812BE6000000000000000
019E810000000000000000
5EA2000000000000000000
6400000000000000000000
ENDCHAR
STARTCHAR guillemotleft.case
ENCODING -1
SWIDTH 666 0
DWIDTH 24 0
BBX 22 20 1 4
BITMAP
0000000054000000000071
00000019E2000000002BC1
000003DB1000000005E900
00007E60540000019E4072
002BC31AD200003DB12CC1
00B914DA100001D705E800
24008E6065004300AE4083
2E80421AD2004E60512CC1
02BC20AA100003DB10C800
3607E60000004419E40000
1DA13DA100003E805E8000
01AD419E400002CC22BC30
3705E805E4005507E607E1
1CB22CC222003E913DA131
008E508E600001AD31AD40
0004E914D4000006E706E1
00001BD3120000002CB221
0000006E70000000008E50
00000003C40000000004E2
0000000001000000000011
ENDCHAR
STARTCHAR guillemotright.case
ENCODING -1
SWIDTH 666 0
DWIDTH 24 0
BBX 22 20 1 4
BITMAP
2700000000004500000000
1DB1000000003E91000000
019E5000000001BD300000
2705E90000004507E70000
1CB22BC300003E913DB100
008E507D100001BD319B00
3804EA0034005606E70052
1CC21507E4003DA13419E2
008C01BD300001A903DB20
00004E91440000007E7062
0009E508E300001BD31BD1
03CB22CB200004E914E910
1E706E7055004E508E5082
131AD31AD300222CB22CC1
04DA13DA100006E705E800
2E507E6000005D31AD4000
122CC2000000213DA10000
05E80000000007E6000000
2E40000000005C20000000
1100000000001000000000
ENDCHAR
STARTCHAR guilsinglleft.case
ENCODING -1
SWIDTH 338 0
DWIDTH 12 0
BBX 10 20 1 4
BITMAP
0000000054
00000019E2
000003DB10
00007E6054
002BC31AD2
00B914DA10
24008E6065
2E80421AD2
02BC20AA10
3607E60000
1DA13DA100
01AD419E40
3705E805E4
1CB22CC222
008E508E60
0004E914D4
00001BD312
0000006E70
00000003C4
0000000001
ENDCHAR
STARTCHAR guilsinglright.case
ENCODING -1
SWIDTH 338 0
DWIDTH 12 0
BBX 10 20 1 4
BITMAP
2700000000
1DB1000000
019E500000
2705E90000
1CB22BC300
008E507D10
3804EA0034
1CC21507E4
008C01BD30
00004E9144
0009E508E3
03CB22CB20
1E706E7055
131AD31AD3
04DA13DA10
2E507E6000
122CC20000
05E8000000
2E40000000
1100000000
ENDCHAR
STARTCHAR hyphen.case
ENCODING -1
SWIDTH 445 0
DWIDTH 16 0
BBX 14 7 1 11
BITMAP
3EEEEEEEEEEEE3
02222222222220
00000000000000
3EEEEEEEEEEEE3
02222222222220
3EEEEEEEEEEEE3
02222222222220
ENDCHAR
STARTCHAR less.case
ENCODING -1
SWIDTH 677 0
DWIDTH 24 0
BBX 22 25 1 2
BITMAP
0000000000000000000029
00000000000000000007E9
000000000000000005DC30
0000000000000003BD605C
000000000000019E813BD5
0000000000006EA219E812
00000000004CC406EA218E
000000002AE604CC406EB2
00000001C912AE604CD400
000005A2007E912AE70000
0003218E812218E9100000
0008E812BE603A30000000
3E912BE604DC4000000000
02AE604DC307EA20000000
0004CC407EA219E8100000
000006EA219E703BD50000
00000019E813BD505DB300
000000003BD505DB307E91
00000000005DB318E912AD
0000000000007E912AE603
00000000000002AE704CC4
0000000000000003CD406D
000000000000000006EA21
00000000000000000018E8
000000000000000000002A
ENDCHAR
STARTCHAR logicalnot.case
ENCODING -1
SWIDTH 618 0
DWIDTH 22 0
BBX 20 13 1 5
BITMAP
3EEEEEEEEEEEEEEEEEE6
02222222222222222221
3EEEEEEEEEEEEEEEEEE6
02222222222222222221
00000000000000000000
3EEEEEEEEEEEEEEEEEE6
02222222222222222221
00000000000006B0F197
00000000000006B0F197
00000000000006B0F197
00000000000006B0F197
00000000000006B0F197
00000000000006B0F197
ENDCHAR
STARTCHAR uni00B5.case
ENCODING -1
SWIDTH 792 0
DWIDTH 29 0
BBX 27 38 1 -9
BITMAP
3D0C4790000000005B0F19700000
3D0C4790000000005B0F19700000
3D0C4790000000005B0F19700000
3D0C4790000000005B0F19700000
3D0C4790000000005B0F19700000
3D0C4790000000005B0F19700000
3D0C4790000000005B0F19700000
3D0C4790000000005B0F19700000
3D0C4790000000005B0F19700000
3D0C4790000000005B0F19700000
3D0C4790000000005B0F19700000
3D0C4790000000005B0F19700000
3D0C4790000000005B0F19700000
3D0C4790000000005B0F19700000
3D0C4790000000005B0F19700000
3D0C4790000000005B0F19700000
3D0C4790000000005B0F19700000
3D0C4790000000005B0F19700000
3D0C4790000000005B0F19700000
3D0C4790000000006A1F0A600000
3D0C479000000000983D0C500000
3D0C479000000000D3890E200000
3D0C479010000008B1D45C050000
3D0C4791D51003AD29A0C60D8200
3D0C47905CFFFD819D17D112AEB0
3D0C47916212127DB14E40C94110
3D0C47908DFFFEB506E61518CFB0
3D0C479010021004BE403EA20010
3D0C4791FCA99BED8100029EDA70
3D0C479014677530000000004650
3D0C479000000000000000000000
3D0C479000000000000000000000
3D0C479000000000000000000000
3D0C479000000000000000000000
3D0C479000000000000000000000
3D0C479000000000000000000000
3D0C479000000000000000000000
1606235000000000000000000000
ENDCHAR
STARTCHAR minus.case
ENCODING -1
SWIDTH 618 0
DWIDTH 22 0
BBX 20 7 1 11
BITMAP
3EEEEEEEEEEEEEEEEEE6
02222222222222222221
00000000000000000000
3EEEEEEEEEEEEEEEEEE6
02222222222222222221
3EEEEEEEEEEEEEEEEEE6
02222222222222222221
ENDCHAR
STARTCHAR multiply.case
ENCODING -1
SWIDTH 580 0
DWIDTH 21 0
BBX 18 18 2 6
BITMAP
000030000000030000
0003E40000008D0000
00104E400008D24500
04D204E4008D24E500
848D204808D24E51C4
5E48D2008D24E51CA0
05E48808D24E51CA00
005E208D24E51CA000
000308D24E51CA0000
00008D24E51CA00000
0008D24E51CA074000
008D24E51CA004E400
08D24E51CA07204E40
8D24E51CA028D204E3
624E51CA03E48D2030
02E51CA0005E48D200
0021CA000005E45000
0006A0000000590000
ENDCHAR
STARTCHAR nine.case
ENCODING -1
SWIDTH 558 0
DWIDTH 20 0
BBX 18 31 1 -1
BITMAP
000000367763000000
00005DEB99BED60000
0009D50011004CB100
00BB13AEFFEA31AC00
07D16E721127E70B90
1E35E25DFFD62E52E3
6C0D55E5114D74E0A8
A74D0C600004E0C45C
D5691F100000E3883E
E3882E000000C4791F
D46A1F100000C47A1F
C53D0B700000C47A1F
890D63E83350C47A1F
3E14E43AEEA0C47A1F
0B805E942120C47A1F
02E5028CEFC0C47A1F
004E80000000C47A1F
0002CD742230C47A1F
0000049CEEC0C47A1F
000000000000C47A1F
000000000000C47A1F
201102000000C47A1F
D4791F000000E3793E
C55B0D500005D0975C
8A1E15E7337E50D4A8
3F1B804BEEB406D1E3
09B2E60000004E3B90
01C94DB5325AE5AC00
001BC67BDEC76CB100
00006DEBA9AED60000
000000367763000000
ENDCHAR
STARTCHAR numbersign.case
ENCODING -1
SWIDTH 776 0
DWIDTH 28 0
BBX 26 29 1 0
BITMAP
0000003D0D3790000A65C0E200
0000006B0F1970000C47A1F000
000000882E0C50000E2973D000
000000A65C0E20002E0B55B000
000000C4791F00004C0D389000
000000F2973D00000000000000
00AE82E0B56B0EEEEEEEEEEEE2
001214C0D38902222222222220
00AE26A1F1A65EEEEEEEEEEEE2
00120883D0C412222222222220
00000B65B0E200000000000000
00AC0D3792F0AEEEEEEEEEEEE2
00110F1A74C012222222222220
00002E0C46A000064280820000
0000390B2660000B56B0F10000
000000000000000E3882E00000
3EEEEEEEEEEEE91F0A65C0D900
022222222222213D0C47902100
3EEEEEEEEEEEE55B0F2974E900
02222222222220892E0B512100
00000000000000A64C0E300000
3EEEEEEEEEEEE0C46A1F09E900
02222222222220E2983D012100
000A74C0D30001F0B55B000000
000C46A1F10004C0D389000000
000E2983D00006A0F1A6000000
001F0B55B0000883E0C4000000
004D0D3790000B65B0E2000000
006A0F1A70000D3791F0000000
ENDCHAR
STARTCHAR one.case
ENCODING -1
SWIDTH 378 0
DWIDTH 14 0
BBX 12 29 0 0
BITMAP
6FFFA0F1A74C
011110F1A74C
6EEEA0F1A74C
122210F1A74C
6EEEA0F1A74C
122210F1A74C
000000F1A74C
000000F1A74C
000000F1A74C
000000F1A74C
000000F1A74C
000000F1A74C
000000F1A74C
000000F1A74C
000000F1A74C
000000F1A74C
000000F1A74C
000000F1A74C
000000F1A74C
000000F1A74C
000000F1A74C
000000F1A74C
000000F1A74C
000000F1A74C
000000F1A74C
000000F1A74C
000000F1A74C
000000F1A74C
000000F1A74C
ENDCHAR
STARTCHAR onehalf.case
ENCODING -1
SWIDTH 735 0
DWIDTH 26 0
BBX 24 30 1 -1
BITMAP
3FF74D0D3000000001E44D10
01114D0D3000000008A0C600
3EE74D0D300000002E26C000
02214D0D30000000A91D4000
00004D0D30000003E17B0000
00004D0D3000000B71E30000
00004D0D3000005D09900000
00004D0D300000D53E200000
00004D0D300006C0B8000000
00004D0D30001E44E1000000
00004D0D30008B0C60000000
00004D0D3002E26D00000000
00004D0D300991D400000000
00000101003E17B000000000
0000000000B71E3000000000
0000000004D19A0000000000
000000000C62E20019EFD800
000000006C0A8001D9324CB0
00000001E44E1007A0AE91D5
00000008B0C6000B65C3E389
0000002E35D000000002E279
000000990D500000001DA0B6
000003E27B00000001CB06E1
00000B81E30000001CB05E40
00004E19A0000001BA04D400
0000C62E2000000000000000
0006D0A80000000EEEEEEEE6
001D44E10000000222222221
007B0C600000000EEEEEEEE6
000000000000000222222221
ENDCHAR
STARTCHAR onequarter.case
ENCODING -1
SWIDTH 722 0
DWIDTH 26 0
BBX 24 30 1 -1
BITMAP
3FF74D0D3000000001E44D10
01114D0D3000000008A0C600
3EE74D0D300000002E26C000
02214D0D30000000A91D4000
00004D0D30000003E17B0000
00004D0D3000000B71E30000
00004D0D3000005D09900000
00004D0D300000D53E200000
00004D0D300006C0B8000000
00004D0D30001E44E1000000
00004D0D30008B0C60000000
00004D0D3002E26D00000000
00004D0D300991D400000000
00000101003E17B000000000
0000000000B71E3000000000
0000000004D19A0000000000
000000000C62E20008A0D500
000000006C0A80001E35D000
00000001E44E10007B0C6000
00000008B0C60000E44D0000
0000002E35D00006C0B70000
000000990D50000D53E10000
000003E27B00005D0A800000
00000B81E30000000004C0D3
00004E19A00000DEEE64C0D3
0000C62E200000222214C0D3
0006D0A8000000000004C0D3
001D44E1000000DEEE64C0D3
007B0C60000000222214C0D3
00000000000000000004C0D3
ENDCHAR
STARTCHAR uni00B9.case
ENCODING -1
SWIDTH 306 0
DWIDTH 11 0
BBX 9 14 1 15
BITMAP
3FF74D0D30
01114D0D30
3EE74D0D30
02214D0D30
00004D0D30
00004D0D30
00004D0D30
00004D0D30
00004D0D30
00004D0D30
00004D0D30
00004D0D30
00004D0D30
0000010100
ENDCHAR
STARTCHAR ordfeminine.case
ENCODING -1
SWIDTH 456 0
DWIDTH 16 0
BBX 14 13 1 16
BITMAP
00000B63F20000
00002F19D80000
00007B0D4D0000
0000C54D0C3000
0003E1AF379000
000891E991E000
000D4593E0B400
004E0B40D45A00
00981FEEFA1E10
00E378223E1A50
05D0CEEEEF54B0
0A72B22226B0D1
1E28700001E186
ENDCHAR
STARTCHAR ordmasculine.case
ENCODING -1
SWIDTH 489 0
DWIDTH 18 0
BBX 15 15 1 15
BITMAP
0000025764000000
0002AEB9ADE70000
003E8100003CB000
01E506CEDA21B900
08909D6348E41E20
0E35C100004D0980
2F0A4000000B46A0
2E0C1000000865B0
1F0B3000000A57A0
0C56A000002E1B60
06C1BB3016E54E10
00AA18EFFC44E400
001AD622139E5000
00005BFFFE920000
0000000110000000
ENDCHAR
STARTCHAR paragraph.case
ENCODING -1
SWIDTH 893 0
DWIDTH 32 0
BBX 31 29 0 0
BITMAP
0000028CEFFFFFFFFFFFFFFFFFFFFF50
00007EA5311111111111111111111100
000AC24ADEEEEEEEEEEEEEEEEEEEEE50
008C19D7322222222222222222222210
03E29B17DEEEEEEEEEEEEEEEEEEEEE50
0992E19C522222222222222222222210
0D4892E2000000000422405100150410
0F2A65C0000000000A65C0E2003E0C40
1F0A65C0000000000A65C0E2003E0C40
1F1882E1000000000A65C0E2003E0C40
0D33D0BB200000000A65C0E2003E0C40
0A80B91AFEEEEEEE0A65C0E2003E0C40
04E11CB4122222220A65C0E2003E0C40
009B007DFEEEEEEE0A65C0E2003E0C40
000CA100022222220A65C0E2003E0C40
00019E83100000000A65C0E2003E0C40
000004AEFEEEEEEE0A65C0E2003E0C40
00000000122222220A65C0E2003E0C40
00000000000000000A65C0E2003E0C40
00000000000000000A65C0E2003E0C40
00000000000000000A65C0E2003E0C40
00000000000000000A65C0E2003E0C40
00000000000000000A65C0E2003E0C40
00000000000000000A65C0E2003E0C40
00000000000000000A65C0E2003E0C40
00000000000000000A65C0E2003E0C40
00000000000000000A65C0E2003E0C40
00000000000000000A65C0E2003E0C40
00000000000000000A65C0E2003E0C40
ENDCHAR
STARTCHAR parenleft.case
ENCODING -1
SWIDTH 290 0
DWIDTH 10 0
BBX 11 34 1 -2
BITMAP
000063360720
0002E2C76C00
000993E1D500
001E2A84D000
006B1E2A7000
00C56B1F2000
02E1B66B0000
07A1F1A70000
0B65C0E20000
0E2983D00000
3E0C47A00000
6B0F19700000
882E0C400000
A65C0E200000
C46A0F100000
D3792F000000
E3882E000000
E2882E000000
D3892E000000
C4791F000000
B55B0F200000
974D0D300000
791F0B600000
4C0E38800000
1F1A65C00000
0D47A1F10000
0983E0C40000
04D0E3890000
00E3983E0000
00983E0D4000
003E0D57A000
000C67B1F200
0006C1E39900
0000D58B2F20
ENDCHAR
STARTCHAR parenright.case
ENCODING -1
SWIDTH 290 0
DWIDTH 10 0
BBX 11 34 -1 -3
BITMAP
A94E1D500000
3E1C66C00000
0A75D0E40000
04D0D48A0000
00D47A2F1000
008A2E1B6000
002E0C56B000
000D4892E000
000983D0D400
0005B0E29800
0002E0B56B00
0000E2983D00
0000C46A1F10
0000A64C0E20
0000983D0C40
0000882E0B50
0000792F0B50
0000792E0B50
0000882E0C40
0000974D0D30
0000B55B0F20
0000D3792E00
0001F1A74C00
0004D0D47900
0007A1F1B600
000B65C0E200
001F2A74D000
005C0E398000
00A74D0E3000
01E2A74D0000
07B2F1B70000
0D48A2E10000
6C1E3A900000
643607200000
ENDCHAR
STARTCHAR percent.case
ENCODING -1
SWIDTH 827 0
DWIDTH 30 0
BBX 28 31 1 -1
BITMAP
0000367620000000000000000000
003CEA9BEB20000000006D18B0B8
04E7100019E200000001E43E26D1
1E607CEC608D0000000AA0C72E40
7B0CB425CA0D5000004E17D0A900
B65D10001E38900001D62E45D100
D48900000B56B00008B0A91E5000
D46C00000E36A0003E25E1AA0000
A71D9202BB098000C81D54E10000
5D12AFFE812E2006D09B1D600000
0BA0001001C9002E43E29B000000
01BC51016DA000A90C73E2000000
0006CFFFC50005E17C1D60000000
0000001000001D52E38C00000000
0000000000008B0B93E200000000
000000004E13E25D101000000000
00000000D60C71E5000000000000
00000007C07C09A0000000000000
0000002E32E34E20004ADEC82000
000000A90B90D7001AD73249E600
000005E15E17C000BB18DEC53E60
00001D61E52E3005D1BC436E64E1
00008C09B0B8000B65D10004E1B6
0002E33E26D1000E39900000E389
000B80C71E40000F29800000D47A
005D17C09A00000D46C00002F198
01E52E34E100000991DA204D80E4
09B0B90D60000002E41AFFE709C0
3E25D18C000000005E6012019D20
C81E52E30000000004DEA9BEA100
0000000000000000000367520000
ENDCHAR
STARTCHAR period.case
ENCODING -1
SWIDTH 262 0
DWIDTH 9 0
BBX 7 6 1 0
BITMAP
3D0C4790
3D0C4790
3D0C4790
3D0C4790
3D0C4790
3D0C4790
ENDCHAR
STARTCHAR periodcentered.case
ENCODING -1
SWIDTH 262 0
DWIDTH 9 0
BBX 7 6 1 12
BITMAP
3D0C4790
3D0C4790
3D0C4790
3D0C4790
3D0C4790
3D0C4790
ENDCHAR
STARTCHAR plus.case
ENCODING -1
SWIDTH 616 0
DWIDTH 22 0
BBX 20 20 1 5
BITMAP
00000005134060000000
0000000C4791F0000000
0000000C4791F0000000
0000000C4791F0000000
0000000C4791F0000000
0000000C4791F0000000
0000000C4791F0000000
3EEEED0C4791F0AEEEE5
0222220C4791F0122221
0000000C4791F0000000
3EEEED0C4791F0AEEEE5
0222220C4791F0122221
3EEEED0C4791F0AEEEE5
0222220C4791F0122221
0000000C4791F0000000
0000000C4791F0000000
0000000C4791F0000000
0000000C4791F0000000
0000000C4791F0000000
00000008246190000000
ENDCHAR
STARTCHAR plusminus.case
ENCODING -1
SWIDTH 618 0
DWIDTH 22 0
BBX 20 28 1 -1
BITMAP
00000005134060000000
0000000C4791F0000000
0000000C4791F0000000
0000000C4791F0000000
0000000C4791F0000000
0000000C4791F0000000
0000000C4791F0000000
3EEEED0C4791F0AEEEE5
0222220C4791F0122221
0000000C4791F0000000
3EEEED0C4791F0AEEEE5
0222220C4791F0122221
3EEEED0C4791F0AEEEE5
0222220C4791F0122221
0000000C4791F0000000
0000000C4791F0000000
0000000C4791F0000000
0000000C4791F0000000
0000000C4791F0000000
00000008246190000000
00000000000000000000
3EEEEEEEEEEEEEEEEEE6
02222222222222222221
00000000000000000000
3EEEEEEEEEEEEEEEEEE6
02222222222222222221
3EEEEEEEEEEEEEEEEEE6
02222222222222222221
ENDCHAR
STARTCHAR question.case
ENCODING -1
SWIDTH 598 0
DWIDTH 22 0
BBX 19 30 1 0
BITMAP
00000004677520000000
000018EDA99BEC400000
0003DB30000016E80000
002E7039CEDB612C9000
00C808E84236BD32E500
06C08C16CEDA27E15D00
0C63E28D6349E29A0E40
1F1882E20000992E1980
2F0B56B000004D0D37A0
1404123000002E0B56B0
0000000000007A0D47A0
000000000005D22E1A70
00000000007D30B81E20
000000000AC11BB09A00
000000009B13D906D100
00000004E14E608E3000
0000000A71E61CC20000
0000000E27C0C9000000
0000002F0B64D0000000
0000003D0C46A0000000
0000003D0D4790000000
0000003D0D4790000000
00000000000000000000
00000000000000000000
0000003D0C47A0000000
0000003D0C47A0000000
0000003D0C47A0000000
0000003D0C47A0000000
0000003D0C47A0000000
0000003D0C47A0000000
ENDCHAR
STARTCHAR questiondown.case
ENCODING -1
SWIDTH 598 0
DWIDTH 22 0
BBX 19 30 1 -8
BITMAP
0000002F0B55B0000000
0000002F0B55B0000000
0000002F0B55B0000000
0000002F0B55B0000000
0000002F0B55B0000000
0000002F0B55B0000000
00000000000000000000
00000000000000000000
0000001F0B65B0000000
0000001F0B65B0000000
0000002E0B55B0000000
0000006C0D3790000000
000003E54E0980000000
00006E61C70E30000000
0008D31CB07C00000000
007D23E904E300000000
02E24E506E4000000000
0981E508D30000000000
0E37A08B100000000000
2F0B62E1000000000000
3E0C46A0000015032230
2F0B65B000003E0C47A0
0F2892E200009A1F1880
0B72E28D6349E28B0D50
06D07D26CEDA26E25E00
00C808E84235BD31D600
002E7039CEDB612C9000
0002DB30000016E80000
000018EDA99BEC400000
00000004677520000000
ENDCHAR
STARTCHAR quotedbl.case
ENCODING -1
SWIDTH 464 0
DWIDTH 17 0
BBX 16 10 0 19
BITMAP
1F0B55B000F1A64C
1F0B55B000F1A64C
1F0B55B000F1A64C
1F0B55B000F1A64C
1F0B55B000F1A64C
1F0B55B000F1A64C
1F0B55B000F1A64C
1F0B55B000F1A64C
1F0B55B000F1A64C
1F0B55B000F1A64C
ENDCHAR
STARTCHAR quotedblbase.case
ENCODING -1
SWIDTH 464 0
DWIDTH 17 0
BBX 16 10 0 -4
BITMAP
1F0B55B000F1A74C
1F0B55B000F1A74C
1F0B55B000F1A74C
1F0B55B000F1A74C
1F0B55B000F1A74C
1F0B55B000F1A74C
000B55B00000A74C
000B55B00000A74C
000B55B00000A74C
000B55B00000A74C
ENDCHAR
STARTCHAR quotedblleft.case
ENCODING -1
SWIDTH 464 0
DWIDTH 17 0
BBX 16 10 0 19
BITMAP
2F0B500000F1A600
2F0B500000F1A600
2F0B500000F1A600
2F0B500000F1A600
2F0B55B000F1A64C
2F0B55B000F1A64C
2F0B55B000F1A64C
2F0B55B000F1A64C
2F0B55B000F1A64C
2F0B55B000F1A64C
ENDCHAR
STARTCHAR quotedblright.case
ENCODING -1
SWIDTH 464 0
DWIDTH 17 0
BBX 16 10 0 19
BITMAP
1F0B55B000F1A74C
1F0B55B000F1A74C
1F0B55B000F1A74C
1F0B55B000F1A74C
1F0B55B000F1A74C
1F0B55B000F1A74C
000B55B00000A74C
000B55B00000A74C
000B55B00000A74C
000B55B00000A74C
ENDCHAR
STARTCHAR quoteleft.case
ENCODING -1
SWIDTH 212 0
DWIDTH 8 0
BBX 7 10 0 19
BITMAP
2F0B5000
2F0B5000
2F0B5000
2F0B5000
2F0B55B0
2F0B55B0
2F0B55B0
2F0B55B0
2F0B55B0
2F0B55B0
ENDCHAR
STARTCHAR quoteright.case
ENCODING -1
SWIDTH 212 0
DWIDTH 8 0
BBX 7 10 0 19
BITMAP
1F0B55B0
1F0B55B0
1F0B55B0
1F0B55B0
1F0B55B0
1F0B55B0
000B55B0
000B55B0
000B55B0
000B55B0
ENDCHAR
STARTCHAR quotesinglbase.case
ENCODING -1
SWIDTH 212 0
DWIDTH 8 0
BBX 7 10 0 -4
BITMAP
1F0B55B0
1F0B55B0
1F0B55B0
1F0B55B0
1F0B55B0
1F0B55B0
000B55B0
000B55B0
000B55B0
000B55B0
ENDCHAR
STARTCHAR quotesingle.case
ENCODING -1
SWIDTH 212 0
DWIDTH 8 0
BBX 7 10 0 19
BITMAP
1F0B55B0
1F0B55B0
1F0B55B0
1F0B55B0
1F0B55B0
1F0B55B0
1F0B55B0
1F0B55B0
1F0B55B0
1F0B55B0
ENDCHAR
STARTCHAR registered.case
ENCODING -1
SWIDTH 895 0
DWIDTH 32 0
BBX 31 31 1 -1
BITMAP
00000000000146776520000000000000
0000000017CFCA99ACED820000000000
00000017EB51000000049E9100000000
000002DC4026ACDECB7302AE40000000
00004E802AEB643246AEC405E6000000
0003E507E810000000007EA13E500000
002D70AD20000000000001BC14E30000
00AA09C10000000000000009C07D0000
03E16D200882EEEEEEC70000B90D6000
0B81E4000882E222225CA0002E35E000
2F18B0000882FEEEEEA1D50008B0D500
6B0D50000882E22223D57A0002F18900
A82F10000882E00000C55B0000C54D00
C55C00000882FEEEEFC07A0000892F00
D47A00000882E2222200C600007A0F10
E38900000882E000002AC000006B0F20
D47A00000882FEEEEFF91000007A0F10
C56B00000882E228C2D4000000892F00
A83E00000882E001E27B000000B64D00
6B0E40000882E000981E200001F28900
2F19A0000882E0003E19800007C0D500
0B82E3000882E0000C63E1001E45D000
03E18C100662B000059094009B0D6000
00AA0BA00000000000000007D17D0000
001D71CB100000000000008E34E30000
0003E51AD500000000004CC23E500000
00004E805DD84100137CE705E6000000
000002DC4059DFFFFEA512AE40000000
00000017EB51001100049E9100000000
0000000017CFCA99ACED820000000000
00000000000146776520000000000000
ENDCHAR
STARTCHAR uni030A.case
ENCODING -1
SWIDTH 0 0
DWIDTH 0 0
BBX 9 9 1 31
BITMAP
005CEC6000
05E635D700
0E50003E10
2F10000D40
3F00000C40
0E40002E20
07D402C900
007EFF9000
0000200000
ENDCHAR
STARTCHAR section.case
ENCODING -1
SWIDTH 645 0
DWIDTH 23 0
BBX 22 38 1 -6
BITMAP
00000026ACDEDB73000000
000019EA6422358DC40000
0002DA10367764005D8000
001D806DEB99BDE921C900
007B09D400000038E41D50
00D54E128CDEDA504E35C0
00F1981E943237DB07A071
01F0A64D00000018300000
00F2891D92000000000000
00B72E429ED95100000000
005E16E81048BFB5000000
000AC13BFB73016DC20000
0001AD5026ADEA407E3000
000005DD841027DB16D100
000670049DFC821AC0B700
007D23810025AF60D54D00
03E25D31892004E27A0F10
0991E33D710000B65C0E20
0C56B0D4000000D46A0F10
0D3791F000002AA0C63E00
0C56B0D70018D609C0A900
0981E44EB510006916D100
03E15E517CFC84001B2000
00AB04DC62148CE8100000
001BC205BEDA6239E50000
00008E820037BEB33D6000
0000029ED851017E62E300
0000000048CFC713E38A00
0000000000015CC1892E00
00001510000000D46A0F10
315A09D7421248E2981F00
A81D8049DEFED924E24D00
3E21BD84200025AE40A900
07D2039DFFFFFC7105E200
008E6000012100007E4000
0004CD841000148DC30000
0000049CFFFFFC94000000
0000000001210000000000
ENDCHAR
STARTCHAR semicolon.case
ENCODING -1
SWIDTH 338 0
DWIDTH 12 0
BBX 10 23 1 -4
BITMAP
000892E0B5
000892E0B5
000892E0B5
000892E0B5
000892E0B5
000892E0B5
0000000000
0000000000
0000000000
0000000000
0000000000
0000000000
0000000000
000C55C0D4
001F1982F0
004C0D46B0
00891F1A70
00C55C0D40
01F1982E00
05C0D46B00
0881F1A700
0C55C0D300
1F1982E000
ENDCHAR
STARTCHAR seven.case
ENCODING -1
SWIDTH 505 0
DWIDTH 18 0
BBX 16 29 1 0
BITMAP
EFFFFFFFFFFFFFFC
1111111111111111
DEEEEEEEEEEEEEEB
2222222222222221
DEEEEEEEEEEEEEEB
2222222222222221
0000000006327062
000000000E37A1F1
000000003E0B64C0
000000007A1F2980
00000000B64D0D40
00000000E2882E00
00000004D0D46B00
0000000882F1A700
0000000C46B0E300
0000001F1A73E000
0000006B0E37A000
000000A73E0B5000
000000E37A1F1000
000003E0B64C0000
000007A1F2980000
00000B64C0D40000
00001F2982E00000
00004C0D46B00000
0000882F1A700000
0000C46B0E300000
0002F1A73D000000
0006B0E379000000
000A73E0B5000000
ENDCHAR
STARTCHAR six.case
ENCODING -1
SWIDTH 558 0
DWIDTH 20 0
BBX 18 31 1 -1
BITMAP
000000367763000000
00005DEB99BEE70000
001AD67BDDC76CC200
00BB4DA5335AE48D10
08C3E50000005E2AB0
2F2B703AEEB407C1E4
7B2E14E7337E60E289
B66A0C600004E0A74D
D4881F100000E3882F
E3882E000000201102
E2883E000000000000
E2883E000000000000
E2883E0BEEDA500000
E2883E032247DD3000
E2883E00000007E500
E2883E0BFED8204E20
E2883E022249E607C0
E2883E09EEB43E50D5
E2883E05337E44E08A
E2883E000006D0C54D
E2883E000000F2882F
E3883E000000D3792F
D46A2F000000E2883E
B63D0D500004E0C55C
7B0C55E5115E63E1B8
2F24E35DFFD62D62F2
08C06E821127E80C80
00BB139EFFEA41AC00
001AD50011004DA100
00006DEB99BED60000
000000367763000000
ENDCHAR
STARTCHAR slash.case
ENCODING -1
SWIDTH 504 0
DWIDTH 18 0
BBX 18 34 0 -2
BITMAP
000000000004507135
00000000000B63E0B7
00000000001F1891F2
00000000006B0D46C0
0000000000B64E0B70
0000000001F1991F20
0000000006B0D46C00
000000000B64E0B600
000000001F1991F200
000000006B0E46B000
00000000B64E0B6000
00000002F1991F1000
00000007B0E46B0000
0000000C64D0B60000
0000002F1991F10000
0000007B0E46B00000
000000C64D0B600000
000002F1981F100000
000007B0E36B000000
00000C64D0B6000000
00002F1981F1000000
00007B0E36B0000000
0000C64D0B60000000
0002F1981F10000000
0007B0E36B00000000
000C54D0B600000000
002F1981F100000000
007A0E36B000000000
00C54D0B6000000000
02F1981F1000000000
07A0E36B0000000000
0C54D0B60000000000
2E1982F10000000000
7A0E36B00000000000
ENDCHAR
STARTCHAR uni00AD.case
ENCODING -1
SWIDTH 445 0
DWIDTH 16 0
BBX 14 7 1 11
BITMAP
3EEEEEEEEEEEE3
02222222222220
00000000000000
3EEEEEEEEEEEE3
02222222222220
3EEEEEEEEEEEE3
02222222222220
ENDCHAR
STARTCHAR sterling.case
ENCODING -1
SWIDTH 618 0
DWIDTH 22 0
BBX 22 30 0 0
BITMAP
0000000035776410000000
0000029EDBA9ACFB400000
00007E9300000016DB1000
0008D3049CDEDA6109D200
006E22CD742236BE707D10
00D52E728CEEC923C90B80
04D0A92EA53248E71D53E0
06B0E28A0000002E36B091
05B0F19700000007511000
03E0C54C00000000000000
00A44A0870000000000000
0000000000000000000000
4EEEEEEEEEEEEEEE000000
1222222222222222000000
0000000000000000000000
4EEEEEEEEEEEEEEE000000
1222222222222222000000
4EEEEEEEEEEEEEEE000000
1222222222222222000000
0000000000000000000000
000AB1D65C000000000000
008C19A1D3000000000000
05C15B1880000000000000
0000000000000000000000
9EEEEEEEEEEEEEEEEEEEE3
1222222222222222222220
9EEEEEEEEEEEEEEEEEEEE3
1222222222222222222220
1111111111111111111110
AFFFFFFFFFFFFFFFFFFFF3
ENDCHAR
STARTCHAR three.case
ENCODING -1
SWIDTH 558 0
DWIDTH 20 0
BBX 18 31 1 -1
BITMAP
000000367763000000
00006DEBA9BEE70000
001BC67BDDC76CC200
01C93DB5325AE48D10
09B2E60000004E3AA0
3E1A804BEEB506C1E4
8A2E14E7337E60D399
C56B0D500004E0974D
D3792F000000E3792F
201102000000D3882F
000000000002E1A74E
00000000000130E26A
000000000DDA5020C5
000000000247DD3090
00000000000007E500
000000000ED8204E20
000000000249E607C0
000000000DB43E50D5
00000000037E44E08A
000000000006D0C54D
000000000000F2882F
613316000000D3792F
D4791F100000E2883E
B64D0D600004E0C55C
7B0D45E5115E63E1B8
2F25E25DFFD62D62F2
08C07E721127E80C80
00CA13AEFFEA41AC00
001AD50011004DA100
00006DEB99BED60000
000000367763000000
ENDCHAR
STARTCHAR threequarters.case
ENCODING -1
SWIDTH 722 0
DWIDTH 26 0
BBX 24 30 1 -1
BITMAP
005CEEB40000000001E44D10
06E6226E5000000008A0C600
0E44DD34D00000002E26C000
2A0977B0F2000000A91D4000
00000020E1000003E17B0000
00000EB41000000B71E30000
0000038F5000005D09900000
00000006D00000D53E200000
00000D41F10006C0B8000000
160537B0F2001E44E1000000
1F26FF65E0008B0C60000000
08D4115E6002E26D00000000
007EFFD6000991D400000000
00001100003E17B000000000
0000000000B71E3000000000
0000000004D19A0000000000
000000000C62E20008A0D500
000000006C0A80001E35D000
00000001E44E10007B0C6000
00000008B0C60000E44D0000
0000002E35D00006C0B70000
000000990D50000D53E10000
000003E27B00005D0A800000
00000B81E30000000004C0D3
00004E19A00000DEEE64C0D3
0000C62E200000222214C0D3
0006D0A8000000000004C0D3
001D44E1000000DEEE64C0D3
007B0C60000000222214C0D3
00000000000000000004C0D3
ENDCHAR
STARTCHAR uni00B3.case
ENCODING -1
SWIDTH 332 0
DWIDTH 12 0
BBX 10 14 1 15
BITMAP
005CEEB400
06E6226E50
0E44DD34D0
2A0977B0F2
00000020E1
00000EB410
0000038F50
00000006D0
00000D41F1
160537B0F2
1F26FF65E0
08D4115E60
007EFFD600
0000110000
ENDCHAR
STARTCHAR tildecomb.case
ENCODING -1
SWIDTH 0 0
DWIDTH 0 0
BBX 15 5 1 31
BITMAP
006CEC6000000750
07E525DB10000D50
0E40001AD401AD00
2D0000007EFFB200
0000000000110000
ENDCHAR
STARTCHAR trademark.case
ENCODING -1
SWIDTH 850 0
DWIDTH 31 0
BBX 30 15 0 14
BITMAP
AFFFFFFFFFFF30F19C0000000AC0E2
11111111111100F19F9000007FC0E2
00000000000000F199E50003E8C0E2
9EEEEEEEEEEE30F1975E201D74C0E2
12228A3F222200F19C08C1BA0AC0E2
0000791F000000F19F90BDD17FC0E2
0000791F000000F199E51D83E7C0E2
0000791F000000F1974E33EE64C0E2
0000791F000000F19707D16A04C0E2
0000791F000000F19700AA0004C0E2
0000791F000000F197001C1004C0E2
0000791F000000F19700000004C0E2
0000791F000000F19700000004C0E2
0000791F000000F19700000004C0E2
0000791F000000F19700000004C0E2
ENDCHAR
STARTCHAR two.case
ENCODING -1
SWIDTH 558 0
DWIDTH 20 0
BBX 18 30 1 0
BITMAP
000000367763000000
00006DEB99BED70000
001AD50000004CB100
00CA127CDEC821AC10
09B05EA53249E50B90
2F24E43BEEB43E41E3
8A0D54E7337E55D0A8
B64D0D600005D0C55C
D4791F100000E3883E
412214000000D3792F
000000000001E1982E
00000000000A90C55B
00000000007D15E0B7
0000000006E32E54E1
000000004E41C81D70
00000003E51CA0AC00
0000002E60BC18E200
000002D80AC17E3000
00001C908D15F40000
0000BA07D25F500000
000AC16E24E5000000
009C15E33E60000000
04B22B41A600000000
000000000000000000
2EEEEEEEEEEEEEEEE3
022222222222222220
2EEEEEEEEEEEEEEEE3
022222222222222220
011111111111111110
2FFFFFFFFFFFFFFFF3
ENDCHAR
STARTCHAR uni00B2.case
ENCODING -1
SWIDTH 339 0
DWIDTH 12 0
BBX 10 14 1 15
BITMAP
003BEFC500
03E7325D70
0B72CE63E2
0F2894E0C5
000005E0B5
00003E61E3
0003E709B0
003E708D20
02D707C200
0000000000
3EEEEEEEE3
0222222220
3EEEEEEEE3
0222222220
ENDCHAR
STARTCHAR underscore.case
ENCODING -1
SWIDTH 667 0
DWIDTH 24 0
BBX 22 6 1 0
BITMAP
3EEEEEEEEEEEEEEEEEEEE3
0222222222222222222220
3EEEEEEEEEEEEEEEEEEEE3
0222222222222222222220
0111111111111111111110
3FFFFFFFFFFFFFFFFFFFF3
ENDCHAR
STARTCHAR yen.case
ENCODING -1
SWIDTH 769 0
DWIDTH 28 0
BBX 28 29 0 0
BITMAP
4E17C09A000000000001E52E34E1
0AA0C81D50000000000AA0C81D50
01E52E35E1000000005E17D09B00
005D17C0AA00000001D52E34E200
000A90C71E40000009B0B91D6000
0002E43E25D100004E26D18B0000
00006D18B0B90001D62E43E20000
00000B80D62E4009B0A90C700000
000002E34E26D13E25E18C000000
0000007C09A0B8151E53E3000000
0000000C71D52E30AA0C80000000
00000003E24E17C0817D00000000
000000008C0AA0C802E300000000
000000000C61E43E359000000000
0000000003E25D18C00000000000
0000000000430520620000000000
0000000000040321300000000000
00000000001F0A64C00000000000
000008EEE91F0A64C0DEEE400000
00000122211F0A64C02222000000
000008EEE91F0A64C0DEEE400000
00000122211F0A64C02222000000
00000000001F0A64C00000000000
000008EEE91F0A64C0DEEE400000
00000122211F0A64C02222000000
00000000001F0A64C00000000000
00000000001F0A64C00000000000
00000000001F0A64C00000000000
00000000001F0A64C00000000000
ENDCHAR
STARTCHAR zero.case
ENCODING -1
SWIDTH 558 0
DWIDTH 20 0
BBX 18 31 1 -1
BITMAP
000000367763000000
00005DEB99BED70000
001AD67BDEC86CB100
00BB4DA5325AE5AC00
08C3E50000004E3B90
2F2B703AEEB406C2E3
7B2E14E7337E50D3A8
B66A0C600005D0975C
D4881F100000E2793E
E3882E000000D4791F
E2883E000000C4791F
E2883E000000C4791F
E2883E000000C4791F
E2883E000000C4791F
E2883E000000C4791F
E2883E000000C4791F
E2883E000000C4791F
E2883E000000C4791F
E2883E000000C4791F
E2883E000000C4791F
E2883E000000C4791F
E3883E000000C4791F
D46A2F000000E3973E
B63D0D500004E0C45C
7B0C55E5114D74D0A8
2F24E35DFFE62E52E3
08C06E821127E70B90
00BB139EFFEA31AC00
001AD50011004CB100
00006DEB99AED70000
000000367763000000
ENDCHAR
ENDFONT
